<?xml version="1.0" encoding="UTF-8" standalone="no"?>
<!DOCTYPE svg PUBLIC "-//W3C//DTD SVG 1.1//EN"
 "http://www.w3.org/Graphics/SVG/1.1/DTD/svg11.dtd">
<!-- Generated by graphviz version 8.0.3 (20230416.2022)
 -->
<!-- Title: syntax Pages: 1 -->
<svg width="705pt" height="838pt"
 viewBox="0.00 0.00 704.56 838.30" xmlns="http://www.w3.org/2000/svg" xmlns:xlink="http://www.w3.org/1999/xlink">
<g id="graph0" class="graph" transform="scale(1 1) rotate(0) translate(4 834.3)">
<title>syntax</title>
<polygon fill="white" stroke="none" points="-4,4 -4,-834.3 700.56,-834.3 700.56,4 -4,4"/>
<!-- en_6 -->
<g id="node1" class="node">
<title>en_6</title>
<ellipse fill="black" stroke="black" cx="1.8" cy="-60.5" rx="1.8" ry="1.8"/>
</g>
<!-- 6 -->
<g id="node20" class="node">
<title>6</title>
<ellipse fill="none" stroke="black" cx="153.29" cy="-60.5" rx="23.5" ry="23.5"/>
<text text-anchor="middle" x="153.29" y="-56.3" font-family="Times,serif" font-size="14.00">6</text>
</g>
<!-- en_6&#45;&gt;6 -->
<g id="edge38" class="edge">
<title>en_6&#45;&gt;6</title>
<path fill="none" stroke="black" d="M4.09,-60.5C13.95,-60.5 77.99,-60.5 118.6,-60.5"/>
<polygon fill="black" stroke="black" points="118.36,-64 128.36,-60.5 118.36,-57 118.36,-64"/>
<text text-anchor="middle" x="66.69" y="-64.7" font-family="Times,serif" font-size="14.00">block</text>
</g>
<!-- en_8 -->
<g id="node2" class="node">
<title>en_8</title>
<ellipse fill="black" stroke="black" cx="1.8" cy="-273.5" rx="1.8" ry="1.8"/>
</g>
<!-- 8 -->
<g id="node22" class="node">
<title>8</title>
<ellipse fill="none" stroke="black" cx="153.29" cy="-273.5" rx="23.5" ry="23.5"/>
<text text-anchor="middle" x="153.29" y="-269.3" font-family="Times,serif" font-size="14.00">8</text>
</g>
<!-- en_8&#45;&gt;8 -->
<g id="edge39" class="edge">
<title>en_8&#45;&gt;8</title>
<path fill="none" stroke="black" d="M4.09,-273.5C13.95,-273.5 77.99,-273.5 118.6,-273.5"/>
<polygon fill="black" stroke="black" points="118.36,-277 128.36,-273.5 118.36,-270 118.36,-277"/>
<text text-anchor="middle" x="66.69" y="-277.7" font-family="Times,serif" font-size="14.00">retstat</text>
</g>
<!-- en_12 -->
<g id="node3" class="node">
<title>en_12</title>
<ellipse fill="black" stroke="black" cx="1.8" cy="-388.5" rx="1.8" ry="1.8"/>
</g>
<!-- 12 -->
<g id="node26" class="node">
<title>12</title>
<ellipse fill="none" stroke="black" cx="153.29" cy="-388.5" rx="23.5" ry="23.5"/>
<text text-anchor="middle" x="153.29" y="-384.3" font-family="Times,serif" font-size="14.00">12</text>
</g>
<!-- en_12&#45;&gt;12 -->
<g id="edge40" class="edge">
<title>en_12&#45;&gt;12</title>
<path fill="none" stroke="black" d="M4.09,-388.5C13.95,-388.5 77.99,-388.5 118.6,-388.5"/>
<polygon fill="black" stroke="black" points="118.36,-392 128.36,-388.5 118.36,-385 118.36,-392"/>
<text text-anchor="middle" x="66.69" y="-392.7" font-family="Times,serif" font-size="14.00">assign</text>
</g>
<!-- en_15 -->
<g id="node4" class="node">
<title>en_15</title>
<ellipse fill="black" stroke="black" cx="1.8" cy="-460.5" rx="1.8" ry="1.8"/>
</g>
<!-- 15 -->
<g id="node29" class="node">
<title>15</title>
<ellipse fill="none" stroke="black" cx="153.29" cy="-460.5" rx="23.5" ry="23.5"/>
<text text-anchor="middle" x="153.29" y="-456.3" font-family="Times,serif" font-size="14.00">15</text>
</g>
<!-- en_15&#45;&gt;15 -->
<g id="edge41" class="edge">
<title>en_15&#45;&gt;15</title>
<path fill="none" stroke="black" d="M4.09,-460.5C13.95,-460.5 77.99,-460.5 118.6,-460.5"/>
<polygon fill="black" stroke="black" points="118.36,-464 128.36,-460.5 118.36,-457 118.36,-464"/>
<text text-anchor="middle" x="66.69" y="-464.7" font-family="Times,serif" font-size="14.00">explist</text>
</g>
<!-- en_16 -->
<g id="node5" class="node">
<title>en_16</title>
<ellipse fill="black" stroke="black" cx="1.8" cy="-542.5" rx="1.8" ry="1.8"/>
</g>
<!-- 16 -->
<g id="node30" class="node">
<title>16</title>
<ellipse fill="none" stroke="black" cx="153.29" cy="-542.5" rx="23.5" ry="23.5"/>
<text text-anchor="middle" x="153.29" y="-538.3" font-family="Times,serif" font-size="14.00">16</text>
</g>
<!-- en_16&#45;&gt;16 -->
<g id="edge42" class="edge">
<title>en_16&#45;&gt;16</title>
<path fill="none" stroke="black" d="M4.09,-542.5C13.95,-542.5 77.99,-542.5 118.6,-542.5"/>
<polygon fill="black" stroke="black" points="118.36,-546 128.36,-542.5 118.36,-539 118.36,-546"/>
<text text-anchor="middle" x="66.69" y="-546.7" font-family="Times,serif" font-size="14.00">args</text>
</g>
<!-- en_20 -->
<g id="node6" class="node">
<title>en_20</title>
<ellipse fill="black" stroke="black" cx="1.8" cy="-633.5" rx="1.8" ry="1.8"/>
</g>
<!-- 20 -->
<g id="node34" class="node">
<title>20</title>
<ellipse fill="none" stroke="black" cx="153.29" cy="-633.5" rx="23.5" ry="23.5"/>
<text text-anchor="middle" x="153.29" y="-629.3" font-family="Times,serif" font-size="14.00">20</text>
</g>
<!-- en_20&#45;&gt;20 -->
<g id="edge43" class="edge">
<title>en_20&#45;&gt;20</title>
<path fill="none" stroke="black" d="M4.09,-633.5C13.95,-633.5 77.99,-633.5 118.6,-633.5"/>
<polygon fill="black" stroke="black" points="118.36,-637 128.36,-633.5 118.36,-630 118.36,-637"/>
<text text-anchor="middle" x="66.69" y="-637.7" font-family="Times,serif" font-size="14.00">tableconstructor</text>
</g>
<!-- en_1 -->
<g id="node7" class="node">
<title>en_1</title>
<ellipse fill="black" stroke="black" cx="1.8" cy="-775.5" rx="1.8" ry="1.8"/>
</g>
<!-- 1 -->
<g id="node15" class="node">
<title>1</title>
<ellipse fill="none" stroke="black" cx="153.29" cy="-775.5" rx="23.5" ry="23.5"/>
<text text-anchor="middle" x="153.29" y="-771.3" font-family="Times,serif" font-size="14.00">1</text>
</g>
<!-- en_1&#45;&gt;1 -->
<g id="edge44" class="edge">
<title>en_1&#45;&gt;1</title>
<path fill="none" stroke="black" d="M4.09,-775.5C13.95,-775.5 77.99,-775.5 118.6,-775.5"/>
<polygon fill="black" stroke="black" points="118.36,-779 128.36,-775.5 118.36,-772 118.36,-779"/>
<text text-anchor="middle" x="66.69" y="-779.7" font-family="Times,serif" font-size="14.00">field</text>
</g>
<!-- 23 -->
<g id="node8" class="node">
<title>23</title>
<ellipse fill="none" stroke="black" cx="669.06" cy="-787.5" rx="23.5" ry="23.5"/>
<ellipse fill="none" stroke="black" cx="669.06" cy="-787.5" rx="27.5" ry="27.5"/>
<text text-anchor="middle" x="669.06" y="-783.3" font-family="Times,serif" font-size="14.00">23</text>
</g>
<!-- 24 -->
<g id="node9" class="node">
<title>24</title>
<ellipse fill="none" stroke="black" cx="367.81" cy="-63.5" rx="23.5" ry="23.5"/>
<ellipse fill="none" stroke="black" cx="367.81" cy="-63.5" rx="27.5" ry="27.5"/>
<text text-anchor="middle" x="367.81" y="-59.3" font-family="Times,serif" font-size="14.00">24</text>
</g>
<!-- 25 -->
<g id="node10" class="node">
<title>25</title>
<ellipse fill="none" stroke="black" cx="470.86" cy="-266.5" rx="23.5" ry="23.5"/>
<ellipse fill="none" stroke="black" cx="470.86" cy="-266.5" rx="27.5" ry="27.5"/>
<text text-anchor="middle" x="470.86" y="-262.3" font-family="Times,serif" font-size="14.00">25</text>
</g>
<!-- 26 -->
<g id="node11" class="node">
<title>26</title>
<ellipse fill="none" stroke="black" cx="470.86" cy="-362.5" rx="23.5" ry="23.5"/>
<ellipse fill="none" stroke="black" cx="470.86" cy="-362.5" rx="27.5" ry="27.5"/>
<text text-anchor="middle" x="470.86" y="-358.3" font-family="Times,serif" font-size="14.00">26</text>
</g>
<!-- 14 -->
<g id="node28" class="node">
<title>14</title>
<ellipse fill="none" stroke="black" cx="367.81" cy="-381.5" rx="23.5" ry="23.5"/>
<text text-anchor="middle" x="367.81" y="-377.3" font-family="Times,serif" font-size="14.00">14</text>
</g>
<!-- 26&#45;&gt;14 -->
<g id="edge36" class="edge">
<title>26&#45;&gt;14</title>
<path fill="none" stroke="black" d="M445.1,-351.91C435.11,-349.04 423.55,-347.5 413.31,-350.7 406.72,-352.76 400.24,-356.17 394.36,-360"/>
<polygon fill="black" stroke="black" points="392.78,-357.54 386.68,-366.21 396.85,-363.24 392.78,-357.54"/>
<text text-anchor="middle" x="419.33" y="-355.7" font-family="Times,serif" font-size="14.00">&#39;,&#39;</text>
</g>
<!-- 27 -->
<g id="node12" class="node">
<title>27</title>
<ellipse fill="none" stroke="black" cx="252.33" cy="-464.5" rx="23.5" ry="23.5"/>
<ellipse fill="none" stroke="black" cx="252.33" cy="-464.5" rx="27.5" ry="27.5"/>
<text text-anchor="middle" x="252.33" y="-460.3" font-family="Times,serif" font-size="14.00">27</text>
</g>
<!-- 27&#45;&gt;15 -->
<g id="edge37" class="edge">
<title>27&#45;&gt;15</title>
<path fill="none" stroke="black" d="M226.27,-454.61C220.02,-452.58 213.26,-450.74 206.83,-449.7 200.07,-448.61 192.87,-449.03 186.02,-450.19"/>
<polygon fill="black" stroke="black" points="185.68,-446.91 176.69,-452.51 187.21,-453.74 185.68,-446.91"/>
<text text-anchor="middle" x="200.81" y="-454.7" font-family="Times,serif" font-size="14.00">&#39;,&#39;</text>
</g>
<!-- 28 -->
<g id="node13" class="node">
<title>28</title>
<ellipse fill="none" stroke="black" cx="470.86" cy="-531.5" rx="23.5" ry="23.5"/>
<ellipse fill="none" stroke="black" cx="470.86" cy="-531.5" rx="27.5" ry="27.5"/>
<text text-anchor="middle" x="470.86" y="-527.3" font-family="Times,serif" font-size="14.00">28</text>
</g>
<!-- 29 -->
<g id="node14" class="node">
<title>29</title>
<ellipse fill="none" stroke="black" cx="470.86" cy="-642.5" rx="23.5" ry="23.5"/>
<ellipse fill="none" stroke="black" cx="470.86" cy="-642.5" rx="27.5" ry="27.5"/>
<text text-anchor="middle" x="470.86" y="-638.3" font-family="Times,serif" font-size="14.00">29</text>
</g>
<!-- 1&#45;&gt;23 -->
<g id="edge3" class="edge">
<title>1&#45;&gt;23</title>
<path fill="none" stroke="black" d="M173.49,-787.94C192.48,-799.03 222.74,-813.5 251.33,-813.5 251.33,-813.5 251.33,-813.5 571.8,-813.5 592.54,-813.5 614.95,-807.8 632.92,-801.75"/>
<polygon fill="black" stroke="black" points="633.97,-804.73 642.22,-798.08 631.62,-798.14 633.97,-804.73"/>
<text text-anchor="middle" x="419.33" y="-817.7" font-family="Times,serif" font-size="14.00">&#39;e&#39;</text>
</g>
<!-- 2 -->
<g id="node16" class="node">
<title>2</title>
<ellipse fill="none" stroke="black" cx="470.86" cy="-761.5" rx="23.5" ry="23.5"/>
<text text-anchor="middle" x="470.86" y="-757.3" font-family="Times,serif" font-size="14.00">2</text>
</g>
<!-- 1&#45;&gt;2 -->
<g id="edge1" class="edge">
<title>1&#45;&gt;2</title>
<path fill="none" stroke="black" d="M177.24,-774.48C232.23,-772.04 371.74,-765.85 436.22,-762.99"/>
<polygon fill="black" stroke="black" points="436.16,-766.45 445.99,-762.51 435.85,-759.46 436.16,-766.45"/>
<text text-anchor="middle" x="310.07" y="-773.7" font-family="Times,serif" font-size="14.00">&#39;N&#39;</text>
</g>
<!-- 4 -->
<g id="node17" class="node">
<title>4</title>
<ellipse fill="none" stroke="black" cx="252.33" cy="-723.5" rx="23.5" ry="23.5"/>
<text text-anchor="middle" x="252.33" y="-719.3" font-family="Times,serif" font-size="14.00">4</text>
</g>
<!-- 1&#45;&gt;4 -->
<g id="edge2" class="edge">
<title>1&#45;&gt;4</title>
<path fill="none" stroke="black" d="M171.66,-760.52C178.55,-755.06 186.74,-749.14 194.79,-744.7 202.38,-740.51 210.97,-736.81 219.12,-733.73"/>
<polygon fill="black" stroke="black" points="220.22,-736.69 228.47,-730.04 217.87,-730.1 220.22,-736.69"/>
<text text-anchor="middle" x="200.81" y="-749.7" font-family="Times,serif" font-size="14.00">&#39;[&#39;</text>
</g>
<!-- 3 -->
<g id="node18" class="node">
<title>3</title>
<ellipse fill="none" stroke="black" cx="570.8" cy="-761.5" rx="23.5" ry="23.5"/>
<text text-anchor="middle" x="570.8" y="-757.3" font-family="Times,serif" font-size="14.00">3</text>
</g>
<!-- 2&#45;&gt;3 -->
<g id="edge4" class="edge">
<title>2&#45;&gt;3</title>
<path fill="none" stroke="black" d="M494.57,-761.5C506.84,-761.5 522.24,-761.5 535.9,-761.5"/>
<polygon fill="black" stroke="black" points="535.86,-765 545.86,-761.5 535.86,-758 535.86,-765"/>
<text text-anchor="middle" x="522.83" y="-765.7" font-family="Times,serif" font-size="14.00">&#39;=&#39;</text>
</g>
<!-- 5 -->
<g id="node19" class="node">
<title>5</title>
<ellipse fill="none" stroke="black" cx="367.81" cy="-723.5" rx="23.5" ry="23.5"/>
<text text-anchor="middle" x="367.81" y="-719.3" font-family="Times,serif" font-size="14.00">5</text>
</g>
<!-- 4&#45;&gt;5 -->
<g id="edge6" class="edge">
<title>4&#45;&gt;5</title>
<path fill="none" stroke="black" d="M276.3,-723.5C292.6,-723.5 314.75,-723.5 333.06,-723.5"/>
<polygon fill="black" stroke="black" points="332.88,-727 342.88,-723.5 332.88,-720 332.88,-727"/>
<text text-anchor="middle" x="310.07" y="-727.7" font-family="Times,serif" font-size="14.00">&#39;e&#39;</text>
</g>
<!-- 3&#45;&gt;23 -->
<g id="edge5" class="edge">
<title>3&#45;&gt;23</title>
<path fill="none" stroke="black" d="M593.64,-767.4C604.91,-770.44 618.95,-774.24 631.78,-777.7"/>
<polygon fill="black" stroke="black" points="630.63,-781.29 641.2,-780.52 632.46,-774.53 630.63,-781.29"/>
<text text-anchor="middle" x="617.93" y="-779.7" font-family="Times,serif" font-size="14.00">&#39;e&#39;</text>
</g>
<!-- 5&#45;&gt;2 -->
<g id="edge7" class="edge">
<title>5&#45;&gt;2</title>
<path fill="none" stroke="black" d="M390.3,-731.54C400.86,-735.5 413.78,-740.34 425.36,-744.7 429.62,-746.3 434.11,-747.99 438.53,-749.66"/>
<polygon fill="black" stroke="black" points="436.99,-753.2 447.58,-753.46 439.46,-746.65 436.99,-753.2"/>
<text text-anchor="middle" x="419.33" y="-749.7" font-family="Times,serif" font-size="14.00">&#39;]&#39;</text>
</g>
<!-- 6&#45;&gt;24 -->
<g id="edge8" class="edge">
<title>6&#45;&gt;24</title>
<path fill="none" stroke="black" d="M176.95,-63.68C182.76,-64.39 188.99,-65.06 194.79,-65.5 251.32,-69.8 265.71,-71.67 322.31,-68.5 324.71,-68.37 327.17,-68.19 329.66,-67.99"/>
<polygon fill="black" stroke="black" points="329.88,-71.39 339.5,-66.95 329.21,-64.42 329.88,-71.39"/>
<text text-anchor="middle" x="252.33" y="-74.7" font-family="Times,serif" font-size="14.00">&#39;$&#39;</text>
</g>
<!-- 6&#45;&gt;6 -->
<g id="edge10" class="edge">
<title>6&#45;&gt;6</title>
<path fill="none" stroke="black" d="M144.55,-82.7C143.6,-93 146.51,-102 153.29,-102 157.52,-102 160.25,-98.48 161.46,-93.33"/>
<polygon fill="black" stroke="black" points="164.99,-93.87 162.02,-83.7 158,-93.5 164.99,-93.87"/>
<text text-anchor="middle" x="153.29" y="-106.2" font-family="Times,serif" font-size="14.00">&#39;s&#39;</text>
</g>
<!-- 7 -->
<g id="node21" class="node">
<title>7</title>
<ellipse fill="none" stroke="black" cx="252.33" cy="-23.5" rx="23.5" ry="23.5"/>
<text text-anchor="middle" x="252.33" y="-19.3" font-family="Times,serif" font-size="14.00">7</text>
</g>
<!-- 6&#45;&gt;7 -->
<g id="edge9" class="edge">
<title>6&#45;&gt;7</title>
<path fill="none" stroke="black" d="M175.82,-52.29C188.76,-47.35 205.46,-40.99 219.86,-35.5"/>
<polygon fill="black" stroke="black" points="220.76,-38.52 228.85,-31.69 218.26,-31.98 220.76,-38.52"/>
<text text-anchor="middle" x="200.81" y="-48.7" font-family="Times,serif" font-size="14.00">&#39;r&#39;</text>
</g>
<!-- 7&#45;&gt;24 -->
<g id="edge11" class="edge">
<title>7&#45;&gt;24</title>
<path fill="none" stroke="black" d="M274.94,-31.12C290.75,-36.69 312.55,-44.37 330.94,-50.86"/>
<polygon fill="black" stroke="black" points="329.72,-54.49 340.31,-54.51 332.04,-47.89 329.72,-54.49"/>
<text text-anchor="middle" x="310.07" y="-51.7" font-family="Times,serif" font-size="14.00">&#39;$&#39;</text>
</g>
<!-- 8&#45;&gt;25 -->
<g id="edge12" class="edge">
<title>8&#45;&gt;25</title>
<path fill="none" stroke="black" d="M176.01,-280.97C182.05,-282.91 188.64,-284.91 194.79,-286.5 207.97,-289.92 211.32,-290.81 224.83,-292.5 300.06,-301.92 320.66,-311.74 395.31,-298.5 409.54,-295.98 424.33,-290.34 436.95,-284.49"/>
<polygon fill="black" stroke="black" points="438.1,-287.33 445.56,-279.8 435.04,-281.04 438.1,-287.33"/>
<text text-anchor="middle" x="310.07" y="-309.7" font-family="Times,serif" font-size="14.00">&#39;$&#39;</text>
</g>
<!-- 9 -->
<g id="node23" class="node">
<title>9</title>
<ellipse fill="none" stroke="black" cx="367.81" cy="-266.5" rx="23.5" ry="23.5"/>
<text text-anchor="middle" x="367.81" y="-262.3" font-family="Times,serif" font-size="14.00">9</text>
</g>
<!-- 8&#45;&gt;9 -->
<g id="edge13" class="edge">
<title>8&#45;&gt;9</title>
<path fill="none" stroke="black" d="M177.03,-272.75C214.48,-271.52 289.32,-269.05 333,-267.61"/>
<polygon fill="black" stroke="black" points="333.03,-271.08 342.91,-267.25 332.8,-264.09 333.03,-271.08"/>
<text text-anchor="middle" x="252.33" y="-275.7" font-family="Times,serif" font-size="14.00">&#39;;&#39;</text>
</g>
<!-- 10 -->
<g id="node24" class="node">
<title>10</title>
<ellipse fill="none" stroke="black" cx="252.33" cy="-208.5" rx="23.5" ry="23.5"/>
<text text-anchor="middle" x="252.33" y="-204.3" font-family="Times,serif" font-size="14.00">10</text>
</g>
<!-- 8&#45;&gt;10 -->
<g id="edge14" class="edge">
<title>8&#45;&gt;10</title>
<path fill="none" stroke="black" d="M172.13,-259.28C179.08,-253.92 187.19,-247.87 194.79,-242.7 203.5,-236.78 213.23,-230.71 222.13,-225.35"/>
<polygon fill="black" stroke="black" points="223.57,-227.98 230.38,-219.87 220,-221.96 223.57,-227.98"/>
<text text-anchor="middle" x="200.81" y="-247.7" font-family="Times,serif" font-size="14.00">&#39;e&#39;</text>
</g>
<!-- 9&#45;&gt;25 -->
<g id="edge15" class="edge">
<title>9&#45;&gt;25</title>
<path fill="none" stroke="black" d="M391.74,-266.5C403.66,-266.5 418.53,-266.5 432.09,-266.5"/>
<polygon fill="black" stroke="black" points="432.08,-270 442.08,-266.5 432.08,-263 432.08,-270"/>
<text text-anchor="middle" x="419.33" y="-270.7" font-family="Times,serif" font-size="14.00">&#39;$&#39;</text>
</g>
<!-- 10&#45;&gt;25 -->
<g id="edge16" class="edge">
<title>10&#45;&gt;25</title>
<path fill="none" stroke="black" d="M276.15,-206.21C304.79,-204.14 355.04,-203.21 395.31,-216.7 411.74,-222.2 427.97,-232.34 441.08,-242.03"/>
<polygon fill="black" stroke="black" points="438.56,-245.28 448.61,-248.61 442.83,-239.74 438.56,-245.28"/>
<text text-anchor="middle" x="367.81" y="-221.7" font-family="Times,serif" font-size="14.00">&#39;$&#39;</text>
</g>
<!-- 10&#45;&gt;9 -->
<g id="edge18" class="edge">
<title>10&#45;&gt;9</title>
<path fill="none" stroke="black" d="M273.94,-218.51C287.69,-225.24 306.15,-234.37 322.31,-242.7 327.03,-245.13 332,-247.74 336.85,-250.31"/>
<polygon fill="black" stroke="black" points="335.03,-253.84 345.5,-255.47 338.33,-247.67 335.03,-253.84"/>
<text text-anchor="middle" x="310.07" y="-247.7" font-family="Times,serif" font-size="14.00">&#39;;&#39;</text>
</g>
<!-- 11 -->
<g id="node25" class="node">
<title>11</title>
<ellipse fill="none" stroke="black" cx="367.81" cy="-143.5" rx="23.5" ry="23.5"/>
<text text-anchor="middle" x="367.81" y="-139.3" font-family="Times,serif" font-size="14.00">11</text>
</g>
<!-- 10&#45;&gt;11 -->
<g id="edge17" class="edge">
<title>10&#45;&gt;11</title>
<path fill="none" stroke="black" d="M271.56,-195C279.46,-189.38 288.93,-182.95 297.83,-177.7 310.06,-170.49 324.03,-163.37 336.17,-157.51"/>
<polygon fill="black" stroke="black" points="337.34,-160.36 344.87,-152.91 334.34,-154.03 337.34,-160.36"/>
<text text-anchor="middle" x="310.07" y="-182.7" font-family="Times,serif" font-size="14.00">&#39;,&#39;</text>
</g>
<!-- 11&#45;&gt;10 -->
<g id="edge19" class="edge">
<title>11&#45;&gt;10</title>
<path fill="none" stroke="black" d="M344.4,-138.92C330.23,-137.18 312,-137.15 297.83,-144.7 284.44,-151.84 274.23,-165 266.99,-177.52"/>
<polygon fill="black" stroke="black" points="263.63,-175.39 262.03,-185.86 269.81,-178.67 263.63,-175.39"/>
<text text-anchor="middle" x="310.07" y="-149.7" font-family="Times,serif" font-size="14.00">&#39;e&#39;</text>
</g>
<!-- 13 -->
<g id="node27" class="node">
<title>13</title>
<ellipse fill="none" stroke="black" cx="252.33" cy="-381.5" rx="23.5" ry="23.5"/>
<text text-anchor="middle" x="252.33" y="-377.3" font-family="Times,serif" font-size="14.00">13</text>
</g>
<!-- 12&#45;&gt;13 -->
<g id="edge20" class="edge">
<title>12&#45;&gt;13</title>
<path fill="none" stroke="black" d="M176.79,-386.88C188.96,-386 204.21,-384.9 217.75,-383.92"/>
<polygon fill="black" stroke="black" points="217.89,-387.35 227.61,-383.14 217.38,-380.37 217.89,-387.35"/>
<text text-anchor="middle" x="200.81" y="-389.7" font-family="Times,serif" font-size="14.00">&#39;v&#39;</text>
</g>
<!-- 13&#45;&gt;12 -->
<g id="edge21" class="edge">
<title>13&#45;&gt;12</title>
<path fill="none" stroke="black" d="M231.51,-370.05C220.69,-365.2 207.04,-361.37 194.79,-364.7 190.57,-365.85 186.34,-367.56 182.3,-369.54"/>
<polygon fill="black" stroke="black" points="180.74,-366.96 173.71,-374.89 184.15,-373.08 180.74,-366.96"/>
<text text-anchor="middle" x="200.81" y="-369.7" font-family="Times,serif" font-size="14.00">&#39;,&#39;</text>
</g>
<!-- 13&#45;&gt;14 -->
<g id="edge22" class="edge">
<title>13&#45;&gt;14</title>
<path fill="none" stroke="black" d="M276.3,-381.5C292.6,-381.5 314.75,-381.5 333.06,-381.5"/>
<polygon fill="black" stroke="black" points="332.88,-385 342.88,-381.5 332.88,-378 332.88,-385"/>
<text text-anchor="middle" x="310.07" y="-385.7" font-family="Times,serif" font-size="14.00">&#39;=&#39;</text>
</g>
<!-- 14&#45;&gt;26 -->
<g id="edge23" class="edge">
<title>14&#45;&gt;26</title>
<path fill="none" stroke="black" d="M391.24,-377.28C403.44,-374.99 418.85,-372.09 432.79,-369.47"/>
<polygon fill="black" stroke="black" points="433.38,-372.73 442.56,-367.44 432.08,-365.85 433.38,-372.73"/>
<text text-anchor="middle" x="419.33" y="-377.7" font-family="Times,serif" font-size="14.00">&#39;e&#39;</text>
</g>
<!-- 15&#45;&gt;27 -->
<g id="edge24" class="edge">
<title>15&#45;&gt;27</title>
<path fill="none" stroke="black" d="M176.39,-466.98C182.31,-468.44 188.75,-469.77 194.79,-470.5 201.06,-471.26 207.74,-471.27 214.22,-470.85"/>
<polygon fill="black" stroke="black" points="214.24,-474.27 223.85,-469.8 213.55,-467.3 214.24,-474.27"/>
<text text-anchor="middle" x="200.81" y="-475.7" font-family="Times,serif" font-size="14.00">&#39;e&#39;</text>
</g>
<!-- 17 -->
<g id="node31" class="node">
<title>17</title>
<ellipse fill="none" stroke="black" cx="252.33" cy="-542.5" rx="23.5" ry="23.5"/>
<text text-anchor="middle" x="252.33" y="-538.3" font-family="Times,serif" font-size="14.00">17</text>
</g>
<!-- 16&#45;&gt;17 -->
<g id="edge25" class="edge">
<title>16&#45;&gt;17</title>
<path fill="none" stroke="black" d="M177.28,-542.5C189.37,-542.5 204.41,-542.5 217.77,-542.5"/>
<polygon fill="black" stroke="black" points="217.5,-546 227.5,-542.5 217.5,-539 217.5,-546"/>
<text text-anchor="middle" x="200.81" y="-546.7" font-family="Times,serif" font-size="14.00">&#39;(&#39;</text>
</g>
<!-- 17&#45;&gt;28 -->
<g id="edge26" class="edge">
<title>17&#45;&gt;28</title>
<path fill="none" stroke="black" d="M276.09,-541.34C313.23,-539.46 387.21,-535.7 432.24,-533.41"/>
<polygon fill="black" stroke="black" points="432.22,-536.87 442.03,-532.86 431.87,-529.87 432.22,-536.87"/>
<text text-anchor="middle" x="367.81" y="-542.7" font-family="Times,serif" font-size="14.00">&#39;)&#39;</text>
</g>
<!-- 18 -->
<g id="node32" class="node">
<title>18</title>
<ellipse fill="none" stroke="black" cx="367.81" cy="-481.5" rx="23.5" ry="23.5"/>
<text text-anchor="middle" x="367.81" y="-477.3" font-family="Times,serif" font-size="14.00">18</text>
</g>
<!-- 17&#45;&gt;18 -->
<g id="edge27" class="edge">
<title>17&#45;&gt;18</title>
<path fill="none" stroke="black" d="M273.14,-530.71C280.8,-526.23 289.67,-521.14 297.83,-516.7 310.38,-509.87 324.39,-502.64 336.49,-496.53"/>
<polygon fill="black" stroke="black" points="337.77,-499.3 345.14,-491.69 334.63,-493.05 337.77,-499.3"/>
<text text-anchor="middle" x="310.07" y="-521.7" font-family="Times,serif" font-size="14.00">&#39;e&#39;</text>
</g>
<!-- 18&#45;&gt;28 -->
<g id="edge28" class="edge">
<title>18&#45;&gt;28</title>
<path fill="none" stroke="black" d="M389.26,-491.62C402.69,-498.27 420.59,-507.12 436.1,-514.8"/>
<polygon fill="black" stroke="black" points="434.37,-518.34 444.89,-519.64 437.48,-512.07 434.37,-518.34"/>
<text text-anchor="middle" x="419.33" y="-512.7" font-family="Times,serif" font-size="14.00">&#39;)&#39;</text>
</g>
<!-- 19 -->
<g id="node33" class="node">
<title>19</title>
<ellipse fill="none" stroke="black" cx="470.86" cy="-457.5" rx="23.5" ry="23.5"/>
<text text-anchor="middle" x="470.86" y="-453.3" font-family="Times,serif" font-size="14.00">19</text>
</g>
<!-- 18&#45;&gt;19 -->
<g id="edge29" class="edge">
<title>18&#45;&gt;19</title>
<path fill="none" stroke="black" d="M390.74,-476.29C404.28,-473.08 421.91,-468.89 437.1,-465.28"/>
<polygon fill="black" stroke="black" points="437.7,-468.5 446.62,-462.78 436.09,-461.69 437.7,-468.5"/>
<text text-anchor="middle" x="419.33" y="-474.7" font-family="Times,serif" font-size="14.00">&#39;,&#39;</text>
</g>
<!-- 19&#45;&gt;18 -->
<g id="edge30" class="edge">
<title>19&#45;&gt;18</title>
<path fill="none" stroke="black" d="M448.26,-449.46C437.55,-446.65 424.54,-445.01 413.31,-448.7 406.33,-451 399.54,-454.85 393.45,-459.13"/>
<polygon fill="black" stroke="black" points="391.88,-456.7 386.1,-465.57 396.16,-462.24 391.88,-456.7"/>
<text text-anchor="middle" x="419.33" y="-453.7" font-family="Times,serif" font-size="14.00">&#39;e&#39;</text>
</g>
<!-- 21 -->
<g id="node35" class="node">
<title>21</title>
<ellipse fill="none" stroke="black" cx="252.33" cy="-633.5" rx="23.5" ry="23.5"/>
<text text-anchor="middle" x="252.33" y="-629.3" font-family="Times,serif" font-size="14.00">21</text>
</g>
<!-- 20&#45;&gt;21 -->
<g id="edge31" class="edge">
<title>20&#45;&gt;21</title>
<path fill="none" stroke="black" d="M177.28,-633.5C189.37,-633.5 204.41,-633.5 217.77,-633.5"/>
<polygon fill="black" stroke="black" points="217.5,-637 227.5,-633.5 217.5,-630 217.5,-637"/>
<text text-anchor="middle" x="200.81" y="-637.7" font-family="Times,serif" font-size="14.00">&#39;{&#39;</text>
</g>
<!-- 21&#45;&gt;29 -->
<g id="edge33" class="edge">
<title>21&#45;&gt;29</title>
<path fill="none" stroke="black" d="M275.36,-639.34C282.48,-640.99 290.44,-642.58 297.83,-643.5 354.09,-650.48 368.72,-649.04 425.36,-646.5 427.6,-646.4 429.9,-646.27 432.22,-646.12"/>
<polygon fill="black" stroke="black" points="432.35,-649.55 442.06,-645.3 431.82,-642.57 432.35,-649.55"/>
<text text-anchor="middle" x="367.81" y="-653.7" font-family="Times,serif" font-size="14.00">&#39;}&#39;</text>
</g>
<!-- 22 -->
<g id="node36" class="node">
<title>22</title>
<ellipse fill="none" stroke="black" cx="367.81" cy="-605.5" rx="23.5" ry="23.5"/>
<text text-anchor="middle" x="367.81" y="-601.3" font-family="Times,serif" font-size="14.00">22</text>
</g>
<!-- 21&#45;&gt;22 -->
<g id="edge32" class="edge">
<title>21&#45;&gt;22</title>
<path fill="none" stroke="black" d="M275.48,-628.03C292.2,-623.91 315.39,-618.19 334.22,-613.54"/>
<polygon fill="black" stroke="black" points="334.85,-616.75 343.72,-610.95 333.17,-609.95 334.85,-616.75"/>
<text text-anchor="middle" x="310.07" y="-626.7" font-family="Times,serif" font-size="14.00">&#39;f&#39;</text>
</g>
<!-- 22&#45;&gt;29 -->
<g id="edge35" class="edge">
<title>22&#45;&gt;29</title>
<path fill="none" stroke="black" d="M390.24,-613.35C403.01,-618.02 419.55,-624.08 434.24,-629.46"/>
<polygon fill="black" stroke="black" points="432.94,-633.07 443.53,-633.23 435.34,-626.5 432.94,-633.07"/>
<text text-anchor="middle" x="419.33" y="-629.7" font-family="Times,serif" font-size="14.00">&#39;}&#39;</text>
</g>
<!-- 22&#45;&gt;21 -->
<g id="edge34" class="edge">
<title>22&#45;&gt;21</title>
<path fill="none" stroke="black" d="M345.43,-597.76C331.51,-593.93 313.17,-591.18 297.83,-596.7 290.18,-599.45 282.91,-604.16 276.54,-609.3"/>
<polygon fill="black" stroke="black" points="274.65,-606.19 269.48,-615.44 279.29,-611.43 274.65,-606.19"/>
<text text-anchor="middle" x="310.07" y="-601.7" font-family="Times,serif" font-size="14.00">&#39;,&#39;, &#39;;&#39;</text>
</g>
</g>
</svg>
