<?xml version="1.0" encoding="UTF-8" standalone="no"?>
<!DOCTYPE svg PUBLIC "-//W3C//DTD SVG 1.1//EN"
 "http://www.w3.org/Graphics/SVG/1.1/DTD/svg11.dtd">
<!-- Generated by graphviz version 8.0.3 (20230416.2022)
 -->
<!-- Title: syntax Pages: 1 -->
<svg width="704pt" height="603pt"
 viewBox="0.00 0.00 704.27 603.30" xmlns="http://www.w3.org/2000/svg" xmlns:xlink="http://www.w3.org/1999/xlink">
<g id="graph0" class="graph" transform="scale(1 1) rotate(0) translate(4 599.3)">
<title>syntax</title>
<polygon fill="white" stroke="none" points="-4,4 -4,-599.3 700.27,-599.3 700.27,4 -4,4"/>
<!-- en_6 -->
<g id="node1" class="node">
<title>en_6</title>
<ellipse fill="black" stroke="black" cx="1.8" cy="-62.5" rx="1.8" ry="1.8"/>
</g>
<!-- 6 -->
<g id="node18" class="node">
<title>6</title>
<ellipse fill="none" stroke="black" cx="153.29" cy="-62.5" rx="23.5" ry="23.5"/>
<text text-anchor="middle" x="153.29" y="-58.3" font-family="Times,serif" font-size="14.00">6</text>
</g>
<!-- en_6&#45;&gt;6 -->
<g id="edge30" class="edge">
<title>en_6&#45;&gt;6</title>
<path fill="none" stroke="black" d="M4.09,-62.5C13.95,-62.5 77.99,-62.5 118.6,-62.5"/>
<polygon fill="black" stroke="black" points="118.36,-66 128.36,-62.5 118.36,-59 118.36,-66"/>
<text text-anchor="middle" x="66.69" y="-66.7" font-family="Times,serif" font-size="14.00">block</text>
</g>
<!-- en_8 -->
<g id="node2" class="node">
<title>en_8</title>
<ellipse fill="black" stroke="black" cx="1.8" cy="-169.5" rx="1.8" ry="1.8"/>
</g>
<!-- 8 -->
<g id="node20" class="node">
<title>8</title>
<ellipse fill="none" stroke="black" cx="153.29" cy="-169.5" rx="23.5" ry="23.5"/>
<text text-anchor="middle" x="153.29" y="-165.3" font-family="Times,serif" font-size="14.00">8</text>
</g>
<!-- en_8&#45;&gt;8 -->
<g id="edge31" class="edge">
<title>en_8&#45;&gt;8</title>
<path fill="none" stroke="black" d="M4.09,-169.5C13.95,-169.5 77.99,-169.5 118.6,-169.5"/>
<polygon fill="black" stroke="black" points="118.36,-173 128.36,-169.5 118.36,-166 118.36,-173"/>
<text text-anchor="middle" x="66.69" y="-173.7" font-family="Times,serif" font-size="14.00">assign</text>
</g>
<!-- en_11 -->
<g id="node3" class="node">
<title>en_11</title>
<ellipse fill="black" stroke="black" cx="1.8" cy="-238.5" rx="1.8" ry="1.8"/>
</g>
<!-- 11 -->
<g id="node23" class="node">
<title>11</title>
<ellipse fill="none" stroke="black" cx="153.29" cy="-238.5" rx="23.5" ry="23.5"/>
<text text-anchor="middle" x="153.29" y="-234.3" font-family="Times,serif" font-size="14.00">11</text>
</g>
<!-- en_11&#45;&gt;11 -->
<g id="edge32" class="edge">
<title>en_11&#45;&gt;11</title>
<path fill="none" stroke="black" d="M4.09,-238.5C13.95,-238.5 77.99,-238.5 118.6,-238.5"/>
<polygon fill="black" stroke="black" points="118.36,-242 128.36,-238.5 118.36,-235 118.36,-242"/>
<text text-anchor="middle" x="66.69" y="-242.7" font-family="Times,serif" font-size="14.00">explist</text>
</g>
<!-- en_12 -->
<g id="node4" class="node">
<title>en_12</title>
<ellipse fill="black" stroke="black" cx="1.8" cy="-305.5" rx="1.8" ry="1.8"/>
</g>
<!-- 12 -->
<g id="node24" class="node">
<title>12</title>
<ellipse fill="none" stroke="black" cx="153.29" cy="-305.5" rx="23.5" ry="23.5"/>
<text text-anchor="middle" x="153.29" y="-301.3" font-family="Times,serif" font-size="14.00">12</text>
</g>
<!-- en_12&#45;&gt;12 -->
<g id="edge33" class="edge">
<title>en_12&#45;&gt;12</title>
<path fill="none" stroke="black" d="M4.09,-305.5C13.95,-305.5 77.99,-305.5 118.6,-305.5"/>
<polygon fill="black" stroke="black" points="118.36,-309 128.36,-305.5 118.36,-302 118.36,-309"/>
<text text-anchor="middle" x="66.69" y="-309.7" font-family="Times,serif" font-size="14.00">args</text>
</g>
<!-- en_16 -->
<g id="node5" class="node">
<title>en_16</title>
<ellipse fill="black" stroke="black" cx="1.8" cy="-398.5" rx="1.8" ry="1.8"/>
</g>
<!-- 16 -->
<g id="node28" class="node">
<title>16</title>
<ellipse fill="none" stroke="black" cx="153.29" cy="-398.5" rx="23.5" ry="23.5"/>
<text text-anchor="middle" x="153.29" y="-394.3" font-family="Times,serif" font-size="14.00">16</text>
</g>
<!-- en_16&#45;&gt;16 -->
<g id="edge34" class="edge">
<title>en_16&#45;&gt;16</title>
<path fill="none" stroke="black" d="M4.09,-398.5C13.95,-398.5 77.99,-398.5 118.6,-398.5"/>
<polygon fill="black" stroke="black" points="118.36,-402 128.36,-398.5 118.36,-395 118.36,-402"/>
<text text-anchor="middle" x="66.69" y="-402.7" font-family="Times,serif" font-size="14.00">tableconstructor</text>
</g>
<!-- en_1 -->
<g id="node6" class="node">
<title>en_1</title>
<ellipse fill="black" stroke="black" cx="1.8" cy="-540.5" rx="1.8" ry="1.8"/>
</g>
<!-- 1 -->
<g id="node13" class="node">
<title>1</title>
<ellipse fill="none" stroke="black" cx="153.29" cy="-540.5" rx="23.5" ry="23.5"/>
<text text-anchor="middle" x="153.29" y="-536.3" font-family="Times,serif" font-size="14.00">1</text>
</g>
<!-- en_1&#45;&gt;1 -->
<g id="edge35" class="edge">
<title>en_1&#45;&gt;1</title>
<path fill="none" stroke="black" d="M4.09,-540.5C13.95,-540.5 77.99,-540.5 118.6,-540.5"/>
<polygon fill="black" stroke="black" points="118.36,-544 128.36,-540.5 118.36,-537 118.36,-544"/>
<text text-anchor="middle" x="66.69" y="-544.7" font-family="Times,serif" font-size="14.00">field</text>
</g>
<!-- 19 -->
<g id="node7" class="node">
<title>19</title>
<ellipse fill="none" stroke="black" cx="668.77" cy="-552.5" rx="23.5" ry="23.5"/>
<ellipse fill="none" stroke="black" cx="668.77" cy="-552.5" rx="27.5" ry="27.5"/>
<text text-anchor="middle" x="668.77" y="-548.3" font-family="Times,serif" font-size="14.00">19</text>
</g>
<!-- 20 -->
<g id="node8" class="node">
<title>20</title>
<ellipse fill="none" stroke="black" cx="367.81" cy="-72.5" rx="23.5" ry="23.5"/>
<ellipse fill="none" stroke="black" cx="367.81" cy="-72.5" rx="27.5" ry="27.5"/>
<text text-anchor="middle" x="367.81" y="-68.3" font-family="Times,serif" font-size="14.00">20</text>
</g>
<!-- 21 -->
<g id="node9" class="node">
<title>21</title>
<ellipse fill="none" stroke="black" cx="470.58" cy="-141.5" rx="23.5" ry="23.5"/>
<ellipse fill="none" stroke="black" cx="470.58" cy="-141.5" rx="27.5" ry="27.5"/>
<text text-anchor="middle" x="470.58" y="-137.3" font-family="Times,serif" font-size="14.00">21</text>
</g>
<!-- 10 -->
<g id="node22" class="node">
<title>10</title>
<ellipse fill="none" stroke="black" cx="367.81" cy="-151.5" rx="23.5" ry="23.5"/>
<text text-anchor="middle" x="367.81" y="-147.3" font-family="Times,serif" font-size="14.00">10</text>
</g>
<!-- 21&#45;&gt;10 -->
<g id="edge28" class="edge">
<title>21&#45;&gt;10</title>
<path fill="none" stroke="black" d="M445.79,-129.01C435.78,-125.27 423.99,-122.83 413.31,-125.7 407.6,-127.24 401.86,-129.71 396.5,-132.52"/>
<polygon fill="black" stroke="black" points="395.22,-129.8 388.33,-137.84 398.73,-135.85 395.22,-129.8"/>
<text text-anchor="middle" x="419.19" y="-130.7" font-family="Times,serif" font-size="14.00">&#39;,&#39;</text>
</g>
<!-- 22 -->
<g id="node10" class="node">
<title>22</title>
<ellipse fill="none" stroke="black" cx="252.33" cy="-228.5" rx="23.5" ry="23.5"/>
<ellipse fill="none" stroke="black" cx="252.33" cy="-228.5" rx="27.5" ry="27.5"/>
<text text-anchor="middle" x="252.33" y="-224.3" font-family="Times,serif" font-size="14.00">22</text>
</g>
<!-- 22&#45;&gt;11 -->
<g id="edge29" class="edge">
<title>22&#45;&gt;11</title>
<path fill="none" stroke="black" d="M227.64,-215.88C217.5,-212.04 205.55,-209.56 194.79,-212.7 190.16,-214.05 185.56,-216.1 181.2,-218.48"/>
<polygon fill="black" stroke="black" points="179.85,-215.82 173.16,-224.03 183.51,-221.78 179.85,-215.82"/>
<text text-anchor="middle" x="200.81" y="-217.7" font-family="Times,serif" font-size="14.00">&#39;,&#39;</text>
</g>
<!-- 23 -->
<g id="node11" class="node">
<title>23</title>
<ellipse fill="none" stroke="black" cx="470.58" cy="-296.5" rx="23.5" ry="23.5"/>
<ellipse fill="none" stroke="black" cx="470.58" cy="-296.5" rx="27.5" ry="27.5"/>
<text text-anchor="middle" x="470.58" y="-292.3" font-family="Times,serif" font-size="14.00">23</text>
</g>
<!-- 24 -->
<g id="node12" class="node">
<title>24</title>
<ellipse fill="none" stroke="black" cx="470.58" cy="-407.5" rx="23.5" ry="23.5"/>
<ellipse fill="none" stroke="black" cx="470.58" cy="-407.5" rx="27.5" ry="27.5"/>
<text text-anchor="middle" x="470.58" y="-403.3" font-family="Times,serif" font-size="14.00">24</text>
</g>
<!-- 1&#45;&gt;19 -->
<g id="edge3" class="edge">
<title>1&#45;&gt;19</title>
<path fill="none" stroke="black" d="M173.49,-552.94C192.48,-564.03 222.74,-578.5 251.33,-578.5 251.33,-578.5 251.33,-578.5 571.52,-578.5 592.26,-578.5 614.67,-572.8 632.64,-566.75"/>
<polygon fill="black" stroke="black" points="633.69,-569.73 641.94,-563.08 631.34,-563.14 633.69,-569.73"/>
<text text-anchor="middle" x="419.19" y="-582.7" font-family="Times,serif" font-size="14.00">&#39;e&#39;</text>
</g>
<!-- 2 -->
<g id="node14" class="node">
<title>2</title>
<ellipse fill="none" stroke="black" cx="470.58" cy="-526.5" rx="23.5" ry="23.5"/>
<text text-anchor="middle" x="470.58" y="-522.3" font-family="Times,serif" font-size="14.00">2</text>
</g>
<!-- 1&#45;&gt;2 -->
<g id="edge1" class="edge">
<title>1&#45;&gt;2</title>
<path fill="none" stroke="black" d="M177.22,-539.48C232.16,-537.04 371.54,-530.85 435.97,-527.99"/>
<polygon fill="black" stroke="black" points="435.9,-531.45 445.73,-527.51 435.59,-524.46 435.9,-531.45"/>
<text text-anchor="middle" x="310.07" y="-537.7" font-family="Times,serif" font-size="14.00">&#39;N&#39;</text>
</g>
<!-- 4 -->
<g id="node15" class="node">
<title>4</title>
<ellipse fill="none" stroke="black" cx="252.33" cy="-488.5" rx="23.5" ry="23.5"/>
<text text-anchor="middle" x="252.33" y="-484.3" font-family="Times,serif" font-size="14.00">4</text>
</g>
<!-- 1&#45;&gt;4 -->
<g id="edge2" class="edge">
<title>1&#45;&gt;4</title>
<path fill="none" stroke="black" d="M171.66,-525.52C178.55,-520.06 186.74,-514.14 194.79,-509.7 202.38,-505.51 210.97,-501.81 219.12,-498.73"/>
<polygon fill="black" stroke="black" points="220.22,-501.69 228.47,-495.04 217.87,-495.1 220.22,-501.69"/>
<text text-anchor="middle" x="200.81" y="-513.7" font-family="Times,serif" font-size="14.00">&#39;[&#39;</text>
</g>
<!-- 3 -->
<g id="node16" class="node">
<title>3</title>
<ellipse fill="none" stroke="black" cx="570.52" cy="-526.5" rx="23.5" ry="23.5"/>
<text text-anchor="middle" x="570.52" y="-522.3" font-family="Times,serif" font-size="14.00">3</text>
</g>
<!-- 2&#45;&gt;3 -->
<g id="edge4" class="edge">
<title>2&#45;&gt;3</title>
<path fill="none" stroke="black" d="M494.29,-526.5C506.56,-526.5 521.96,-526.5 535.62,-526.5"/>
<polygon fill="black" stroke="black" points="535.58,-530 545.58,-526.5 535.58,-523 535.58,-530"/>
<text text-anchor="middle" x="522.55" y="-530.7" font-family="Times,serif" font-size="14.00">&#39;=&#39;</text>
</g>
<!-- 5 -->
<g id="node17" class="node">
<title>5</title>
<ellipse fill="none" stroke="black" cx="367.81" cy="-488.5" rx="23.5" ry="23.5"/>
<text text-anchor="middle" x="367.81" y="-484.3" font-family="Times,serif" font-size="14.00">5</text>
</g>
<!-- 4&#45;&gt;5 -->
<g id="edge6" class="edge">
<title>4&#45;&gt;5</title>
<path fill="none" stroke="black" d="M276.3,-488.5C292.6,-488.5 314.75,-488.5 333.06,-488.5"/>
<polygon fill="black" stroke="black" points="332.88,-492 342.88,-488.5 332.88,-485 332.88,-492"/>
<text text-anchor="middle" x="310.07" y="-492.7" font-family="Times,serif" font-size="14.00">&#39;e&#39;</text>
</g>
<!-- 3&#45;&gt;19 -->
<g id="edge5" class="edge">
<title>3&#45;&gt;19</title>
<path fill="none" stroke="black" d="M593.36,-532.4C604.63,-535.44 618.67,-539.24 631.5,-542.7"/>
<polygon fill="black" stroke="black" points="630.35,-546.29 640.92,-545.52 632.18,-539.53 630.35,-546.29"/>
<text text-anchor="middle" x="617.65" y="-543.7" font-family="Times,serif" font-size="14.00">&#39;e&#39;</text>
</g>
<!-- 5&#45;&gt;2 -->
<g id="edge7" class="edge">
<title>5&#45;&gt;2</title>
<path fill="none" stroke="black" d="M390.19,-496.55C400.7,-500.51 413.55,-505.35 425.08,-509.7 429.33,-511.31 433.82,-513 438.24,-514.67"/>
<polygon fill="black" stroke="black" points="436.71,-518.21 447.3,-518.46 439.18,-511.66 436.71,-518.21"/>
<text text-anchor="middle" x="419.19" y="-513.7" font-family="Times,serif" font-size="14.00">&#39;]&#39;</text>
</g>
<!-- 6&#45;&gt;20 -->
<g id="edge8" class="edge">
<title>6&#45;&gt;20</title>
<path fill="none" stroke="black" d="M176.97,-65C182.77,-65.57 189.01,-66.11 194.79,-66.5 241.06,-69.59 294.46,-71.14 329.33,-71.88"/>
<polygon fill="black" stroke="black" points="328.9,-75.39 338.97,-72.09 329.04,-68.39 328.9,-75.39"/>
<text text-anchor="middle" x="252.33" y="-74.7" font-family="Times,serif" font-size="14.00">&#39;$&#39;</text>
</g>
<!-- 6&#45;&gt;6 -->
<g id="edge10" class="edge">
<title>6&#45;&gt;6</title>
<path fill="none" stroke="black" d="M144.55,-84.7C143.6,-95 146.51,-104 153.29,-104 157.52,-104 160.25,-100.48 161.46,-95.33"/>
<polygon fill="black" stroke="black" points="164.99,-95.87 162.02,-85.7 158,-95.5 164.99,-95.87"/>
<text text-anchor="middle" x="153.29" y="-108.2" font-family="Times,serif" font-size="14.00">&#39;s&#39;</text>
</g>
<!-- 7 -->
<g id="node19" class="node">
<title>7</title>
<ellipse fill="none" stroke="black" cx="252.33" cy="-23.5" rx="23.5" ry="23.5"/>
<text text-anchor="middle" x="252.33" y="-19.3" font-family="Times,serif" font-size="14.00">7</text>
</g>
<!-- 6&#45;&gt;7 -->
<g id="edge9" class="edge">
<title>6&#45;&gt;7</title>
<path fill="none" stroke="black" d="M175.34,-54.04C188.35,-48.81 205.29,-42 219.87,-36.14"/>
<polygon fill="black" stroke="black" points="221.01,-39.06 228.98,-32.08 218.4,-32.56 221.01,-39.06"/>
<text text-anchor="middle" x="200.81" y="-49.7" font-family="Times,serif" font-size="14.00">&#39;r&#39;</text>
</g>
<!-- 7&#45;&gt;20 -->
<g id="edge11" class="edge">
<title>7&#45;&gt;20</title>
<path fill="none" stroke="black" d="M274.51,-32.35C288.18,-38.09 306.33,-45.76 322.31,-52.7 325.57,-54.11 328.96,-55.6 332.34,-57.09"/>
<polygon fill="black" stroke="black" points="330.8,-60.68 341.36,-61.53 333.64,-54.28 330.8,-60.68"/>
<text text-anchor="middle" x="310.07" y="-57.7" font-family="Times,serif" font-size="14.00">&#39;$&#39;</text>
</g>
<!-- 9 -->
<g id="node21" class="node">
<title>9</title>
<ellipse fill="none" stroke="black" cx="252.33" cy="-151.5" rx="23.5" ry="23.5"/>
<text text-anchor="middle" x="252.33" y="-147.3" font-family="Times,serif" font-size="14.00">9</text>
</g>
<!-- 8&#45;&gt;9 -->
<g id="edge12" class="edge">
<title>8&#45;&gt;9</title>
<path fill="none" stroke="black" d="M176.79,-165.33C189.17,-163.03 204.74,-160.14 218.45,-157.6"/>
<polygon fill="black" stroke="black" points="218.75,-160.92 227.95,-155.65 217.47,-154.03 218.75,-160.92"/>
<text text-anchor="middle" x="200.81" y="-166.7" font-family="Times,serif" font-size="14.00">&#39;v&#39;</text>
</g>
<!-- 9&#45;&gt;8 -->
<g id="edge13" class="edge">
<title>9&#45;&gt;8</title>
<path fill="none" stroke="black" d="M230.36,-141.96C219.58,-138.34 206.32,-135.92 194.79,-139.7 189.53,-141.43 184.39,-144.12 179.64,-147.21"/>
<polygon fill="black" stroke="black" points="178.08,-144.74 172.04,-153.45 182.19,-150.41 178.08,-144.74"/>
<text text-anchor="middle" x="200.81" y="-144.7" font-family="Times,serif" font-size="14.00">&#39;,&#39;</text>
</g>
<!-- 9&#45;&gt;10 -->
<g id="edge14" class="edge">
<title>9&#45;&gt;10</title>
<path fill="none" stroke="black" d="M276.3,-151.5C292.6,-151.5 314.75,-151.5 333.06,-151.5"/>
<polygon fill="black" stroke="black" points="332.88,-155 342.88,-151.5 332.88,-148 332.88,-155"/>
<text text-anchor="middle" x="310.07" y="-155.7" font-family="Times,serif" font-size="14.00">&#39;=&#39;</text>
</g>
<!-- 10&#45;&gt;21 -->
<g id="edge15" class="edge">
<title>10&#45;&gt;21</title>
<path fill="none" stroke="black" d="M391.68,-149.23C403.68,-148.04 418.69,-146.55 432.32,-145.2"/>
<polygon fill="black" stroke="black" points="432.27,-148.62 441.88,-144.15 431.58,-141.65 432.27,-148.62"/>
<text text-anchor="middle" x="419.19" y="-151.7" font-family="Times,serif" font-size="14.00">&#39;e&#39;</text>
</g>
<!-- 11&#45;&gt;22 -->
<g id="edge16" class="edge">
<title>11&#45;&gt;22</title>
<path fill="none" stroke="black" d="M177.05,-236.42C186.3,-235.55 197.08,-234.51 206.83,-233.5 209.07,-233.27 211.36,-233.02 213.68,-232.78"/>
<polygon fill="black" stroke="black" points="213.95,-236.16 223.51,-231.59 213.19,-229.2 213.95,-236.16"/>
<text text-anchor="middle" x="200.81" y="-239.7" font-family="Times,serif" font-size="14.00">&#39;e&#39;</text>
</g>
<!-- 13 -->
<g id="node25" class="node">
<title>13</title>
<ellipse fill="none" stroke="black" cx="252.33" cy="-305.5" rx="23.5" ry="23.5"/>
<text text-anchor="middle" x="252.33" y="-301.3" font-family="Times,serif" font-size="14.00">13</text>
</g>
<!-- 12&#45;&gt;13 -->
<g id="edge17" class="edge">
<title>12&#45;&gt;13</title>
<path fill="none" stroke="black" d="M177.28,-305.5C189.37,-305.5 204.41,-305.5 217.77,-305.5"/>
<polygon fill="black" stroke="black" points="217.5,-309 227.5,-305.5 217.5,-302 217.5,-309"/>
<text text-anchor="middle" x="200.81" y="-309.7" font-family="Times,serif" font-size="14.00">&#39;(&#39;</text>
</g>
<!-- 13&#45;&gt;23 -->
<g id="edge18" class="edge">
<title>13&#45;&gt;23</title>
<path fill="none" stroke="black" d="M276.06,-304.55C313.15,-303.01 387.04,-299.94 432.01,-298.06"/>
<polygon fill="black" stroke="black" points="431.94,-301.53 441.78,-297.62 431.65,-294.53 431.94,-301.53"/>
<text text-anchor="middle" x="367.81" y="-306.7" font-family="Times,serif" font-size="14.00">&#39;)&#39;</text>
</g>
<!-- 14 -->
<g id="node26" class="node">
<title>14</title>
<ellipse fill="none" stroke="black" cx="367.81" cy="-246.5" rx="23.5" ry="23.5"/>
<text text-anchor="middle" x="367.81" y="-242.3" font-family="Times,serif" font-size="14.00">14</text>
</g>
<!-- 13&#45;&gt;14 -->
<g id="edge19" class="edge">
<title>13&#45;&gt;14</title>
<path fill="none" stroke="black" d="M273.67,-294.52C281.24,-290.46 289.91,-285.84 297.83,-281.7 310.49,-275.08 324.53,-267.9 336.61,-261.75"/>
<polygon fill="black" stroke="black" points="337.9,-264.52 345.23,-256.87 334.73,-258.27 337.9,-264.52"/>
<text text-anchor="middle" x="310.07" y="-286.7" font-family="Times,serif" font-size="14.00">&#39;e&#39;</text>
</g>
<!-- 14&#45;&gt;23 -->
<g id="edge20" class="edge">
<title>14&#45;&gt;23</title>
<path fill="none" stroke="black" d="M389.2,-256.62C402.51,-263.22 420.19,-272 435.59,-279.64"/>
<polygon fill="black" stroke="black" points="433.79,-283.15 444.31,-284.46 436.91,-276.88 433.79,-283.15"/>
<text text-anchor="middle" x="419.19" y="-277.7" font-family="Times,serif" font-size="14.00">&#39;)&#39;</text>
</g>
<!-- 15 -->
<g id="node27" class="node">
<title>15</title>
<ellipse fill="none" stroke="black" cx="470.58" cy="-222.5" rx="23.5" ry="23.5"/>
<text text-anchor="middle" x="470.58" y="-218.3" font-family="Times,serif" font-size="14.00">15</text>
</g>
<!-- 14&#45;&gt;15 -->
<g id="edge21" class="edge">
<title>14&#45;&gt;15</title>
<path fill="none" stroke="black" d="M391.17,-241.17C404.61,-237.97 421.95,-233.84 436.9,-230.28"/>
<polygon fill="black" stroke="black" points="437.36,-233.53 446.28,-227.81 435.74,-226.72 437.36,-233.53"/>
<text text-anchor="middle" x="419.19" y="-239.7" font-family="Times,serif" font-size="14.00">&#39;,&#39;</text>
</g>
<!-- 15&#45;&gt;14 -->
<g id="edge22" class="edge">
<title>15&#45;&gt;14</title>
<path fill="none" stroke="black" d="M448.08,-214.48C437.43,-211.67 424.49,-210.03 413.31,-213.7 406.33,-216 399.54,-219.85 393.45,-224.13"/>
<polygon fill="black" stroke="black" points="391.88,-221.7 386.1,-230.57 396.16,-227.24 391.88,-221.7"/>
<text text-anchor="middle" x="419.19" y="-218.7" font-family="Times,serif" font-size="14.00">&#39;e&#39;</text>
</g>
<!-- 17 -->
<g id="node29" class="node">
<title>17</title>
<ellipse fill="none" stroke="black" cx="252.33" cy="-398.5" rx="23.5" ry="23.5"/>
<text text-anchor="middle" x="252.33" y="-394.3" font-family="Times,serif" font-size="14.00">17</text>
</g>
<!-- 16&#45;&gt;17 -->
<g id="edge23" class="edge">
<title>16&#45;&gt;17</title>
<path fill="none" stroke="black" d="M177.28,-398.5C189.37,-398.5 204.41,-398.5 217.77,-398.5"/>
<polygon fill="black" stroke="black" points="217.5,-402 227.5,-398.5 217.5,-395 217.5,-402"/>
<text text-anchor="middle" x="200.81" y="-402.7" font-family="Times,serif" font-size="14.00">&#39;{&#39;</text>
</g>
<!-- 17&#45;&gt;24 -->
<g id="edge25" class="edge">
<title>17&#45;&gt;24</title>
<path fill="none" stroke="black" d="M275.36,-404.34C282.48,-405.99 290.44,-407.58 297.83,-408.5 353.97,-415.47 368.56,-414.03 425.08,-411.5 427.32,-411.4 429.62,-411.27 431.94,-411.12"/>
<polygon fill="black" stroke="black" points="432.07,-414.55 441.78,-410.3 431.54,-407.57 432.07,-414.55"/>
<text text-anchor="middle" x="367.81" y="-418.7" font-family="Times,serif" font-size="14.00">&#39;}&#39;</text>
</g>
<!-- 18 -->
<g id="node30" class="node">
<title>18</title>
<ellipse fill="none" stroke="black" cx="367.81" cy="-370.5" rx="23.5" ry="23.5"/>
<text text-anchor="middle" x="367.81" y="-366.3" font-family="Times,serif" font-size="14.00">18</text>
</g>
<!-- 17&#45;&gt;18 -->
<g id="edge24" class="edge">
<title>17&#45;&gt;18</title>
<path fill="none" stroke="black" d="M275.48,-393.03C292.2,-388.91 315.39,-383.19 334.22,-378.54"/>
<polygon fill="black" stroke="black" points="334.85,-381.75 343.72,-375.95 333.17,-374.95 334.85,-381.75"/>
<text text-anchor="middle" x="310.07" y="-391.7" font-family="Times,serif" font-size="14.00">&#39;f&#39;</text>
</g>
<!-- 18&#45;&gt;24 -->
<g id="edge27" class="edge">
<title>18&#45;&gt;24</title>
<path fill="none" stroke="black" d="M390.18,-378.35C402.92,-383.02 419.41,-389.08 434.06,-394.46"/>
<polygon fill="black" stroke="black" points="432.73,-398.06 443.32,-398.23 435.14,-391.49 432.73,-398.06"/>
<text text-anchor="middle" x="419.19" y="-394.7" font-family="Times,serif" font-size="14.00">&#39;}&#39;</text>
</g>
<!-- 18&#45;&gt;17 -->
<g id="edge26" class="edge">
<title>18&#45;&gt;17</title>
<path fill="none" stroke="black" d="M345.43,-362.76C331.51,-358.93 313.17,-356.18 297.83,-361.7 290.18,-364.45 282.91,-369.16 276.54,-374.3"/>
<polygon fill="black" stroke="black" points="274.65,-371.19 269.48,-380.44 279.29,-376.43 274.65,-371.19"/>
<text text-anchor="middle" x="310.07" y="-366.7" font-family="Times,serif" font-size="14.00">&#39;,&#39;, &#39;;&#39;</text>
</g>
</g>
</svg>
