<?xml version="1.0" encoding="UTF-8" standalone="no"?>
<!DOCTYPE svg PUBLIC "-//W3C//DTD SVG 1.1//EN"
 "http://www.w3.org/Graphics/SVG/1.1/DTD/svg11.dtd">
<!-- Generated by graphviz version 8.0.3 (20230416.2022)
 -->
<!-- Title: syntax Pages: 1 -->
<svg width="812pt" height="1031pt"
 viewBox="0.00 0.00 812.27 1031.30" xmlns="http://www.w3.org/2000/svg" xmlns:xlink="http://www.w3.org/1999/xlink">
<g id="graph0" class="graph" transform="scale(1 1) rotate(0) translate(4 1027.3)">
<title>syntax</title>
<polygon fill="white" stroke="none" points="-4,4 -4,-1027.3 808.27,-1027.3 808.27,4 -4,4"/>
<!-- en_6 -->
<g id="node1" class="node">
<title>en_6</title>
<ellipse fill="black" stroke="black" cx="1.8" cy="-60.5" rx="1.8" ry="1.8"/>
</g>
<!-- 6 -->
<g id="node22" class="node">
<title>6</title>
<ellipse fill="none" stroke="black" cx="153.29" cy="-60.5" rx="23.5" ry="23.5"/>
<text text-anchor="middle" x="153.29" y="-56.3" font-family="Times,serif" font-size="14.00">6</text>
</g>
<!-- en_6&#45;&gt;6 -->
<g id="edge49" class="edge">
<title>en_6&#45;&gt;6</title>
<path fill="none" stroke="black" d="M4.09,-60.5C13.95,-60.5 77.99,-60.5 118.6,-60.5"/>
<polygon fill="black" stroke="black" points="118.36,-64 128.36,-60.5 118.36,-57 118.36,-64"/>
<text text-anchor="middle" x="66.69" y="-64.7" font-family="Times,serif" font-size="14.00">block</text>
</g>
<!-- en_8 -->
<g id="node2" class="node">
<title>en_8</title>
<ellipse fill="black" stroke="black" cx="1.8" cy="-268.5" rx="1.8" ry="1.8"/>
</g>
<!-- 8 -->
<g id="node24" class="node">
<title>8</title>
<ellipse fill="none" stroke="black" cx="153.29" cy="-268.5" rx="23.5" ry="23.5"/>
<text text-anchor="middle" x="153.29" y="-264.3" font-family="Times,serif" font-size="14.00">8</text>
</g>
<!-- en_8&#45;&gt;8 -->
<g id="edge50" class="edge">
<title>en_8&#45;&gt;8</title>
<path fill="none" stroke="black" d="M4.09,-268.5C13.95,-268.5 77.99,-268.5 118.6,-268.5"/>
<polygon fill="black" stroke="black" points="118.36,-272 128.36,-268.5 118.36,-265 118.36,-272"/>
<text text-anchor="middle" x="66.69" y="-272.7" font-family="Times,serif" font-size="14.00">retstat</text>
</g>
<!-- en_12 -->
<g id="node3" class="node">
<title>en_12</title>
<ellipse fill="black" stroke="black" cx="1.8" cy="-363.5" rx="1.8" ry="1.8"/>
</g>
<!-- 12 -->
<g id="node28" class="node">
<title>12</title>
<ellipse fill="none" stroke="black" cx="153.29" cy="-363.5" rx="23.5" ry="23.5"/>
<text text-anchor="middle" x="153.29" y="-359.3" font-family="Times,serif" font-size="14.00">12</text>
</g>
<!-- en_12&#45;&gt;12 -->
<g id="edge51" class="edge">
<title>en_12&#45;&gt;12</title>
<path fill="none" stroke="black" d="M4.09,-363.5C13.95,-363.5 77.99,-363.5 118.6,-363.5"/>
<polygon fill="black" stroke="black" points="118.36,-367 128.36,-363.5 118.36,-360 118.36,-367"/>
<text text-anchor="middle" x="66.69" y="-367.7" font-family="Times,serif" font-size="14.00">assign</text>
</g>
<!-- en_15 -->
<g id="node4" class="node">
<title>en_15</title>
<ellipse fill="black" stroke="black" cx="1.8" cy="-445.5" rx="1.8" ry="1.8"/>
</g>
<!-- 15 -->
<g id="node31" class="node">
<title>15</title>
<ellipse fill="none" stroke="black" cx="153.29" cy="-445.5" rx="23.5" ry="23.5"/>
<text text-anchor="middle" x="153.29" y="-441.3" font-family="Times,serif" font-size="14.00">15</text>
</g>
<!-- en_15&#45;&gt;15 -->
<g id="edge52" class="edge">
<title>en_15&#45;&gt;15</title>
<path fill="none" stroke="black" d="M4.09,-445.5C13.95,-445.5 77.99,-445.5 118.6,-445.5"/>
<polygon fill="black" stroke="black" points="118.36,-449 128.36,-445.5 118.36,-442 118.36,-449"/>
<text text-anchor="middle" x="66.69" y="-449.7" font-family="Times,serif" font-size="14.00">explist</text>
</g>
<!-- en_16 -->
<g id="node5" class="node">
<title>en_16</title>
<ellipse fill="black" stroke="black" cx="1.8" cy="-547.5" rx="1.8" ry="1.8"/>
</g>
<!-- 16 -->
<g id="node32" class="node">
<title>16</title>
<ellipse fill="none" stroke="black" cx="153.29" cy="-547.5" rx="23.5" ry="23.5"/>
<text text-anchor="middle" x="153.29" y="-543.3" font-family="Times,serif" font-size="14.00">16</text>
</g>
<!-- en_16&#45;&gt;16 -->
<g id="edge53" class="edge">
<title>en_16&#45;&gt;16</title>
<path fill="none" stroke="black" d="M4.09,-547.5C13.95,-547.5 77.99,-547.5 118.6,-547.5"/>
<polygon fill="black" stroke="black" points="118.36,-551 128.36,-547.5 118.36,-544 118.36,-551"/>
<text text-anchor="middle" x="66.69" y="-551.7" font-family="Times,serif" font-size="14.00">args</text>
</g>
<!-- en_20 -->
<g id="node6" class="node">
<title>en_20</title>
<ellipse fill="black" stroke="black" cx="1.8" cy="-707.5" rx="1.8" ry="1.8"/>
</g>
<!-- 20 -->
<g id="node36" class="node">
<title>20</title>
<ellipse fill="none" stroke="black" cx="153.29" cy="-707.5" rx="23.5" ry="23.5"/>
<text text-anchor="middle" x="153.29" y="-703.3" font-family="Times,serif" font-size="14.00">20</text>
</g>
<!-- en_20&#45;&gt;20 -->
<g id="edge54" class="edge">
<title>en_20&#45;&gt;20</title>
<path fill="none" stroke="black" d="M4.09,-707.5C13.95,-707.5 77.99,-707.5 118.6,-707.5"/>
<polygon fill="black" stroke="black" points="118.36,-711 128.36,-707.5 118.36,-704 118.36,-711"/>
<text text-anchor="middle" x="66.69" y="-711.7" font-family="Times,serif" font-size="14.00">params</text>
</g>
<!-- en_26 -->
<g id="node7" class="node">
<title>en_26</title>
<ellipse fill="black" stroke="black" cx="1.8" cy="-826.5" rx="1.8" ry="1.8"/>
</g>
<!-- 26 -->
<g id="node42" class="node">
<title>26</title>
<ellipse fill="none" stroke="black" cx="153.29" cy="-826.5" rx="23.5" ry="23.5"/>
<text text-anchor="middle" x="153.29" y="-822.3" font-family="Times,serif" font-size="14.00">26</text>
</g>
<!-- en_26&#45;&gt;26 -->
<g id="edge55" class="edge">
<title>en_26&#45;&gt;26</title>
<path fill="none" stroke="black" d="M4.09,-826.5C13.95,-826.5 77.99,-826.5 118.6,-826.5"/>
<polygon fill="black" stroke="black" points="118.36,-830 128.36,-826.5 118.36,-823 118.36,-830"/>
<text text-anchor="middle" x="66.69" y="-830.7" font-family="Times,serif" font-size="14.00">tableconstructor</text>
</g>
<!-- en_1 -->
<g id="node8" class="node">
<title>en_1</title>
<ellipse fill="black" stroke="black" cx="1.8" cy="-968.5" rx="1.8" ry="1.8"/>
</g>
<!-- 1 -->
<g id="node17" class="node">
<title>1</title>
<ellipse fill="none" stroke="black" cx="153.29" cy="-968.5" rx="23.5" ry="23.5"/>
<text text-anchor="middle" x="153.29" y="-964.3" font-family="Times,serif" font-size="14.00">1</text>
</g>
<!-- en_1&#45;&gt;1 -->
<g id="edge56" class="edge">
<title>en_1&#45;&gt;1</title>
<path fill="none" stroke="black" d="M4.09,-968.5C13.95,-968.5 77.99,-968.5 118.6,-968.5"/>
<polygon fill="black" stroke="black" points="118.36,-972 128.36,-968.5 118.36,-965 118.36,-972"/>
<text text-anchor="middle" x="66.69" y="-972.7" font-family="Times,serif" font-size="14.00">field</text>
</g>
<!-- 29 -->
<g id="node9" class="node">
<title>29</title>
<ellipse fill="none" stroke="black" cx="676.06" cy="-980.5" rx="23.5" ry="23.5"/>
<ellipse fill="none" stroke="black" cx="676.06" cy="-980.5" rx="27.5" ry="27.5"/>
<text text-anchor="middle" x="676.06" y="-976.3" font-family="Times,serif" font-size="14.00">29</text>
</g>
<!-- 30 -->
<g id="node10" class="node">
<title>30</title>
<ellipse fill="none" stroke="black" cx="367.81" cy="-68.5" rx="23.5" ry="23.5"/>
<ellipse fill="none" stroke="black" cx="367.81" cy="-68.5" rx="27.5" ry="27.5"/>
<text text-anchor="middle" x="367.81" y="-64.3" font-family="Times,serif" font-size="14.00">30</text>
</g>
<!-- 31 -->
<g id="node11" class="node">
<title>31</title>
<ellipse fill="none" stroke="black" cx="473.97" cy="-261.5" rx="23.5" ry="23.5"/>
<ellipse fill="none" stroke="black" cx="473.97" cy="-261.5" rx="27.5" ry="27.5"/>
<text text-anchor="middle" x="473.97" y="-257.3" font-family="Times,serif" font-size="14.00">31</text>
</g>
<!-- 32 -->
<g id="node12" class="node">
<title>32</title>
<ellipse fill="none" stroke="black" cx="473.97" cy="-357.5" rx="23.5" ry="23.5"/>
<ellipse fill="none" stroke="black" cx="473.97" cy="-357.5" rx="27.5" ry="27.5"/>
<text text-anchor="middle" x="473.97" y="-353.3" font-family="Times,serif" font-size="14.00">32</text>
</g>
<!-- 14 -->
<g id="node30" class="node">
<title>14</title>
<ellipse fill="none" stroke="black" cx="367.81" cy="-376.5" rx="23.5" ry="23.5"/>
<text text-anchor="middle" x="367.81" y="-372.3" font-family="Times,serif" font-size="14.00">14</text>
</g>
<!-- 32&#45;&gt;14 -->
<g id="edge47" class="edge">
<title>32&#45;&gt;14</title>
<path fill="none" stroke="black" d="M448,-347.07C437.2,-343.96 424.5,-342.21 413.31,-345.7 406.72,-347.76 400.24,-351.17 394.36,-355"/>
<polygon fill="black" stroke="black" points="392.78,-352.54 386.68,-361.21 396.85,-358.24 392.78,-352.54"/>
<text text-anchor="middle" x="420.89" y="-350.7" font-family="Times,serif" font-size="14.00">&#39;,&#39;</text>
</g>
<!-- 33 -->
<g id="node13" class="node">
<title>33</title>
<ellipse fill="none" stroke="black" cx="252.33" cy="-469.5" rx="23.5" ry="23.5"/>
<ellipse fill="none" stroke="black" cx="252.33" cy="-469.5" rx="27.5" ry="27.5"/>
<text text-anchor="middle" x="252.33" y="-465.3" font-family="Times,serif" font-size="14.00">33</text>
</g>
<!-- 33&#45;&gt;15 -->
<g id="edge48" class="edge">
<title>33&#45;&gt;15</title>
<path fill="none" stroke="black" d="M232.14,-450.59C224.83,-444.63 216.03,-438.8 206.83,-435.7 200.25,-433.48 193.03,-433.4 186.1,-434.39"/>
<polygon fill="black" stroke="black" points="185.62,-431.13 176.6,-436.68 187.11,-437.97 185.62,-431.13"/>
<text text-anchor="middle" x="200.81" y="-440.7" font-family="Times,serif" font-size="14.00">&#39;,&#39;</text>
</g>
<!-- 34 -->
<g id="node14" class="node">
<title>34</title>
<ellipse fill="none" stroke="black" cx="473.97" cy="-525.5" rx="23.5" ry="23.5"/>
<ellipse fill="none" stroke="black" cx="473.97" cy="-525.5" rx="27.5" ry="27.5"/>
<text text-anchor="middle" x="473.97" y="-521.3" font-family="Times,serif" font-size="14.00">34</text>
</g>
<!-- 35 -->
<g id="node15" class="node">
<title>35</title>
<ellipse fill="none" stroke="black" cx="776.77" cy="-685.5" rx="23.5" ry="23.5"/>
<ellipse fill="none" stroke="black" cx="776.77" cy="-685.5" rx="27.5" ry="27.5"/>
<text text-anchor="middle" x="776.77" y="-681.3" font-family="Times,serif" font-size="14.00">35</text>
</g>
<!-- 36 -->
<g id="node16" class="node">
<title>36</title>
<ellipse fill="none" stroke="black" cx="473.97" cy="-835.5" rx="23.5" ry="23.5"/>
<ellipse fill="none" stroke="black" cx="473.97" cy="-835.5" rx="27.5" ry="27.5"/>
<text text-anchor="middle" x="473.97" y="-831.3" font-family="Times,serif" font-size="14.00">36</text>
</g>
<!-- 1&#45;&gt;29 -->
<g id="edge3" class="edge">
<title>1&#45;&gt;29</title>
<path fill="none" stroke="black" d="M173.49,-980.94C192.48,-992.03 222.74,-1006.5 251.33,-1006.5 251.33,-1006.5 251.33,-1006.5 574.91,-1006.5 597.08,-1006.5 621.17,-1000.45 640.15,-994.19"/>
<polygon fill="black" stroke="black" points="641.12,-997.22 649.41,-990.63 638.82,-990.6 641.12,-997.22"/>
<text text-anchor="middle" x="420.89" y="-1010.7" font-family="Times,serif" font-size="14.00">&#39;e&#39;</text>
</g>
<!-- 2 -->
<g id="node18" class="node">
<title>2</title>
<ellipse fill="none" stroke="black" cx="473.97" cy="-954.5" rx="23.5" ry="23.5"/>
<text text-anchor="middle" x="473.97" y="-950.3" font-family="Times,serif" font-size="14.00">2</text>
</g>
<!-- 1&#45;&gt;2 -->
<g id="edge1" class="edge">
<title>1&#45;&gt;2</title>
<path fill="none" stroke="black" d="M177.21,-967.49C232.67,-965.06 374.36,-958.83 439.4,-955.97"/>
<polygon fill="black" stroke="black" points="439.42,-959.43 449.26,-955.5 439.11,-952.44 439.42,-959.43"/>
<text text-anchor="middle" x="310.07" y="-966.7" font-family="Times,serif" font-size="14.00">&#39;N&#39;</text>
</g>
<!-- 4 -->
<g id="node19" class="node">
<title>4</title>
<ellipse fill="none" stroke="black" cx="252.33" cy="-916.5" rx="23.5" ry="23.5"/>
<text text-anchor="middle" x="252.33" y="-912.3" font-family="Times,serif" font-size="14.00">4</text>
</g>
<!-- 1&#45;&gt;4 -->
<g id="edge2" class="edge">
<title>1&#45;&gt;4</title>
<path fill="none" stroke="black" d="M171.66,-953.52C178.55,-948.06 186.74,-942.14 194.79,-937.7 202.38,-933.51 210.97,-929.81 219.12,-926.73"/>
<polygon fill="black" stroke="black" points="220.22,-929.69 228.47,-923.04 217.87,-923.1 220.22,-929.69"/>
<text text-anchor="middle" x="200.81" y="-942.7" font-family="Times,serif" font-size="14.00">&#39;[&#39;</text>
</g>
<!-- 3 -->
<g id="node20" class="node">
<title>3</title>
<ellipse fill="none" stroke="black" cx="573.91" cy="-954.5" rx="23.5" ry="23.5"/>
<text text-anchor="middle" x="573.91" y="-950.3" font-family="Times,serif" font-size="14.00">3</text>
</g>
<!-- 2&#45;&gt;3 -->
<g id="edge4" class="edge">
<title>2&#45;&gt;3</title>
<path fill="none" stroke="black" d="M497.68,-954.5C509.95,-954.5 525.35,-954.5 539.01,-954.5"/>
<polygon fill="black" stroke="black" points="538.97,-958 548.97,-954.5 538.97,-951 538.97,-958"/>
<text text-anchor="middle" x="525.94" y="-958.7" font-family="Times,serif" font-size="14.00">&#39;=&#39;</text>
</g>
<!-- 5 -->
<g id="node21" class="node">
<title>5</title>
<ellipse fill="none" stroke="black" cx="367.81" cy="-916.5" rx="23.5" ry="23.5"/>
<text text-anchor="middle" x="367.81" y="-912.3" font-family="Times,serif" font-size="14.00">5</text>
</g>
<!-- 4&#45;&gt;5 -->
<g id="edge6" class="edge">
<title>4&#45;&gt;5</title>
<path fill="none" stroke="black" d="M276.3,-916.5C292.6,-916.5 314.75,-916.5 333.06,-916.5"/>
<polygon fill="black" stroke="black" points="332.88,-920 342.88,-916.5 332.88,-913 332.88,-920"/>
<text text-anchor="middle" x="310.07" y="-920.7" font-family="Times,serif" font-size="14.00">&#39;e&#39;</text>
</g>
<!-- 3&#45;&gt;29 -->
<g id="edge5" class="edge">
<title>3&#45;&gt;29</title>
<path fill="none" stroke="black" d="M597.13,-960.27C609.35,-963.44 624.81,-967.45 638.73,-971.07"/>
<polygon fill="black" stroke="black" points="637.44,-974.61 648,-973.73 639.2,-967.83 637.44,-974.61"/>
<text text-anchor="middle" x="622.98" y="-972.7" font-family="Times,serif" font-size="14.00">&#39;e&#39;</text>
</g>
<!-- 5&#45;&gt;2 -->
<g id="edge7" class="edge">
<title>5&#45;&gt;2</title>
<path fill="none" stroke="black" d="M390.39,-924.05C401.74,-928.06 415.88,-933.09 428.47,-937.7 432.74,-939.27 437.24,-940.94 441.66,-942.59"/>
<polygon fill="black" stroke="black" points="440.13,-946.13 450.72,-946.38 442.6,-939.58 440.13,-946.13"/>
<text text-anchor="middle" x="420.89" y="-942.7" font-family="Times,serif" font-size="14.00">&#39;]&#39;</text>
</g>
<!-- 6&#45;&gt;30 -->
<g id="edge8" class="edge">
<title>6&#45;&gt;30</title>
<path fill="none" stroke="black" d="M176.96,-63.64C182.76,-64.35 189,-65.03 194.79,-65.5 251.31,-70.08 265.61,-70.14 322.31,-69.5 324.54,-69.47 326.84,-69.44 329.16,-69.41"/>
<polygon fill="black" stroke="black" points="329.05,-72.89 338.99,-69.2 328.92,-65.89 329.05,-72.89"/>
<text text-anchor="middle" x="252.33" y="-74.7" font-family="Times,serif" font-size="14.00">&#39;$&#39;</text>
</g>
<!-- 6&#45;&gt;6 -->
<g id="edge10" class="edge">
<title>6&#45;&gt;6</title>
<path fill="none" stroke="black" d="M144.55,-82.7C143.6,-93 146.51,-102 153.29,-102 157.52,-102 160.25,-98.48 161.46,-93.33"/>
<polygon fill="black" stroke="black" points="164.99,-93.87 162.02,-83.7 158,-93.5 164.99,-93.87"/>
<text text-anchor="middle" x="153.29" y="-106.2" font-family="Times,serif" font-size="14.00">&#39;s&#39;</text>
</g>
<!-- 7 -->
<g id="node23" class="node">
<title>7</title>
<ellipse fill="none" stroke="black" cx="252.33" cy="-23.5" rx="23.5" ry="23.5"/>
<text text-anchor="middle" x="252.33" y="-19.3" font-family="Times,serif" font-size="14.00">7</text>
</g>
<!-- 6&#45;&gt;7 -->
<g id="edge9" class="edge">
<title>6&#45;&gt;7</title>
<path fill="none" stroke="black" d="M175.82,-52.29C188.76,-47.35 205.46,-40.99 219.86,-35.5"/>
<polygon fill="black" stroke="black" points="220.76,-38.52 228.85,-31.69 218.26,-31.98 220.76,-38.52"/>
<text text-anchor="middle" x="200.81" y="-48.7" font-family="Times,serif" font-size="14.00">&#39;r&#39;</text>
</g>
<!-- 7&#45;&gt;30 -->
<g id="edge11" class="edge">
<title>7&#45;&gt;30</title>
<path fill="none" stroke="black" d="M274.68,-31.96C290.74,-38.34 313.12,-47.21 331.79,-54.61"/>
<polygon fill="black" stroke="black" points="330.42,-58.23 341.01,-58.66 333,-51.72 330.42,-58.23"/>
<text text-anchor="middle" x="310.07" y="-54.7" font-family="Times,serif" font-size="14.00">&#39;$&#39;</text>
</g>
<!-- 8&#45;&gt;31 -->
<g id="edge12" class="edge">
<title>8&#45;&gt;31</title>
<path fill="none" stroke="black" d="M176.01,-275.97C182.05,-277.91 188.64,-279.91 194.79,-281.5 207.97,-284.92 211.32,-285.81 224.83,-287.5 300.06,-296.92 320.47,-305.59 395.31,-293.5 410.45,-291.05 426.26,-285.22 439.63,-279.19"/>
<polygon fill="black" stroke="black" points="440.79,-282.03 448.33,-274.59 437.8,-275.71 440.79,-282.03"/>
<text text-anchor="middle" x="310.07" y="-303.7" font-family="Times,serif" font-size="14.00">&#39;$&#39;</text>
</g>
<!-- 9 -->
<g id="node25" class="node">
<title>9</title>
<ellipse fill="none" stroke="black" cx="367.81" cy="-261.5" rx="23.5" ry="23.5"/>
<text text-anchor="middle" x="367.81" y="-257.3" font-family="Times,serif" font-size="14.00">9</text>
</g>
<!-- 8&#45;&gt;9 -->
<g id="edge13" class="edge">
<title>8&#45;&gt;9</title>
<path fill="none" stroke="black" d="M177.03,-267.75C214.48,-266.52 289.32,-264.05 333,-262.61"/>
<polygon fill="black" stroke="black" points="333.03,-266.08 342.91,-262.25 332.8,-259.09 333.03,-266.08"/>
<text text-anchor="middle" x="252.33" y="-270.7" font-family="Times,serif" font-size="14.00">&#39;;&#39;</text>
</g>
<!-- 10 -->
<g id="node26" class="node">
<title>10</title>
<ellipse fill="none" stroke="black" cx="252.33" cy="-203.5" rx="23.5" ry="23.5"/>
<text text-anchor="middle" x="252.33" y="-199.3" font-family="Times,serif" font-size="14.00">10</text>
</g>
<!-- 8&#45;&gt;10 -->
<g id="edge14" class="edge">
<title>8&#45;&gt;10</title>
<path fill="none" stroke="black" d="M172.13,-254.28C179.08,-248.92 187.19,-242.87 194.79,-237.7 203.5,-231.78 213.23,-225.71 222.13,-220.35"/>
<polygon fill="black" stroke="black" points="223.57,-222.98 230.38,-214.87 220,-216.96 223.57,-222.98"/>
<text text-anchor="middle" x="200.81" y="-242.7" font-family="Times,serif" font-size="14.00">&#39;e&#39;</text>
</g>
<!-- 9&#45;&gt;31 -->
<g id="edge15" class="edge">
<title>9&#45;&gt;31</title>
<path fill="none" stroke="black" d="M391.67,-261.5C404.46,-261.5 420.72,-261.5 435.34,-261.5"/>
<polygon fill="black" stroke="black" points="435.11,-265 445.11,-261.5 435.11,-258 435.11,-265"/>
<text text-anchor="middle" x="420.89" y="-265.7" font-family="Times,serif" font-size="14.00">&#39;$&#39;</text>
</g>
<!-- 10&#45;&gt;31 -->
<g id="edge16" class="edge">
<title>10&#45;&gt;31</title>
<path fill="none" stroke="black" d="M276.11,-201.33C304.71,-199.39 354.92,-198.58 395.31,-211.7 412.68,-217.34 429.98,-227.84 443.83,-237.74"/>
<polygon fill="black" stroke="black" points="441.29,-240.95 451.4,-244.11 445.46,-235.34 441.29,-240.95"/>
<text text-anchor="middle" x="367.81" y="-216.7" font-family="Times,serif" font-size="14.00">&#39;$&#39;</text>
</g>
<!-- 10&#45;&gt;9 -->
<g id="edge18" class="edge">
<title>10&#45;&gt;9</title>
<path fill="none" stroke="black" d="M273.94,-213.51C287.69,-220.24 306.15,-229.37 322.31,-237.7 327.03,-240.13 332,-242.74 336.85,-245.31"/>
<polygon fill="black" stroke="black" points="335.03,-248.84 345.5,-250.47 338.33,-242.67 335.03,-248.84"/>
<text text-anchor="middle" x="310.07" y="-242.7" font-family="Times,serif" font-size="14.00">&#39;;&#39;</text>
</g>
<!-- 11 -->
<g id="node27" class="node">
<title>11</title>
<ellipse fill="none" stroke="black" cx="367.81" cy="-141.5" rx="23.5" ry="23.5"/>
<text text-anchor="middle" x="367.81" y="-137.3" font-family="Times,serif" font-size="14.00">11</text>
</g>
<!-- 10&#45;&gt;11 -->
<g id="edge17" class="edge">
<title>10&#45;&gt;11</title>
<path fill="none" stroke="black" d="M271.47,-189.84C279.36,-184.19 288.84,-177.79 297.83,-172.7 309.77,-165.94 323.45,-159.5 335.46,-154.25"/>
<polygon fill="black" stroke="black" points="336.68,-157.11 344.5,-149.96 333.93,-150.67 336.68,-157.11"/>
<text text-anchor="middle" x="310.07" y="-177.7" font-family="Times,serif" font-size="14.00">&#39;,&#39;</text>
</g>
<!-- 11&#45;&gt;10 -->
<g id="edge19" class="edge">
<title>11&#45;&gt;10</title>
<path fill="none" stroke="black" d="M344.76,-135.66C330.57,-133.13 312.17,-132.22 297.83,-139.7 284.38,-146.72 274.16,-159.87 266.93,-172.41"/>
<polygon fill="black" stroke="black" points="263.56,-170.3 261.98,-180.78 269.75,-173.57 263.56,-170.3"/>
<text text-anchor="middle" x="310.07" y="-144.7" font-family="Times,serif" font-size="14.00">&#39;e&#39;</text>
</g>
<!-- 13 -->
<g id="node29" class="node">
<title>13</title>
<ellipse fill="none" stroke="black" cx="252.33" cy="-376.5" rx="23.5" ry="23.5"/>
<text text-anchor="middle" x="252.33" y="-372.3" font-family="Times,serif" font-size="14.00">13</text>
</g>
<!-- 12&#45;&gt;13 -->
<g id="edge20" class="edge">
<title>12&#45;&gt;13</title>
<path fill="none" stroke="black" d="M176.98,-366.96C182.78,-367.82 189.01,-368.71 194.79,-369.5 202.29,-370.52 210.37,-371.56 218,-372.51"/>
<polygon fill="black" stroke="black" points="217.4,-376.08 227.75,-373.83 218.25,-369.14 217.4,-376.08"/>
<text text-anchor="middle" x="200.81" y="-375.7" font-family="Times,serif" font-size="14.00">&#39;v&#39;</text>
</g>
<!-- 13&#45;&gt;12 -->
<g id="edge21" class="edge">
<title>13&#45;&gt;12</title>
<path fill="none" stroke="black" d="M233.39,-362.09C225.69,-356.78 216.29,-351.41 206.83,-348.7 199.75,-346.67 192.13,-347.24 184.95,-349.01"/>
<polygon fill="black" stroke="black" points="183.91,-345.99 175.51,-352.45 186.1,-352.64 183.91,-345.99"/>
<text text-anchor="middle" x="200.81" y="-353.7" font-family="Times,serif" font-size="14.00">&#39;,&#39;</text>
</g>
<!-- 13&#45;&gt;14 -->
<g id="edge22" class="edge">
<title>13&#45;&gt;14</title>
<path fill="none" stroke="black" d="M276.3,-376.5C292.6,-376.5 314.75,-376.5 333.06,-376.5"/>
<polygon fill="black" stroke="black" points="332.88,-380 342.88,-376.5 332.88,-373 332.88,-380"/>
<text text-anchor="middle" x="310.07" y="-380.7" font-family="Times,serif" font-size="14.00">&#39;=&#39;</text>
</g>
<!-- 14&#45;&gt;32 -->
<g id="edge23" class="edge">
<title>14&#45;&gt;32</title>
<path fill="none" stroke="black" d="M391.41,-372.38C404.51,-369.99 421.31,-366.92 436.26,-364.2"/>
<polygon fill="black" stroke="black" points="436.52,-367.52 445.73,-362.29 435.27,-360.64 436.52,-367.52"/>
<text text-anchor="middle" x="420.89" y="-372.7" font-family="Times,serif" font-size="14.00">&#39;e&#39;</text>
</g>
<!-- 15&#45;&gt;33 -->
<g id="edge24" class="edge">
<title>15&#45;&gt;33</title>
<path fill="none" stroke="black" d="M176.31,-450.95C187.67,-453.76 201.82,-457.26 214.77,-460.46"/>
<polygon fill="black" stroke="black" points="213.72,-464.05 224.27,-463.05 215.4,-457.26 213.72,-464.05"/>
<text text-anchor="middle" x="200.81" y="-462.7" font-family="Times,serif" font-size="14.00">&#39;e&#39;</text>
</g>
<!-- 17 -->
<g id="node33" class="node">
<title>17</title>
<ellipse fill="none" stroke="black" cx="252.33" cy="-547.5" rx="23.5" ry="23.5"/>
<text text-anchor="middle" x="252.33" y="-543.3" font-family="Times,serif" font-size="14.00">17</text>
</g>
<!-- 16&#45;&gt;17 -->
<g id="edge25" class="edge">
<title>16&#45;&gt;17</title>
<path fill="none" stroke="black" d="M177.28,-547.5C189.37,-547.5 204.41,-547.5 217.77,-547.5"/>
<polygon fill="black" stroke="black" points="217.5,-551 227.5,-547.5 217.5,-544 217.5,-551"/>
<text text-anchor="middle" x="200.81" y="-551.7" font-family="Times,serif" font-size="14.00">&#39;(&#39;</text>
</g>
<!-- 17&#45;&gt;34 -->
<g id="edge26" class="edge">
<title>17&#45;&gt;34</title>
<path fill="none" stroke="black" d="M276.01,-545.23C313.78,-541.45 389.92,-533.82 435.68,-529.24"/>
<polygon fill="black" stroke="black" points="435.74,-532.65 445.34,-528.17 435.04,-525.68 435.74,-532.65"/>
<text text-anchor="middle" x="367.81" y="-543.7" font-family="Times,serif" font-size="14.00">&#39;)&#39;</text>
</g>
<!-- 18 -->
<g id="node34" class="node">
<title>18</title>
<ellipse fill="none" stroke="black" cx="367.81" cy="-483.5" rx="23.5" ry="23.5"/>
<text text-anchor="middle" x="367.81" y="-479.3" font-family="Times,serif" font-size="14.00">18</text>
</g>
<!-- 17&#45;&gt;18 -->
<g id="edge27" class="edge">
<title>17&#45;&gt;18</title>
<path fill="none" stroke="black" d="M272.12,-534.73C279.96,-529.57 289.22,-523.67 297.83,-518.7 310.21,-511.56 324.19,-504.29 336.32,-498.22"/>
<polygon fill="black" stroke="black" points="337.58,-501 344.99,-493.43 334.48,-494.73 337.58,-501"/>
<text text-anchor="middle" x="310.07" y="-523.7" font-family="Times,serif" font-size="14.00">&#39;e&#39;</text>
</g>
<!-- 18&#45;&gt;34 -->
<g id="edge28" class="edge">
<title>18&#45;&gt;34</title>
<path fill="none" stroke="black" d="M390.14,-492.1C403.91,-497.65 422.14,-505.01 438,-511.4"/>
<polygon fill="black" stroke="black" points="436.42,-514.94 447,-515.43 439.04,-508.45 436.42,-514.94"/>
<text text-anchor="middle" x="420.89" y="-511.7" font-family="Times,serif" font-size="14.00">&#39;)&#39;</text>
</g>
<!-- 19 -->
<g id="node35" class="node">
<title>19</title>
<ellipse fill="none" stroke="black" cx="473.97" cy="-446.5" rx="23.5" ry="23.5"/>
<text text-anchor="middle" x="473.97" y="-442.3" font-family="Times,serif" font-size="14.00">19</text>
</g>
<!-- 18&#45;&gt;19 -->
<g id="edge29" class="edge">
<title>18&#45;&gt;19</title>
<path fill="none" stroke="black" d="M390.39,-475.83C405.06,-470.62 424.7,-463.65 441.15,-457.8"/>
<polygon fill="black" stroke="black" points="442.16,-460.8 450.41,-454.16 439.82,-454.21 442.16,-460.8"/>
<text text-anchor="middle" x="420.89" y="-471.7" font-family="Times,serif" font-size="14.00">&#39;,&#39;</text>
</g>
<!-- 19&#45;&gt;18 -->
<g id="edge30" class="edge">
<title>19&#45;&gt;18</title>
<path fill="none" stroke="black" d="M450.74,-440.69C439.21,-438.76 425.11,-438.11 413.31,-442.7 404.93,-445.96 397.17,-451.62 390.56,-457.7"/>
<polygon fill="black" stroke="black" points="388.39,-454.92 383.83,-464.48 393.36,-459.85 388.39,-454.92"/>
<text text-anchor="middle" x="420.89" y="-447.7" font-family="Times,serif" font-size="14.00">&#39;e&#39;</text>
</g>
<!-- 21 -->
<g id="node37" class="node">
<title>21</title>
<ellipse fill="none" stroke="black" cx="252.33" cy="-707.5" rx="23.5" ry="23.5"/>
<text text-anchor="middle" x="252.33" y="-703.3" font-family="Times,serif" font-size="14.00">21</text>
</g>
<!-- 20&#45;&gt;21 -->
<g id="edge31" class="edge">
<title>20&#45;&gt;21</title>
<path fill="none" stroke="black" d="M177.28,-707.5C189.37,-707.5 204.41,-707.5 217.77,-707.5"/>
<polygon fill="black" stroke="black" points="217.5,-711 227.5,-707.5 217.5,-704 217.5,-711"/>
<text text-anchor="middle" x="200.81" y="-711.7" font-family="Times,serif" font-size="14.00">&#39;(&#39;</text>
</g>
<!-- 21&#45;&gt;35 -->
<g id="edge32" class="edge">
<title>21&#45;&gt;35</title>
<path fill="none" stroke="black" d="M273.12,-718.78C295.23,-730.3 332.44,-746.5 366.81,-746.5 366.81,-746.5 366.81,-746.5 677.06,-746.5 704.66,-746.5 730.99,-729.03 749.51,-712.78"/>
<polygon fill="black" stroke="black" points="751.46,-715.82 756.44,-706.47 746.72,-710.68 751.46,-715.82"/>
<text text-anchor="middle" x="525.94" y="-750.7" font-family="Times,serif" font-size="14.00">&#39;)&#39;</text>
</g>
<!-- 22 -->
<g id="node38" class="node">
<title>22</title>
<ellipse fill="none" stroke="black" cx="573.91" cy="-682.5" rx="23.5" ry="23.5"/>
<text text-anchor="middle" x="573.91" y="-678.3" font-family="Times,serif" font-size="14.00">22</text>
</g>
<!-- 21&#45;&gt;22 -->
<g id="edge33" class="edge">
<title>21&#45;&gt;22</title>
<path fill="none" stroke="black" d="M276.27,-707.72C324.15,-707.87 438.1,-706.55 532.41,-692.5 534.95,-692.12 537.56,-691.66 540.17,-691.14"/>
<polygon fill="black" stroke="black" points="540.78,-694.36 549.78,-688.76 539.25,-687.53 540.78,-694.36"/>
<text text-anchor="middle" x="420.89" y="-708.7" font-family="Times,serif" font-size="14.00">&#39;.&#39;</text>
</g>
<!-- 24 -->
<g id="node39" class="node">
<title>24</title>
<ellipse fill="none" stroke="black" cx="367.81" cy="-640.5" rx="23.5" ry="23.5"/>
<text text-anchor="middle" x="367.81" y="-636.3" font-family="Times,serif" font-size="14.00">24</text>
</g>
<!-- 21&#45;&gt;24 -->
<g id="edge34" class="edge">
<title>21&#45;&gt;24</title>
<path fill="none" stroke="black" d="M271.62,-694.1C279.53,-688.49 288.99,-682.05 297.83,-676.7 310.21,-669.2 324.3,-661.65 336.5,-655.39"/>
<polygon fill="black" stroke="black" points="337.88,-658.11 345.23,-650.47 334.72,-651.86 337.88,-658.11"/>
<text text-anchor="middle" x="310.07" y="-681.7" font-family="Times,serif" font-size="14.00">&#39;N&#39;</text>
</g>
<!-- 22&#45;&gt;35 -->
<g id="edge35" class="edge">
<title>22&#45;&gt;35</title>
<path fill="none" stroke="black" d="M597.57,-685.8C603.37,-686.5 609.61,-687.14 615.41,-687.5 657.42,-690.08 705.73,-688.92 738.26,-687.53"/>
<polygon fill="black" stroke="black" points="738.24,-690.99 748.07,-687.04 737.92,-684 738.24,-690.99"/>
<text text-anchor="middle" x="676.06" y="-693.7" font-family="Times,serif" font-size="14.00">&#39;)&#39;</text>
</g>
<!-- 23 -->
<g id="node40" class="node">
<title>23</title>
<ellipse fill="none" stroke="black" cx="676.06" cy="-641.5" rx="23.5" ry="23.5"/>
<text text-anchor="middle" x="676.06" y="-637.3" font-family="Times,serif" font-size="14.00">23</text>
</g>
<!-- 22&#45;&gt;23 -->
<g id="edge36" class="edge">
<title>22&#45;&gt;23</title>
<path fill="none" stroke="black" d="M596.15,-673.8C609.96,-668.15 628.2,-660.68 643.67,-654.35"/>
<polygon fill="black" stroke="black" points="644.92,-657.21 652.85,-650.18 642.27,-650.73 644.92,-657.21"/>
<text text-anchor="middle" x="622.98" y="-670.7" font-family="Times,serif" font-size="14.00">&#39;N&#39;</text>
</g>
<!-- 24&#45;&gt;35 -->
<g id="edge38" class="edge">
<title>24&#45;&gt;35</title>
<path fill="none" stroke="black" d="M386.34,-625.75C406.08,-610.69 439.75,-589.5 472.97,-589.5 472.97,-589.5 472.97,-589.5 677.06,-589.5 713.63,-589.5 741.74,-623.77 758.44,-651.36"/>
<polygon fill="black" stroke="black" points="755.84,-652.86 763.87,-659.78 761.91,-649.37 755.84,-652.86"/>
<text text-anchor="middle" x="573.91" y="-593.7" font-family="Times,serif" font-size="14.00">&#39;)&#39;</text>
</g>
<!-- 25 -->
<g id="node41" class="node">
<title>25</title>
<ellipse fill="none" stroke="black" cx="473.97" cy="-655.5" rx="23.5" ry="23.5"/>
<text text-anchor="middle" x="473.97" y="-651.3" font-family="Times,serif" font-size="14.00">25</text>
</g>
<!-- 24&#45;&gt;25 -->
<g id="edge39" class="edge">
<title>24&#45;&gt;25</title>
<path fill="none" stroke="black" d="M391.41,-643.75C405.61,-645.8 424.16,-648.47 439.98,-650.75"/>
<polygon fill="black" stroke="black" points="439.01,-654.29 449.41,-652.25 440.01,-647.36 439.01,-654.29"/>
<text text-anchor="middle" x="420.89" y="-653.7" font-family="Times,serif" font-size="14.00">&#39;,&#39;</text>
</g>
<!-- 23&#45;&gt;35 -->
<g id="edge37" class="edge">
<title>23&#45;&gt;35</title>
<path fill="none" stroke="black" d="M698,-650.83C710.69,-656.49 727.18,-663.84 741.71,-670.32"/>
<polygon fill="black" stroke="black" points="739.83,-673.76 750.39,-674.63 742.68,-667.36 739.83,-673.76"/>
<text text-anchor="middle" x="726.42" y="-669.7" font-family="Times,serif" font-size="14.00">&#39;)&#39;</text>
</g>
<!-- 25&#45;&gt;22 -->
<g id="edge40" class="edge">
<title>25&#45;&gt;22</title>
<path fill="none" stroke="black" d="M496.7,-661.49C509.55,-665.03 526.05,-669.58 540.42,-673.54"/>
<polygon fill="black" stroke="black" points="539.32,-677.15 549.89,-676.43 541.18,-670.4 539.32,-677.15"/>
<text text-anchor="middle" x="525.94" y="-675.7" font-family="Times,serif" font-size="14.00">&#39;.&#39;</text>
</g>
<!-- 25&#45;&gt;24 -->
<g id="edge41" class="edge">
<title>25&#45;&gt;24</title>
<path fill="none" stroke="black" d="M455.53,-640.88C447.76,-635.29 438.17,-629.57 428.47,-626.7 419.23,-623.97 409.07,-624.9 399.78,-627.24"/>
<polygon fill="black" stroke="black" points="398.89,-624.17 390.4,-630.5 400.99,-630.85 398.89,-624.17"/>
<text text-anchor="middle" x="420.89" y="-631.7" font-family="Times,serif" font-size="14.00">&#39;N&#39;</text>
</g>
<!-- 27 -->
<g id="node43" class="node">
<title>27</title>
<ellipse fill="none" stroke="black" cx="252.33" cy="-826.5" rx="23.5" ry="23.5"/>
<text text-anchor="middle" x="252.33" y="-822.3" font-family="Times,serif" font-size="14.00">27</text>
</g>
<!-- 26&#45;&gt;27 -->
<g id="edge42" class="edge">
<title>26&#45;&gt;27</title>
<path fill="none" stroke="black" d="M177.28,-826.5C189.37,-826.5 204.41,-826.5 217.77,-826.5"/>
<polygon fill="black" stroke="black" points="217.5,-830 227.5,-826.5 217.5,-823 217.5,-830"/>
<text text-anchor="middle" x="200.81" y="-830.7" font-family="Times,serif" font-size="14.00">&#39;{&#39;</text>
</g>
<!-- 27&#45;&gt;36 -->
<g id="edge44" class="edge">
<title>27&#45;&gt;36</title>
<path fill="none" stroke="black" d="M275.37,-832.31C282.49,-833.95 290.45,-835.55 297.83,-836.5 355.44,-843.91 370.47,-843.75 428.47,-840.5 430.86,-840.37 433.33,-840.19 435.81,-839.99"/>
<polygon fill="black" stroke="black" points="436.03,-843.39 445.65,-838.95 435.36,-836.42 436.03,-843.39"/>
<text text-anchor="middle" x="367.81" y="-847.7" font-family="Times,serif" font-size="14.00">&#39;}&#39;</text>
</g>
<!-- 28 -->
<g id="node44" class="node">
<title>28</title>
<ellipse fill="none" stroke="black" cx="367.81" cy="-798.5" rx="23.5" ry="23.5"/>
<text text-anchor="middle" x="367.81" y="-794.3" font-family="Times,serif" font-size="14.00">28</text>
</g>
<!-- 27&#45;&gt;28 -->
<g id="edge43" class="edge">
<title>27&#45;&gt;28</title>
<path fill="none" stroke="black" d="M275.48,-821.03C292.2,-816.91 315.39,-811.19 334.22,-806.54"/>
<polygon fill="black" stroke="black" points="334.85,-809.75 343.72,-803.95 333.17,-802.95 334.85,-809.75"/>
<text text-anchor="middle" x="310.07" y="-819.7" font-family="Times,serif" font-size="14.00">&#39;f&#39;</text>
</g>
<!-- 28&#45;&gt;36 -->
<g id="edge46" class="edge">
<title>28&#45;&gt;36</title>
<path fill="none" stroke="black" d="M390.39,-806.17C404.08,-811.03 422.1,-817.43 437.82,-823.01"/>
<polygon fill="black" stroke="black" points="436.15,-826.49 446.74,-826.54 438.49,-819.89 436.15,-826.49"/>
<text text-anchor="middle" x="420.89" y="-823.7" font-family="Times,serif" font-size="14.00">&#39;}&#39;</text>
</g>
<!-- 28&#45;&gt;27 -->
<g id="edge45" class="edge">
<title>28&#45;&gt;27</title>
<path fill="none" stroke="black" d="M345.43,-790.76C331.51,-786.93 313.17,-784.18 297.83,-789.7 290.18,-792.45 282.91,-797.16 276.54,-802.3"/>
<polygon fill="black" stroke="black" points="274.65,-799.19 269.48,-808.44 279.29,-804.43 274.65,-799.19"/>
<text text-anchor="middle" x="310.07" y="-794.7" font-family="Times,serif" font-size="14.00">&#39;,&#39;, &#39;;&#39;</text>
</g>
</g>
</svg>
