<?xml version="1.0" encoding="UTF-8" standalone="no"?>
<!DOCTYPE svg PUBLIC "-//W3C//DTD SVG 1.1//EN"
 "http://www.w3.org/Graphics/SVG/1.1/DTD/svg11.dtd">
<!-- Generated by graphviz version 8.0.3 (20230416.2022)
 -->
<!-- Title: syntax Pages: 1 -->
<svg width="815pt" height="1333pt"
 viewBox="0.00 0.00 815.38 1333.30" xmlns="http://www.w3.org/2000/svg" xmlns:xlink="http://www.w3.org/1999/xlink">
<g id="graph0" class="graph" transform="scale(1 1) rotate(0) translate(4 1329.3)">
<title>syntax</title>
<polygon fill="white" stroke="none" points="-4,4 -4,-1329.3 811.38,-1329.3 811.38,4 -4,4"/>
<!-- en_6 -->
<g id="node1" class="node">
<title>en_6</title>
<ellipse fill="black" stroke="black" cx="1.8" cy="-60.5" rx="1.8" ry="1.8"/>
</g>
<!-- 6 -->
<g id="node28" class="node">
<title>6</title>
<ellipse fill="none" stroke="black" cx="153.29" cy="-60.5" rx="23.5" ry="23.5"/>
<text text-anchor="middle" x="153.29" y="-56.3" font-family="Times,serif" font-size="14.00">6</text>
</g>
<!-- en_6&#45;&gt;6 -->
<g id="edge59" class="edge">
<title>en_6&#45;&gt;6</title>
<path fill="none" stroke="black" d="M4.09,-60.5C13.95,-60.5 77.99,-60.5 118.6,-60.5"/>
<polygon fill="black" stroke="black" points="118.36,-64 128.36,-60.5 118.36,-57 118.36,-64"/>
<text text-anchor="middle" x="66.69" y="-64.7" font-family="Times,serif" font-size="14.00">block</text>
</g>
<!-- en_8 -->
<g id="node2" class="node">
<title>en_8</title>
<ellipse fill="black" stroke="black" cx="1.8" cy="-174.5" rx="1.8" ry="1.8"/>
</g>
<!-- 8 -->
<g id="node30" class="node">
<title>8</title>
<ellipse fill="none" stroke="black" cx="153.29" cy="-174.5" rx="23.5" ry="23.5"/>
<text text-anchor="middle" x="153.29" y="-170.3" font-family="Times,serif" font-size="14.00">8</text>
</g>
<!-- en_8&#45;&gt;8 -->
<g id="edge60" class="edge">
<title>en_8&#45;&gt;8</title>
<path fill="none" stroke="black" d="M4.09,-174.5C13.95,-174.5 77.99,-174.5 118.6,-174.5"/>
<polygon fill="black" stroke="black" points="118.36,-178 128.36,-174.5 118.36,-171 118.36,-178"/>
<text text-anchor="middle" x="66.69" y="-178.7" font-family="Times,serif" font-size="14.00">attnamelist</text>
</g>
<!-- en_10 -->
<g id="node3" class="node">
<title>en_10</title>
<ellipse fill="black" stroke="black" cx="1.8" cy="-499.5" rx="1.8" ry="1.8"/>
</g>
<!-- 10 -->
<g id="node32" class="node">
<title>10</title>
<ellipse fill="none" stroke="black" cx="153.29" cy="-499.5" rx="23.5" ry="23.5"/>
<text text-anchor="middle" x="153.29" y="-495.3" font-family="Times,serif" font-size="14.00">10</text>
</g>
<!-- en_10&#45;&gt;10 -->
<g id="edge61" class="edge">
<title>en_10&#45;&gt;10</title>
<path fill="none" stroke="black" d="M4.09,-499.5C13.95,-499.5 77.99,-499.5 118.6,-499.5"/>
<polygon fill="black" stroke="black" points="118.36,-503 128.36,-499.5 118.36,-496 118.36,-503"/>
<text text-anchor="middle" x="66.69" y="-503.7" font-family="Times,serif" font-size="14.00">retstat</text>
</g>
<!-- en_14 -->
<g id="node4" class="node">
<title>en_14</title>
<ellipse fill="black" stroke="black" cx="1.8" cy="-602.5" rx="1.8" ry="1.8"/>
</g>
<!-- 14 -->
<g id="node36" class="node">
<title>14</title>
<ellipse fill="none" stroke="black" cx="153.29" cy="-602.5" rx="23.5" ry="23.5"/>
<text text-anchor="middle" x="153.29" y="-598.3" font-family="Times,serif" font-size="14.00">14</text>
</g>
<!-- en_14&#45;&gt;14 -->
<g id="edge62" class="edge">
<title>en_14&#45;&gt;14</title>
<path fill="none" stroke="black" d="M4.09,-602.5C13.95,-602.5 77.99,-602.5 118.6,-602.5"/>
<polygon fill="black" stroke="black" points="118.36,-606 128.36,-602.5 118.36,-599 118.36,-606"/>
<text text-anchor="middle" x="66.69" y="-606.7" font-family="Times,serif" font-size="14.00">funcname</text>
</g>
<!-- en_16 -->
<g id="node5" class="node">
<title>en_16</title>
<ellipse fill="black" stroke="black" cx="1.8" cy="-674.5" rx="1.8" ry="1.8"/>
</g>
<!-- 16 -->
<g id="node38" class="node">
<title>16</title>
<ellipse fill="none" stroke="black" cx="153.29" cy="-674.5" rx="23.5" ry="23.5"/>
<text text-anchor="middle" x="153.29" y="-670.3" font-family="Times,serif" font-size="14.00">16</text>
</g>
<!-- en_16&#45;&gt;16 -->
<g id="edge63" class="edge">
<title>en_16&#45;&gt;16</title>
<path fill="none" stroke="black" d="M4.09,-674.5C13.95,-674.5 77.99,-674.5 118.6,-674.5"/>
<polygon fill="black" stroke="black" points="118.36,-678 128.36,-674.5 118.36,-671 118.36,-678"/>
<text text-anchor="middle" x="66.69" y="-678.7" font-family="Times,serif" font-size="14.00">assign</text>
</g>
<!-- en_19 -->
<g id="node6" class="node">
<title>en_19</title>
<ellipse fill="black" stroke="black" cx="1.8" cy="-772.5" rx="1.8" ry="1.8"/>
</g>
<!-- 19 -->
<g id="node41" class="node">
<title>19</title>
<ellipse fill="none" stroke="black" cx="153.29" cy="-772.5" rx="23.5" ry="23.5"/>
<text text-anchor="middle" x="153.29" y="-768.3" font-family="Times,serif" font-size="14.00">19</text>
</g>
<!-- en_19&#45;&gt;19 -->
<g id="edge64" class="edge">
<title>en_19&#45;&gt;19</title>
<path fill="none" stroke="black" d="M4.09,-772.5C13.95,-772.5 77.99,-772.5 118.6,-772.5"/>
<polygon fill="black" stroke="black" points="118.36,-776 128.36,-772.5 118.36,-769 118.36,-776"/>
<text text-anchor="middle" x="66.69" y="-776.7" font-family="Times,serif" font-size="14.00">explist</text>
</g>
<!-- en_20 -->
<g id="node7" class="node">
<title>en_20</title>
<ellipse fill="black" stroke="black" cx="1.8" cy="-860.5" rx="1.8" ry="1.8"/>
</g>
<!-- 20 -->
<g id="node42" class="node">
<title>20</title>
<ellipse fill="none" stroke="black" cx="153.29" cy="-860.5" rx="23.5" ry="23.5"/>
<text text-anchor="middle" x="153.29" y="-856.3" font-family="Times,serif" font-size="14.00">20</text>
</g>
<!-- en_20&#45;&gt;20 -->
<g id="edge65" class="edge">
<title>en_20&#45;&gt;20</title>
<path fill="none" stroke="black" d="M4.09,-860.5C13.95,-860.5 77.99,-860.5 118.6,-860.5"/>
<polygon fill="black" stroke="black" points="118.36,-864 128.36,-860.5 118.36,-857 118.36,-864"/>
<text text-anchor="middle" x="66.69" y="-864.7" font-family="Times,serif" font-size="14.00">args</text>
</g>
<!-- en_24 -->
<g id="node8" class="node">
<title>en_24</title>
<ellipse fill="black" stroke="black" cx="1.8" cy="-1007.5" rx="1.8" ry="1.8"/>
</g>
<!-- 24 -->
<g id="node46" class="node">
<title>24</title>
<ellipse fill="none" stroke="black" cx="153.29" cy="-1007.5" rx="23.5" ry="23.5"/>
<text text-anchor="middle" x="153.29" y="-1003.3" font-family="Times,serif" font-size="14.00">24</text>
</g>
<!-- en_24&#45;&gt;24 -->
<g id="edge66" class="edge">
<title>en_24&#45;&gt;24</title>
<path fill="none" stroke="black" d="M4.09,-1007.5C13.95,-1007.5 77.99,-1007.5 118.6,-1007.5"/>
<polygon fill="black" stroke="black" points="118.36,-1011 128.36,-1007.5 118.36,-1004 118.36,-1011"/>
<text text-anchor="middle" x="66.69" y="-1011.7" font-family="Times,serif" font-size="14.00">params</text>
</g>
<!-- en_30 -->
<g id="node9" class="node">
<title>en_30</title>
<ellipse fill="black" stroke="black" cx="1.8" cy="-1128.5" rx="1.8" ry="1.8"/>
</g>
<!-- 30 -->
<g id="node52" class="node">
<title>30</title>
<ellipse fill="none" stroke="black" cx="153.29" cy="-1128.5" rx="23.5" ry="23.5"/>
<text text-anchor="middle" x="153.29" y="-1124.3" font-family="Times,serif" font-size="14.00">30</text>
</g>
<!-- en_30&#45;&gt;30 -->
<g id="edge67" class="edge">
<title>en_30&#45;&gt;30</title>
<path fill="none" stroke="black" d="M4.09,-1128.5C13.95,-1128.5 77.99,-1128.5 118.6,-1128.5"/>
<polygon fill="black" stroke="black" points="118.36,-1132 128.36,-1128.5 118.36,-1125 118.36,-1132"/>
<text text-anchor="middle" x="66.69" y="-1132.7" font-family="Times,serif" font-size="14.00">tableconstructor</text>
</g>
<!-- en_1 -->
<g id="node10" class="node">
<title>en_1</title>
<ellipse fill="black" stroke="black" cx="1.8" cy="-1270.5" rx="1.8" ry="1.8"/>
</g>
<!-- 1 -->
<g id="node23" class="node">
<title>1</title>
<ellipse fill="none" stroke="black" cx="153.29" cy="-1270.5" rx="23.5" ry="23.5"/>
<text text-anchor="middle" x="153.29" y="-1266.3" font-family="Times,serif" font-size="14.00">1</text>
</g>
<!-- en_1&#45;&gt;1 -->
<g id="edge68" class="edge">
<title>en_1&#45;&gt;1</title>
<path fill="none" stroke="black" d="M4.09,-1270.5C13.95,-1270.5 77.99,-1270.5 118.6,-1270.5"/>
<polygon fill="black" stroke="black" points="118.36,-1274 128.36,-1270.5 118.36,-1267 118.36,-1274"/>
<text text-anchor="middle" x="66.69" y="-1274.7" font-family="Times,serif" font-size="14.00">field</text>
</g>
<!-- 33 -->
<g id="node11" class="node">
<title>33</title>
<ellipse fill="none" stroke="black" cx="679.17" cy="-1282.5" rx="23.5" ry="23.5"/>
<ellipse fill="none" stroke="black" cx="679.17" cy="-1282.5" rx="27.5" ry="27.5"/>
<text text-anchor="middle" x="679.17" y="-1278.3" font-family="Times,serif" font-size="14.00">33</text>
</g>
<!-- 34 -->
<g id="node12" class="node">
<title>34</title>
<ellipse fill="none" stroke="black" cx="370.92" cy="-72.5" rx="23.5" ry="23.5"/>
<ellipse fill="none" stroke="black" cx="370.92" cy="-72.5" rx="27.5" ry="27.5"/>
<text text-anchor="middle" x="370.92" y="-68.3" font-family="Times,serif" font-size="14.00">34</text>
</g>
<!-- 35 -->
<g id="node13" class="node">
<title>35</title>
<ellipse fill="none" stroke="black" cx="255.44" cy="-223.5" rx="23.5" ry="23.5"/>
<ellipse fill="none" stroke="black" cx="255.44" cy="-223.5" rx="27.5" ry="27.5"/>
<text text-anchor="middle" x="255.44" y="-219.3" font-family="Times,serif" font-size="14.00">35</text>
</g>
<!-- 36 -->
<g id="node14" class="node">
<title>36</title>
<ellipse fill="none" stroke="black" cx="370.92" cy="-299.5" rx="23.5" ry="23.5"/>
<ellipse fill="none" stroke="black" cx="370.92" cy="-299.5" rx="27.5" ry="27.5"/>
<text text-anchor="middle" x="370.92" y="-295.3" font-family="Times,serif" font-size="14.00">36</text>
</g>
<!-- 35&#45;&gt;36 -->
<g id="edge53" class="edge">
<title>35&#45;&gt;36</title>
<path fill="none" stroke="black" d="M278.86,-238.52C295.88,-249.91 319.5,-265.73 338.42,-278.4"/>
<polygon fill="black" stroke="black" points="336.29,-281.86 346.55,-284.52 340.19,-276.04 336.29,-281.86"/>
<text text-anchor="middle" x="313.18" y="-272.7" font-family="Times,serif" font-size="14.00">&#39;a&#39;</text>
</g>
<!-- 9 -->
<g id="node31" class="node">
<title>9</title>
<ellipse fill="none" stroke="black" cx="477.08" cy="-210.5" rx="23.5" ry="23.5"/>
<text text-anchor="middle" x="477.08" y="-206.3" font-family="Times,serif" font-size="14.00">9</text>
</g>
<!-- 35&#45;&gt;9 -->
<g id="edge52" class="edge">
<title>35&#45;&gt;9</title>
<path fill="none" stroke="black" d="M283.2,-223.21C317.59,-222.66 379.13,-221.07 431.58,-216.5 435.15,-216.19 438.87,-215.8 442.58,-215.36"/>
<polygon fill="black" stroke="black" points="443.01,-218.71 452.48,-213.97 442.12,-211.76 443.01,-218.71"/>
<text text-anchor="middle" x="370.92" y="-226.7" font-family="Times,serif" font-size="14.00">&#39;,&#39;</text>
</g>
<!-- 36&#45;&gt;9 -->
<g id="edge54" class="edge">
<title>36&#45;&gt;9</title>
<path fill="none" stroke="black" d="M393.18,-282.96C404.7,-273.86 419.09,-262.26 431.58,-251.5 438.18,-245.81 445.18,-239.5 451.62,-233.58"/>
<polygon fill="black" stroke="black" points="453.46,-236.71 458.41,-227.35 448.7,-231.58 453.46,-236.71"/>
<text text-anchor="middle" x="424" y="-268.7" font-family="Times,serif" font-size="14.00">&#39;,&#39;</text>
</g>
<!-- 37 -->
<g id="node15" class="node">
<title>37</title>
<ellipse fill="none" stroke="black" cx="477.08" cy="-492.5" rx="23.5" ry="23.5"/>
<ellipse fill="none" stroke="black" cx="477.08" cy="-492.5" rx="27.5" ry="27.5"/>
<text text-anchor="middle" x="477.08" y="-488.3" font-family="Times,serif" font-size="14.00">37</text>
</g>
<!-- 38 -->
<g id="node16" class="node">
<title>38</title>
<ellipse fill="none" stroke="black" cx="255.44" cy="-600.5" rx="23.5" ry="23.5"/>
<ellipse fill="none" stroke="black" cx="255.44" cy="-600.5" rx="27.5" ry="27.5"/>
<text text-anchor="middle" x="255.44" y="-596.3" font-family="Times,serif" font-size="14.00">38</text>
</g>
<!-- 38&#45;&gt;14 -->
<g id="edge55" class="edge">
<title>38&#45;&gt;14</title>
<path fill="none" stroke="black" d="M231.44,-586.44C220.46,-581.38 207.06,-577.61 194.79,-580.7 190.84,-581.7 186.85,-583.16 183.01,-584.87"/>
<polygon fill="black" stroke="black" points="181.61,-582.16 174.26,-589.79 184.76,-588.4 181.61,-582.16"/>
<text text-anchor="middle" x="202.36" y="-585.7" font-family="Times,serif" font-size="14.00">&#39;.&#39;</text>
</g>
<!-- 15 -->
<g id="node37" class="node">
<title>15</title>
<ellipse fill="none" stroke="black" cx="370.92" cy="-600.5" rx="23.5" ry="23.5"/>
<text text-anchor="middle" x="370.92" y="-596.3" font-family="Times,serif" font-size="14.00">15</text>
</g>
<!-- 38&#45;&gt;15 -->
<g id="edge56" class="edge">
<title>38&#45;&gt;15</title>
<path fill="none" stroke="black" d="M283.33,-600.5C299.25,-600.5 319.54,-600.5 336.48,-600.5"/>
<polygon fill="black" stroke="black" points="336.05,-604 346.05,-600.5 336.05,-597 336.05,-604"/>
<text text-anchor="middle" x="313.18" y="-604.7" font-family="Times,serif" font-size="14.00">&#39;:&#39;</text>
</g>
<!-- 39 -->
<g id="node17" class="node">
<title>39</title>
<ellipse fill="none" stroke="black" cx="477.08" cy="-600.5" rx="23.5" ry="23.5"/>
<ellipse fill="none" stroke="black" cx="477.08" cy="-600.5" rx="27.5" ry="27.5"/>
<text text-anchor="middle" x="477.08" y="-596.3" font-family="Times,serif" font-size="14.00">39</text>
</g>
<!-- 40 -->
<g id="node18" class="node">
<title>40</title>
<ellipse fill="none" stroke="black" cx="477.08" cy="-676.5" rx="23.5" ry="23.5"/>
<ellipse fill="none" stroke="black" cx="477.08" cy="-676.5" rx="27.5" ry="27.5"/>
<text text-anchor="middle" x="477.08" y="-672.3" font-family="Times,serif" font-size="14.00">40</text>
</g>
<!-- 18 -->
<g id="node40" class="node">
<title>18</title>
<ellipse fill="none" stroke="black" cx="370.92" cy="-675.5" rx="23.5" ry="23.5"/>
<text text-anchor="middle" x="370.92" y="-671.3" font-family="Times,serif" font-size="14.00">18</text>
</g>
<!-- 40&#45;&gt;18 -->
<g id="edge57" class="edge">
<title>40&#45;&gt;18</title>
<path fill="none" stroke="black" d="M449.29,-673.14C443.46,-672.54 437.32,-672.01 431.58,-671.7 423.07,-671.24 413.89,-671.47 405.34,-671.99"/>
<polygon fill="black" stroke="black" points="405.28,-668.56 395.58,-672.8 405.81,-675.54 405.28,-668.56"/>
<text text-anchor="middle" x="424" y="-676.7" font-family="Times,serif" font-size="14.00">&#39;,&#39;</text>
</g>
<!-- 41 -->
<g id="node19" class="node">
<title>41</title>
<ellipse fill="none" stroke="black" cx="255.44" cy="-778.5" rx="23.5" ry="23.5"/>
<ellipse fill="none" stroke="black" cx="255.44" cy="-778.5" rx="27.5" ry="27.5"/>
<text text-anchor="middle" x="255.44" y="-774.3" font-family="Times,serif" font-size="14.00">41</text>
</g>
<!-- 41&#45;&gt;19 -->
<g id="edge58" class="edge">
<title>41&#45;&gt;19</title>
<path fill="none" stroke="black" d="M231.76,-763.63C225.02,-759.97 217.42,-756.57 209.94,-754.7 201.43,-752.57 192.32,-753.91 183.98,-756.62"/>
<polygon fill="black" stroke="black" points="182.93,-753.67 174.94,-760.62 185.53,-760.17 182.93,-753.67"/>
<text text-anchor="middle" x="202.36" y="-759.7" font-family="Times,serif" font-size="14.00">&#39;,&#39;</text>
</g>
<!-- 42 -->
<g id="node20" class="node">
<title>42</title>
<ellipse fill="none" stroke="black" cx="477.08" cy="-834.5" rx="23.5" ry="23.5"/>
<ellipse fill="none" stroke="black" cx="477.08" cy="-834.5" rx="27.5" ry="27.5"/>
<text text-anchor="middle" x="477.08" y="-830.3" font-family="Times,serif" font-size="14.00">42</text>
</g>
<!-- 43 -->
<g id="node21" class="node">
<title>43</title>
<ellipse fill="none" stroke="black" cx="779.88" cy="-987.5" rx="23.5" ry="23.5"/>
<ellipse fill="none" stroke="black" cx="779.88" cy="-987.5" rx="27.5" ry="27.5"/>
<text text-anchor="middle" x="779.88" y="-983.3" font-family="Times,serif" font-size="14.00">43</text>
</g>
<!-- 44 -->
<g id="node22" class="node">
<title>44</title>
<ellipse fill="none" stroke="black" cx="477.08" cy="-1137.5" rx="23.5" ry="23.5"/>
<ellipse fill="none" stroke="black" cx="477.08" cy="-1137.5" rx="27.5" ry="27.5"/>
<text text-anchor="middle" x="477.08" y="-1133.3" font-family="Times,serif" font-size="14.00">44</text>
</g>
<!-- 1&#45;&gt;33 -->
<g id="edge3" class="edge">
<title>1&#45;&gt;33</title>
<path fill="none" stroke="black" d="M173.79,-1282.73C193.4,-1293.84 224.87,-1308.5 254.44,-1308.5 254.44,-1308.5 254.44,-1308.5 578.02,-1308.5 600.2,-1308.5 624.28,-1302.45 643.27,-1296.19"/>
<polygon fill="black" stroke="black" points="644.23,-1299.22 652.53,-1292.63 641.93,-1292.6 644.23,-1299.22"/>
<text text-anchor="middle" x="424" y="-1312.7" font-family="Times,serif" font-size="14.00">&#39;e&#39;</text>
</g>
<!-- 2 -->
<g id="node24" class="node">
<title>2</title>
<ellipse fill="none" stroke="black" cx="477.08" cy="-1256.5" rx="23.5" ry="23.5"/>
<text text-anchor="middle" x="477.08" y="-1252.3" font-family="Times,serif" font-size="14.00">2</text>
</g>
<!-- 1&#45;&gt;2 -->
<g id="edge1" class="edge">
<title>1&#45;&gt;2</title>
<path fill="none" stroke="black" d="M177.17,-1269.5C233.11,-1267.07 377,-1260.81 442.59,-1257.96"/>
<polygon fill="black" stroke="black" points="442.69,-1261.41 452.52,-1257.48 442.38,-1254.42 442.69,-1261.41"/>
<text text-anchor="middle" x="313.18" y="-1268.7" font-family="Times,serif" font-size="14.00">&#39;N&#39;</text>
</g>
<!-- 4 -->
<g id="node25" class="node">
<title>4</title>
<ellipse fill="none" stroke="black" cx="255.44" cy="-1218.5" rx="23.5" ry="23.5"/>
<text text-anchor="middle" x="255.44" y="-1214.3" font-family="Times,serif" font-size="14.00">4</text>
</g>
<!-- 1&#45;&gt;4 -->
<g id="edge2" class="edge">
<title>1&#45;&gt;4</title>
<path fill="none" stroke="black" d="M171.62,-1255.44C178.51,-1249.97 186.71,-1244.07 194.79,-1239.7 203.33,-1235.08 213.09,-1231.12 222.21,-1227.92"/>
<polygon fill="black" stroke="black" points="223.1,-1230.98 231.5,-1224.51 220.9,-1224.33 223.1,-1230.98"/>
<text text-anchor="middle" x="202.36" y="-1244.7" font-family="Times,serif" font-size="14.00">&#39;[&#39;</text>
</g>
<!-- 3 -->
<g id="node26" class="node">
<title>3</title>
<ellipse fill="none" stroke="black" cx="577.02" cy="-1256.5" rx="23.5" ry="23.5"/>
<text text-anchor="middle" x="577.02" y="-1252.3" font-family="Times,serif" font-size="14.00">3</text>
</g>
<!-- 2&#45;&gt;3 -->
<g id="edge4" class="edge">
<title>2&#45;&gt;3</title>
<path fill="none" stroke="black" d="M500.79,-1256.5C513.07,-1256.5 528.46,-1256.5 542.12,-1256.5"/>
<polygon fill="black" stroke="black" points="542.09,-1260 552.09,-1256.5 542.09,-1253 542.09,-1260"/>
<text text-anchor="middle" x="529.05" y="-1260.7" font-family="Times,serif" font-size="14.00">&#39;=&#39;</text>
</g>
<!-- 5 -->
<g id="node27" class="node">
<title>5</title>
<ellipse fill="none" stroke="black" cx="370.92" cy="-1218.5" rx="23.5" ry="23.5"/>
<text text-anchor="middle" x="370.92" y="-1214.3" font-family="Times,serif" font-size="14.00">5</text>
</g>
<!-- 4&#45;&gt;5 -->
<g id="edge6" class="edge">
<title>4&#45;&gt;5</title>
<path fill="none" stroke="black" d="M279.41,-1218.5C295.71,-1218.5 317.86,-1218.5 336.17,-1218.5"/>
<polygon fill="black" stroke="black" points="335.99,-1222 345.99,-1218.5 335.99,-1215 335.99,-1222"/>
<text text-anchor="middle" x="313.18" y="-1222.7" font-family="Times,serif" font-size="14.00">&#39;e&#39;</text>
</g>
<!-- 3&#45;&gt;33 -->
<g id="edge5" class="edge">
<title>3&#45;&gt;33</title>
<path fill="none" stroke="black" d="M600.24,-1262.27C612.46,-1265.44 627.92,-1269.45 641.84,-1273.07"/>
<polygon fill="black" stroke="black" points="640.55,-1276.61 651.11,-1275.73 642.31,-1269.83 640.55,-1276.61"/>
<text text-anchor="middle" x="626.09" y="-1274.7" font-family="Times,serif" font-size="14.00">&#39;e&#39;</text>
</g>
<!-- 5&#45;&gt;2 -->
<g id="edge7" class="edge">
<title>5&#45;&gt;2</title>
<path fill="none" stroke="black" d="M393.5,-1226.05C404.85,-1230.06 418.99,-1235.09 431.58,-1239.7 435.85,-1241.27 440.35,-1242.94 444.77,-1244.59"/>
<polygon fill="black" stroke="black" points="443.24,-1248.13 453.83,-1248.38 445.71,-1241.58 443.24,-1248.13"/>
<text text-anchor="middle" x="424" y="-1244.7" font-family="Times,serif" font-size="14.00">&#39;]&#39;</text>
</g>
<!-- 6&#45;&gt;34 -->
<g id="edge8" class="edge">
<title>6&#45;&gt;34</title>
<path fill="none" stroke="black" d="M176.94,-64.32C182.74,-65.17 188.98,-65.97 194.79,-66.5 242.08,-70.8 296.82,-72.09 332.34,-72.44"/>
<polygon fill="black" stroke="black" points="332.13,-75.94 342.16,-72.52 332.19,-68.94 332.13,-75.94"/>
<text text-anchor="middle" x="255.44" y="-75.7" font-family="Times,serif" font-size="14.00">&#39;$&#39;</text>
</g>
<!-- 6&#45;&gt;6 -->
<g id="edge10" class="edge">
<title>6&#45;&gt;6</title>
<path fill="none" stroke="black" d="M144.27,-82.7C143.28,-93 146.29,-102 153.29,-102 157.66,-102 160.47,-98.48 161.73,-93.33"/>
<polygon fill="black" stroke="black" points="165.26,-93.88 162.31,-83.7 158.27,-93.5 165.26,-93.88"/>
<text text-anchor="middle" x="153.29" y="-106.2" font-family="Times,serif" font-size="14.00">&#39;s&#39;</text>
</g>
<!-- 7 -->
<g id="node29" class="node">
<title>7</title>
<ellipse fill="none" stroke="black" cx="255.44" cy="-23.5" rx="23.5" ry="23.5"/>
<text text-anchor="middle" x="255.44" y="-19.3" font-family="Times,serif" font-size="14.00">7</text>
</g>
<!-- 6&#45;&gt;7 -->
<g id="edge9" class="edge">
<title>6&#45;&gt;7</title>
<path fill="none" stroke="black" d="M175.53,-52.65C189.24,-47.59 207.34,-40.9 222.74,-35.21"/>
<polygon fill="black" stroke="black" points="223.72,-38.21 231.89,-31.46 221.29,-31.65 223.72,-38.21"/>
<text text-anchor="middle" x="202.36" y="-49.7" font-family="Times,serif" font-size="14.00">&#39;r&#39;</text>
</g>
<!-- 7&#45;&gt;34 -->
<g id="edge11" class="edge">
<title>7&#45;&gt;34</title>
<path fill="none" stroke="black" d="M277.62,-32.35C291.29,-38.09 309.44,-45.76 325.42,-52.7 328.68,-54.11 332.07,-55.6 335.45,-57.09"/>
<polygon fill="black" stroke="black" points="333.91,-60.68 344.47,-61.53 336.75,-54.28 333.91,-60.68"/>
<text text-anchor="middle" x="313.18" y="-57.7" font-family="Times,serif" font-size="14.00">&#39;$&#39;</text>
</g>
<!-- 8&#45;&gt;35 -->
<g id="edge12" class="edge">
<title>8&#45;&gt;35</title>
<path fill="none" stroke="black" d="M174.55,-184.42C187.78,-190.88 205.36,-199.49 220.66,-206.97"/>
<polygon fill="black" stroke="black" points="218.8,-210.45 229.32,-211.7 221.88,-204.16 218.8,-210.45"/>
<text text-anchor="middle" x="202.36" y="-204.7" font-family="Times,serif" font-size="14.00">&#39;N&#39;</text>
</g>
<!-- 8&#45;&gt;9 -->
<g id="edge13" class="edge">
<title>8&#45;&gt;9</title>
<path fill="none" stroke="black" d="M177.24,-174.35C225.11,-174.49 338.86,-177.16 431.58,-197.5 435.7,-198.41 440.01,-199.49 444.25,-200.63"/>
<polygon fill="black" stroke="black" points="442.92,-204.18 453.5,-203.55 444.84,-197.45 442.92,-204.18"/>
<text text-anchor="middle" x="313.18" y="-185.7" font-family="Times,serif" font-size="14.00">&#39;a&#39;</text>
</g>
<!-- 9&#45;&gt;35 -->
<g id="edge14" class="edge">
<title>9&#45;&gt;35</title>
<path fill="none" stroke="black" d="M453.75,-206.19C438.29,-203.44 417.19,-200.12 398.42,-198.7 374.05,-196.86 367.63,-195.32 343.42,-198.7 326.11,-201.12 307.41,-206.12 291.8,-211.01"/>
<polygon fill="black" stroke="black" points="290.97,-207.92 282.54,-214.34 293.13,-214.58 290.97,-207.92"/>
<text text-anchor="middle" x="370.92" y="-203.7" font-family="Times,serif" font-size="14.00">&#39;N&#39;</text>
</g>
<!-- 10&#45;&gt;37 -->
<g id="edge15" class="edge">
<title>10&#45;&gt;37</title>
<path fill="none" stroke="black" d="M175.99,-507.05C182.03,-508.99 188.63,-510.96 194.79,-512.5 209.32,-516.13 213.07,-516.77 227.94,-518.5 303.25,-527.23 323.58,-536.59 398.42,-524.5 413.56,-522.05 429.37,-516.22 442.74,-510.19"/>
<polygon fill="black" stroke="black" points="443.9,-513.03 451.44,-505.59 440.91,-506.71 443.9,-513.03"/>
<text text-anchor="middle" x="313.18" y="-534.7" font-family="Times,serif" font-size="14.00">&#39;$&#39;</text>
</g>
<!-- 11 -->
<g id="node33" class="node">
<title>11</title>
<ellipse fill="none" stroke="black" cx="370.92" cy="-492.5" rx="23.5" ry="23.5"/>
<text text-anchor="middle" x="370.92" y="-488.3" font-family="Times,serif" font-size="14.00">11</text>
</g>
<!-- 10&#45;&gt;11 -->
<g id="edge16" class="edge">
<title>10&#45;&gt;11</title>
<path fill="none" stroke="black" d="M176.96,-498.76C215.05,-497.53 292.1,-495.03 336.44,-493.59"/>
<polygon fill="black" stroke="black" points="336.35,-497.06 346.23,-493.24 336.12,-490.06 336.35,-497.06"/>
<text text-anchor="middle" x="255.44" y="-501.7" font-family="Times,serif" font-size="14.00">&#39;;&#39;</text>
</g>
<!-- 12 -->
<g id="node34" class="node">
<title>12</title>
<ellipse fill="none" stroke="black" cx="255.44" cy="-434.5" rx="23.5" ry="23.5"/>
<text text-anchor="middle" x="255.44" y="-430.3" font-family="Times,serif" font-size="14.00">12</text>
</g>
<!-- 10&#45;&gt;12 -->
<g id="edge17" class="edge">
<title>10&#45;&gt;12</title>
<path fill="none" stroke="black" d="M172.07,-485.19C179.01,-479.81 187.13,-473.78 194.79,-468.7 204.34,-462.37 215.12,-455.98 224.86,-450.46"/>
<polygon fill="black" stroke="black" points="226.14,-453.19 233.17,-445.27 222.73,-447.08 226.14,-453.19"/>
<text text-anchor="middle" x="202.36" y="-473.7" font-family="Times,serif" font-size="14.00">&#39;e&#39;</text>
</g>
<!-- 11&#45;&gt;37 -->
<g id="edge18" class="edge">
<title>11&#45;&gt;37</title>
<path fill="none" stroke="black" d="M394.78,-492.5C407.57,-492.5 423.83,-492.5 438.45,-492.5"/>
<polygon fill="black" stroke="black" points="438.22,-496 448.22,-492.5 438.22,-489 438.22,-496"/>
<text text-anchor="middle" x="424" y="-496.7" font-family="Times,serif" font-size="14.00">&#39;$&#39;</text>
</g>
<!-- 12&#45;&gt;37 -->
<g id="edge19" class="edge">
<title>12&#45;&gt;37</title>
<path fill="none" stroke="black" d="M279.22,-432.33C307.82,-430.39 358.03,-429.58 398.42,-442.7 415.79,-448.34 433.09,-458.84 446.94,-468.74"/>
<polygon fill="black" stroke="black" points="444.4,-471.95 454.51,-475.11 448.57,-466.34 444.4,-471.95"/>
<text text-anchor="middle" x="370.92" y="-447.7" font-family="Times,serif" font-size="14.00">&#39;$&#39;</text>
</g>
<!-- 12&#45;&gt;11 -->
<g id="edge21" class="edge">
<title>12&#45;&gt;11</title>
<path fill="none" stroke="black" d="M277.05,-444.51C290.8,-451.24 309.26,-460.37 325.42,-468.7 330.14,-471.13 335.11,-473.74 339.96,-476.31"/>
<polygon fill="black" stroke="black" points="338.14,-479.84 348.61,-481.47 341.44,-473.67 338.14,-479.84"/>
<text text-anchor="middle" x="313.18" y="-473.7" font-family="Times,serif" font-size="14.00">&#39;;&#39;</text>
</g>
<!-- 13 -->
<g id="node35" class="node">
<title>13</title>
<ellipse fill="none" stroke="black" cx="370.92" cy="-368.5" rx="23.5" ry="23.5"/>
<text text-anchor="middle" x="370.92" y="-364.3" font-family="Times,serif" font-size="14.00">13</text>
</g>
<!-- 12&#45;&gt;13 -->
<g id="edge20" class="edge">
<title>12&#45;&gt;13</title>
<path fill="none" stroke="black" d="M274.7,-421.05C282.61,-415.43 292.07,-409 300.94,-403.7 313.2,-396.37 327.17,-389.06 339.31,-383.02"/>
<polygon fill="black" stroke="black" points="340.57,-385.81 348.01,-378.27 337.49,-379.53 340.57,-385.81"/>
<text text-anchor="middle" x="313.18" y="-408.7" font-family="Times,serif" font-size="14.00">&#39;,&#39;</text>
</g>
<!-- 13&#45;&gt;12 -->
<g id="edge22" class="edge">
<title>13&#45;&gt;12</title>
<path fill="none" stroke="black" d="M347.49,-363.88C333.32,-362.13 315.08,-362.1 300.94,-369.7 287.44,-376.96 277.21,-390.33 269.99,-403.05"/>
<polygon fill="black" stroke="black" points="266.57,-401.05 265.05,-411.53 272.78,-404.28 266.57,-401.05"/>
<text text-anchor="middle" x="313.18" y="-374.7" font-family="Times,serif" font-size="14.00">&#39;e&#39;</text>
</g>
<!-- 14&#45;&gt;38 -->
<g id="edge23" class="edge">
<title>14&#45;&gt;38</title>
<path fill="none" stroke="black" d="M177.01,-602.05C188.74,-601.81 203.34,-601.52 216.7,-601.25"/>
<polygon fill="black" stroke="black" points="216.61,-604.74 226.54,-601.04 216.47,-597.74 216.61,-604.74"/>
<text text-anchor="middle" x="202.36" y="-606.7" font-family="Times,serif" font-size="14.00">&#39;N&#39;</text>
</g>
<!-- 15&#45;&gt;39 -->
<g id="edge24" class="edge">
<title>15&#45;&gt;39</title>
<path fill="none" stroke="black" d="M394.78,-600.5C407.57,-600.5 423.83,-600.5 438.45,-600.5"/>
<polygon fill="black" stroke="black" points="438.22,-604 448.22,-600.5 438.22,-597 438.22,-604"/>
<text text-anchor="middle" x="424" y="-604.7" font-family="Times,serif" font-size="14.00">&#39;N&#39;</text>
</g>
<!-- 17 -->
<g id="node39" class="node">
<title>17</title>
<ellipse fill="none" stroke="black" cx="255.44" cy="-675.5" rx="23.5" ry="23.5"/>
<text text-anchor="middle" x="255.44" y="-671.3" font-family="Times,serif" font-size="14.00">17</text>
</g>
<!-- 16&#45;&gt;17 -->
<g id="edge25" class="edge">
<title>16&#45;&gt;17</title>
<path fill="none" stroke="black" d="M176.42,-680.33C182.34,-681.64 188.77,-682.84 194.79,-683.5 203.55,-684.46 213.02,-683.92 221.77,-682.76"/>
<polygon fill="black" stroke="black" points="222.07,-686.1 231.37,-681.03 220.94,-679.19 222.07,-686.1"/>
<text text-anchor="middle" x="202.36" y="-688.7" font-family="Times,serif" font-size="14.00">&#39;v&#39;</text>
</g>
<!-- 17&#45;&gt;16 -->
<g id="edge26" class="edge">
<title>17&#45;&gt;16</title>
<path fill="none" stroke="black" d="M233.03,-667.15C221.73,-663.7 207.58,-660.87 194.79,-662.7 192.06,-663.09 189.26,-663.62 186.46,-664.24"/>
<polygon fill="black" stroke="black" points="185.7,-661.08 176.9,-666.98 187.46,-667.86 185.7,-661.08"/>
<text text-anchor="middle" x="202.36" y="-667.7" font-family="Times,serif" font-size="14.00">&#39;,&#39;</text>
</g>
<!-- 17&#45;&gt;18 -->
<g id="edge27" class="edge">
<title>17&#45;&gt;18</title>
<path fill="none" stroke="black" d="M279.41,-675.5C295.71,-675.5 317.86,-675.5 336.17,-675.5"/>
<polygon fill="black" stroke="black" points="335.99,-679 345.99,-675.5 335.99,-672 335.99,-679"/>
<text text-anchor="middle" x="313.18" y="-679.7" font-family="Times,serif" font-size="14.00">&#39;=&#39;</text>
</g>
<!-- 18&#45;&gt;40 -->
<g id="edge28" class="edge">
<title>18&#45;&gt;40</title>
<path fill="none" stroke="black" d="M392.74,-685.25C400.06,-688.19 408.45,-691.03 416.42,-692.5 424.63,-694.02 433.37,-693.13 441.55,-691.16"/>
<polygon fill="black" stroke="black" points="442.32,-694.28 450.9,-688.06 440.31,-687.58 442.32,-694.28"/>
<text text-anchor="middle" x="424" y="-697.7" font-family="Times,serif" font-size="14.00">&#39;e&#39;</text>
</g>
<!-- 19&#45;&gt;41 -->
<g id="edge29" class="edge">
<title>19&#45;&gt;41</title>
<path fill="none" stroke="black" d="M177.01,-773.86C188.74,-774.56 203.34,-775.44 216.7,-776.24"/>
<polygon fill="black" stroke="black" points="216.35,-779.78 226.54,-776.89 216.77,-772.8 216.35,-779.78"/>
<text text-anchor="middle" x="202.36" y="-780.7" font-family="Times,serif" font-size="14.00">&#39;e&#39;</text>
</g>
<!-- 21 -->
<g id="node43" class="node">
<title>21</title>
<ellipse fill="none" stroke="black" cx="255.44" cy="-860.5" rx="23.5" ry="23.5"/>
<text text-anchor="middle" x="255.44" y="-856.3" font-family="Times,serif" font-size="14.00">21</text>
</g>
<!-- 20&#45;&gt;21 -->
<g id="edge30" class="edge">
<title>20&#45;&gt;21</title>
<path fill="none" stroke="black" d="M177.01,-860.5C189.86,-860.5 206.16,-860.5 220.49,-860.5"/>
<polygon fill="black" stroke="black" points="220.46,-864 230.46,-860.5 220.46,-857 220.46,-864"/>
<text text-anchor="middle" x="202.36" y="-864.7" font-family="Times,serif" font-size="14.00">&#39;(&#39;</text>
</g>
<!-- 21&#45;&gt;42 -->
<g id="edge31" class="edge">
<title>21&#45;&gt;42</title>
<path fill="none" stroke="black" d="M279.15,-858.39C312.59,-855.2 377.01,-848.75 431.58,-841.5 433.97,-841.18 436.43,-840.84 438.92,-840.48"/>
<polygon fill="black" stroke="black" points="439.38,-843.8 448.75,-838.85 438.34,-836.88 439.38,-843.8"/>
<text text-anchor="middle" x="370.92" y="-856.7" font-family="Times,serif" font-size="14.00">&#39;)&#39;</text>
</g>
<!-- 22 -->
<g id="node44" class="node">
<title>22</title>
<ellipse fill="none" stroke="black" cx="370.92" cy="-800.5" rx="23.5" ry="23.5"/>
<text text-anchor="middle" x="370.92" y="-796.3" font-family="Times,serif" font-size="14.00">22</text>
</g>
<!-- 21&#45;&gt;22 -->
<g id="edge32" class="edge">
<title>21&#45;&gt;22</title>
<path fill="none" stroke="black" d="M276.29,-849.23C283.96,-844.93 292.83,-840.03 300.94,-835.7 313.54,-828.98 327.57,-821.77 339.66,-815.64"/>
<polygon fill="black" stroke="black" points="340.94,-818.41 348.29,-810.78 337.79,-812.16 340.94,-818.41"/>
<text text-anchor="middle" x="313.18" y="-840.7" font-family="Times,serif" font-size="14.00">&#39;e&#39;</text>
</g>
<!-- 22&#45;&gt;42 -->
<g id="edge33" class="edge">
<title>22&#45;&gt;42</title>
<path fill="none" stroke="black" d="M393.76,-807.63C407.23,-812.03 424.84,-817.77 440.31,-822.82"/>
<polygon fill="black" stroke="black" points="439.01,-826.41 449.6,-826.18 441.18,-819.75 439.01,-826.41"/>
<text text-anchor="middle" x="424" y="-824.7" font-family="Times,serif" font-size="14.00">&#39;)&#39;</text>
</g>
<!-- 23 -->
<g id="node45" class="node">
<title>23</title>
<ellipse fill="none" stroke="black" cx="477.08" cy="-759.5" rx="23.5" ry="23.5"/>
<text text-anchor="middle" x="477.08" y="-755.3" font-family="Times,serif" font-size="14.00">23</text>
</g>
<!-- 22&#45;&gt;23 -->
<g id="edge34" class="edge">
<title>22&#45;&gt;23</title>
<path fill="none" stroke="black" d="M393.25,-792.1C408.13,-786.24 428.24,-778.33 444.91,-771.77"/>
<polygon fill="black" stroke="black" points="445.75,-774.8 453.78,-767.88 443.19,-768.29 445.75,-774.8"/>
<text text-anchor="middle" x="424" y="-786.7" font-family="Times,serif" font-size="14.00">&#39;,&#39;</text>
</g>
<!-- 23&#45;&gt;22 -->
<g id="edge35" class="edge">
<title>23&#45;&gt;22</title>
<path fill="none" stroke="black" d="M453.79,-754.65C442.24,-753.16 428.15,-752.98 416.42,-757.7 407.56,-761.27 399.48,-767.54 392.7,-774.2"/>
<polygon fill="black" stroke="black" points="390.64,-771.36 386.38,-781.06 395.76,-776.13 390.64,-771.36"/>
<text text-anchor="middle" x="424" y="-762.7" font-family="Times,serif" font-size="14.00">&#39;e&#39;</text>
</g>
<!-- 25 -->
<g id="node47" class="node">
<title>25</title>
<ellipse fill="none" stroke="black" cx="255.44" cy="-1007.5" rx="23.5" ry="23.5"/>
<text text-anchor="middle" x="255.44" y="-1003.3" font-family="Times,serif" font-size="14.00">25</text>
</g>
<!-- 24&#45;&gt;25 -->
<g id="edge36" class="edge">
<title>24&#45;&gt;25</title>
<path fill="none" stroke="black" d="M177.01,-1007.5C189.86,-1007.5 206.16,-1007.5 220.49,-1007.5"/>
<polygon fill="black" stroke="black" points="220.46,-1011 230.46,-1007.5 220.46,-1004 220.46,-1011"/>
<text text-anchor="middle" x="202.36" y="-1011.7" font-family="Times,serif" font-size="14.00">&#39;(&#39;</text>
</g>
<!-- 25&#45;&gt;43 -->
<g id="edge37" class="edge">
<title>25&#45;&gt;43</title>
<path fill="none" stroke="black" d="M276.16,-1019.36C298.21,-1031.47 335.36,-1048.5 369.92,-1048.5 369.92,-1048.5 369.92,-1048.5 680.17,-1048.5 707.77,-1048.5 734.11,-1031.03 752.62,-1014.78"/>
<polygon fill="black" stroke="black" points="754.57,-1017.82 759.55,-1008.47 749.83,-1012.68 754.57,-1017.82"/>
<text text-anchor="middle" x="529.05" y="-1052.7" font-family="Times,serif" font-size="14.00">&#39;)&#39;</text>
</g>
<!-- 26 -->
<g id="node48" class="node">
<title>26</title>
<ellipse fill="none" stroke="black" cx="577.02" cy="-982.5" rx="23.5" ry="23.5"/>
<text text-anchor="middle" x="577.02" y="-978.3" font-family="Times,serif" font-size="14.00">26</text>
</g>
<!-- 25&#45;&gt;26 -->
<g id="edge38" class="edge">
<title>25&#45;&gt;26</title>
<path fill="none" stroke="black" d="M279.38,-1007.72C327.26,-1007.87 441.21,-1006.55 535.52,-992.5 538.06,-992.12 540.67,-991.66 543.28,-991.14"/>
<polygon fill="black" stroke="black" points="543.89,-994.36 552.89,-988.76 542.36,-987.53 543.89,-994.36"/>
<text text-anchor="middle" x="424" y="-1008.7" font-family="Times,serif" font-size="14.00">&#39;.&#39;</text>
</g>
<!-- 28 -->
<g id="node49" class="node">
<title>28</title>
<ellipse fill="none" stroke="black" cx="370.92" cy="-941.5" rx="23.5" ry="23.5"/>
<text text-anchor="middle" x="370.92" y="-937.3" font-family="Times,serif" font-size="14.00">28</text>
</g>
<!-- 25&#45;&gt;28 -->
<g id="edge39" class="edge">
<title>25&#45;&gt;28</title>
<path fill="none" stroke="black" d="M274.7,-994.05C282.61,-988.43 292.07,-982 300.94,-976.7 313.2,-969.37 327.17,-962.06 339.31,-956.02"/>
<polygon fill="black" stroke="black" points="340.57,-958.81 348.01,-951.27 337.49,-952.53 340.57,-958.81"/>
<text text-anchor="middle" x="313.18" y="-981.7" font-family="Times,serif" font-size="14.00">&#39;N&#39;</text>
</g>
<!-- 26&#45;&gt;43 -->
<g id="edge40" class="edge">
<title>26&#45;&gt;43</title>
<path fill="none" stroke="black" d="M600.68,-985.76C606.48,-986.47 612.72,-987.12 618.52,-987.5 660.51,-990.28 708.83,-989.78 741.36,-988.9"/>
<polygon fill="black" stroke="black" points="741.28,-992.37 751.17,-988.58 741.07,-985.38 741.28,-992.37"/>
<text text-anchor="middle" x="679.17" y="-994.7" font-family="Times,serif" font-size="14.00">&#39;)&#39;</text>
</g>
<!-- 27 -->
<g id="node50" class="node">
<title>27</title>
<ellipse fill="none" stroke="black" cx="679.17" cy="-943.5" rx="23.5" ry="23.5"/>
<text text-anchor="middle" x="679.17" y="-939.3" font-family="Times,serif" font-size="14.00">27</text>
</g>
<!-- 26&#45;&gt;27 -->
<g id="edge41" class="edge">
<title>26&#45;&gt;27</title>
<path fill="none" stroke="black" d="M599.26,-974.23C613.07,-968.85 631.32,-961.75 646.79,-955.72"/>
<polygon fill="black" stroke="black" points="647.91,-958.65 655.96,-951.76 645.37,-952.13 647.91,-958.65"/>
<text text-anchor="middle" x="626.09" y="-970.7" font-family="Times,serif" font-size="14.00">&#39;N&#39;</text>
</g>
<!-- 28&#45;&gt;43 -->
<g id="edge43" class="edge">
<title>28&#45;&gt;43</title>
<path fill="none" stroke="black" d="M389.86,-926.77C409.69,-912.02 443.18,-891.5 476.08,-891.5 476.08,-891.5 476.08,-891.5 680.17,-891.5 716.74,-891.5 744.85,-925.77 761.55,-953.36"/>
<polygon fill="black" stroke="black" points="758.95,-954.86 766.98,-961.78 765.02,-951.37 758.95,-954.86"/>
<text text-anchor="middle" x="577.02" y="-895.7" font-family="Times,serif" font-size="14.00">&#39;)&#39;</text>
</g>
<!-- 29 -->
<g id="node51" class="node">
<title>29</title>
<ellipse fill="none" stroke="black" cx="477.08" cy="-955.5" rx="23.5" ry="23.5"/>
<text text-anchor="middle" x="477.08" y="-951.3" font-family="Times,serif" font-size="14.00">29</text>
</g>
<!-- 28&#45;&gt;29 -->
<g id="edge44" class="edge">
<title>28&#45;&gt;29</title>
<path fill="none" stroke="black" d="M394.52,-944.54C408.58,-946.43 426.91,-948.89 442.63,-951"/>
<polygon fill="black" stroke="black" points="442.14,-954.6 452.52,-952.47 443.08,-947.67 442.14,-954.6"/>
<text text-anchor="middle" x="424" y="-953.7" font-family="Times,serif" font-size="14.00">&#39;,&#39;</text>
</g>
<!-- 27&#45;&gt;43 -->
<g id="edge42" class="edge">
<title>27&#45;&gt;43</title>
<path fill="none" stroke="black" d="M701.11,-952.83C713.8,-958.49 730.29,-965.84 744.82,-972.32"/>
<polygon fill="black" stroke="black" points="742.94,-975.76 753.5,-976.63 745.79,-969.36 742.94,-975.76"/>
<text text-anchor="middle" x="729.53" y="-971.7" font-family="Times,serif" font-size="14.00">&#39;)&#39;</text>
</g>
<!-- 29&#45;&gt;26 -->
<g id="edge45" class="edge">
<title>29&#45;&gt;26</title>
<path fill="none" stroke="black" d="M499.81,-961.49C512.66,-965.03 529.17,-969.58 543.53,-973.54"/>
<polygon fill="black" stroke="black" points="542.43,-977.15 553,-976.43 544.29,-970.4 542.43,-977.15"/>
<text text-anchor="middle" x="529.05" y="-975.7" font-family="Times,serif" font-size="14.00">&#39;.&#39;</text>
</g>
<!-- 29&#45;&gt;28 -->
<g id="edge46" class="edge">
<title>29&#45;&gt;28</title>
<path fill="none" stroke="black" d="M458.14,-941.09C450.43,-935.78 441.03,-930.41 431.58,-927.7 422.32,-925.05 412.15,-926 402.87,-928.34"/>
<polygon fill="black" stroke="black" points="401.99,-925.26 393.49,-931.58 404.08,-931.94 401.99,-925.26"/>
<text text-anchor="middle" x="424" y="-932.7" font-family="Times,serif" font-size="14.00">&#39;N&#39;</text>
</g>
<!-- 31 -->
<g id="node53" class="node">
<title>31</title>
<ellipse fill="none" stroke="black" cx="255.44" cy="-1128.5" rx="23.5" ry="23.5"/>
<text text-anchor="middle" x="255.44" y="-1124.3" font-family="Times,serif" font-size="14.00">31</text>
</g>
<!-- 30&#45;&gt;31 -->
<g id="edge47" class="edge">
<title>30&#45;&gt;31</title>
<path fill="none" stroke="black" d="M177.01,-1128.5C189.86,-1128.5 206.16,-1128.5 220.49,-1128.5"/>
<polygon fill="black" stroke="black" points="220.46,-1132 230.46,-1128.5 220.46,-1125 220.46,-1132"/>
<text text-anchor="middle" x="202.36" y="-1132.7" font-family="Times,serif" font-size="14.00">&#39;{&#39;</text>
</g>
<!-- 31&#45;&gt;44 -->
<g id="edge49" class="edge">
<title>31&#45;&gt;44</title>
<path fill="none" stroke="black" d="M278.48,-1134.31C285.6,-1135.95 293.56,-1137.55 300.94,-1138.5 358.55,-1145.91 373.58,-1145.75 431.58,-1142.5 433.97,-1142.37 436.44,-1142.19 438.92,-1141.99"/>
<polygon fill="black" stroke="black" points="439.14,-1145.39 448.76,-1140.95 438.48,-1138.42 439.14,-1145.39"/>
<text text-anchor="middle" x="370.92" y="-1149.7" font-family="Times,serif" font-size="14.00">&#39;}&#39;</text>
</g>
<!-- 32 -->
<g id="node54" class="node">
<title>32</title>
<ellipse fill="none" stroke="black" cx="370.92" cy="-1100.5" rx="23.5" ry="23.5"/>
<text text-anchor="middle" x="370.92" y="-1096.3" font-family="Times,serif" font-size="14.00">32</text>
</g>
<!-- 31&#45;&gt;32 -->
<g id="edge48" class="edge">
<title>31&#45;&gt;32</title>
<path fill="none" stroke="black" d="M278.59,-1123.03C295.31,-1118.91 318.5,-1113.19 337.33,-1108.54"/>
<polygon fill="black" stroke="black" points="337.96,-1111.75 346.83,-1105.95 336.28,-1104.95 337.96,-1111.75"/>
<text text-anchor="middle" x="313.18" y="-1121.7" font-family="Times,serif" font-size="14.00">&#39;f&#39;</text>
</g>
<!-- 32&#45;&gt;44 -->
<g id="edge51" class="edge">
<title>32&#45;&gt;44</title>
<path fill="none" stroke="black" d="M393.5,-1108.17C407.19,-1113.03 425.21,-1119.43 440.93,-1125.01"/>
<polygon fill="black" stroke="black" points="439.26,-1128.49 449.86,-1128.54 441.6,-1121.89 439.26,-1128.49"/>
<text text-anchor="middle" x="424" y="-1125.7" font-family="Times,serif" font-size="14.00">&#39;}&#39;</text>
</g>
<!-- 32&#45;&gt;31 -->
<g id="edge50" class="edge">
<title>32&#45;&gt;31</title>
<path fill="none" stroke="black" d="M348.54,-1092.76C334.62,-1088.93 316.28,-1086.18 300.94,-1091.7 293.29,-1094.45 286.02,-1099.16 279.66,-1104.3"/>
<polygon fill="black" stroke="black" points="277.76,-1101.19 272.59,-1110.44 282.4,-1106.43 277.76,-1101.19"/>
<text text-anchor="middle" x="313.18" y="-1096.7" font-family="Times,serif" font-size="14.00">&#39;,&#39;, &#39;;&#39;</text>
</g>
</g>
</svg>
