<?xml version="1.0" encoding="UTF-8" standalone="no"?>
<!DOCTYPE svg PUBLIC "-//W3C//DTD SVG 1.1//EN"
 "http://www.w3.org/Graphics/SVG/1.1/DTD/svg11.dtd">
<!-- Generated by graphviz version 8.0.3 (20230416.2022)
 -->
<!-- Title: syntax Pages: 1 -->
<svg width="696pt" height="422pt"
 viewBox="0.00 0.00 695.99 422.30" xmlns="http://www.w3.org/2000/svg" xmlns:xlink="http://www.w3.org/1999/xlink">
<g id="graph0" class="graph" transform="scale(1 1) rotate(0) translate(4 418.3)">
<title>syntax</title>
<polygon fill="white" stroke="none" points="-4,4 -4,-418.3 691.99,-418.3 691.99,4 -4,4"/>
<!-- en_6 -->
<g id="node1" class="node">
<title>en_6</title>
<ellipse fill="black" stroke="black" cx="1.8" cy="-36.5" rx="1.8" ry="1.8"/>
</g>
<!-- 6 -->
<g id="node14" class="node">
<title>6</title>
<ellipse fill="none" stroke="black" cx="153.29" cy="-36.5" rx="23.5" ry="23.5"/>
<text text-anchor="middle" x="153.29" y="-32.3" font-family="Times,serif" font-size="14.00">6</text>
</g>
<!-- en_6&#45;&gt;6 -->
<g id="edge21" class="edge">
<title>en_6&#45;&gt;6</title>
<path fill="none" stroke="black" d="M4.09,-36.5C13.95,-36.5 77.99,-36.5 118.6,-36.5"/>
<polygon fill="black" stroke="black" points="118.36,-40 128.36,-36.5 118.36,-33 118.36,-40"/>
<text text-anchor="middle" x="66.69" y="-40.7" font-family="Times,serif" font-size="14.00">explist</text>
</g>
<!-- en_7 -->
<g id="node2" class="node">
<title>en_7</title>
<ellipse fill="black" stroke="black" cx="1.8" cy="-108.5" rx="1.8" ry="1.8"/>
</g>
<!-- 7 -->
<g id="node15" class="node">
<title>7</title>
<ellipse fill="none" stroke="black" cx="153.29" cy="-108.5" rx="23.5" ry="23.5"/>
<text text-anchor="middle" x="153.29" y="-104.3" font-family="Times,serif" font-size="14.00">7</text>
</g>
<!-- en_7&#45;&gt;7 -->
<g id="edge22" class="edge">
<title>en_7&#45;&gt;7</title>
<path fill="none" stroke="black" d="M4.09,-108.5C13.95,-108.5 77.99,-108.5 118.6,-108.5"/>
<polygon fill="black" stroke="black" points="118.36,-112 128.36,-108.5 118.36,-105 118.36,-112"/>
<text text-anchor="middle" x="66.69" y="-112.7" font-family="Times,serif" font-size="14.00">args</text>
</g>
<!-- en_11 -->
<g id="node3" class="node">
<title>en_11</title>
<ellipse fill="black" stroke="black" cx="1.8" cy="-217.5" rx="1.8" ry="1.8"/>
</g>
<!-- 11 -->
<g id="node19" class="node">
<title>11</title>
<ellipse fill="none" stroke="black" cx="153.29" cy="-217.5" rx="23.5" ry="23.5"/>
<text text-anchor="middle" x="153.29" y="-213.3" font-family="Times,serif" font-size="14.00">11</text>
</g>
<!-- en_11&#45;&gt;11 -->
<g id="edge23" class="edge">
<title>en_11&#45;&gt;11</title>
<path fill="none" stroke="black" d="M4.09,-217.5C13.95,-217.5 77.99,-217.5 118.6,-217.5"/>
<polygon fill="black" stroke="black" points="118.36,-221 128.36,-217.5 118.36,-214 118.36,-221"/>
<text text-anchor="middle" x="66.69" y="-221.7" font-family="Times,serif" font-size="14.00">tableconstructor</text>
</g>
<!-- en_1 -->
<g id="node4" class="node">
<title>en_1</title>
<ellipse fill="black" stroke="black" cx="1.8" cy="-359.5" rx="1.8" ry="1.8"/>
</g>
<!-- 1 -->
<g id="node9" class="node">
<title>1</title>
<ellipse fill="none" stroke="black" cx="153.29" cy="-359.5" rx="23.5" ry="23.5"/>
<text text-anchor="middle" x="153.29" y="-355.3" font-family="Times,serif" font-size="14.00">1</text>
</g>
<!-- en_1&#45;&gt;1 -->
<g id="edge24" class="edge">
<title>en_1&#45;&gt;1</title>
<path fill="none" stroke="black" d="M4.09,-359.5C13.95,-359.5 77.99,-359.5 118.6,-359.5"/>
<polygon fill="black" stroke="black" points="118.36,-363 128.36,-359.5 118.36,-356 118.36,-363"/>
<text text-anchor="middle" x="66.69" y="-363.7" font-family="Times,serif" font-size="14.00">field</text>
</g>
<!-- 14 -->
<g id="node5" class="node">
<title>14</title>
<ellipse fill="none" stroke="black" cx="660.49" cy="-371.5" rx="23.5" ry="23.5"/>
<ellipse fill="none" stroke="black" cx="660.49" cy="-371.5" rx="27.5" ry="27.5"/>
<text text-anchor="middle" x="660.49" y="-367.3" font-family="Times,serif" font-size="14.00">14</text>
</g>
<!-- 15 -->
<g id="node6" class="node">
<title>15</title>
<ellipse fill="none" stroke="black" cx="252.05" cy="-27.5" rx="23.5" ry="23.5"/>
<ellipse fill="none" stroke="black" cx="252.05" cy="-27.5" rx="27.5" ry="27.5"/>
<text text-anchor="middle" x="252.05" y="-23.3" font-family="Times,serif" font-size="14.00">15</text>
</g>
<!-- 15&#45;&gt;6 -->
<g id="edge20" class="edge">
<title>15&#45;&gt;6</title>
<path fill="none" stroke="black" d="M227.23,-14.89C217.21,-11.12 205.43,-8.7 194.79,-11.7 190.41,-12.93 186.04,-14.78 181.88,-16.93"/>
<polygon fill="black" stroke="black" points="180.51,-14.26 173.64,-22.33 184.04,-20.31 180.51,-14.26"/>
<text text-anchor="middle" x="200.67" y="-16.7" font-family="Times,serif" font-size="14.00">&#39;,&#39;</text>
</g>
<!-- 16 -->
<g id="node7" class="node">
<title>16</title>
<ellipse fill="none" stroke="black" cx="462.3" cy="-130.5" rx="23.5" ry="23.5"/>
<ellipse fill="none" stroke="black" cx="462.3" cy="-130.5" rx="27.5" ry="27.5"/>
<text text-anchor="middle" x="462.3" y="-126.3" font-family="Times,serif" font-size="14.00">16</text>
</g>
<!-- 17 -->
<g id="node8" class="node">
<title>17</title>
<ellipse fill="none" stroke="black" cx="462.3" cy="-226.5" rx="23.5" ry="23.5"/>
<ellipse fill="none" stroke="black" cx="462.3" cy="-226.5" rx="27.5" ry="27.5"/>
<text text-anchor="middle" x="462.3" y="-222.3" font-family="Times,serif" font-size="14.00">17</text>
</g>
<!-- 1&#45;&gt;14 -->
<g id="edge3" class="edge">
<title>1&#45;&gt;14</title>
<path fill="none" stroke="black" d="M173.43,-371.94C192.36,-383.03 222.53,-397.5 251.05,-397.5 251.05,-397.5 251.05,-397.5 563.24,-397.5 583.98,-397.5 606.39,-391.8 624.36,-385.75"/>
<polygon fill="black" stroke="black" points="625.41,-388.73 633.66,-382.08 623.06,-382.14 625.41,-388.73"/>
<text text-anchor="middle" x="410.91" y="-401.7" font-family="Times,serif" font-size="14.00">&#39;e&#39;</text>
</g>
<!-- 2 -->
<g id="node10" class="node">
<title>2</title>
<ellipse fill="none" stroke="black" cx="462.3" cy="-345.5" rx="23.5" ry="23.5"/>
<text text-anchor="middle" x="462.3" y="-341.3" font-family="Times,serif" font-size="14.00">2</text>
</g>
<!-- 1&#45;&gt;2 -->
<g id="edge1" class="edge">
<title>1&#45;&gt;2</title>
<path fill="none" stroke="black" d="M177.11,-358.46C230.62,-356.02 364.36,-349.92 427.41,-347.05"/>
<polygon fill="black" stroke="black" points="427.49,-350.5 437.32,-346.55 427.17,-343.51 427.49,-350.5"/>
<text text-anchor="middle" x="309.79" y="-356.7" font-family="Times,serif" font-size="14.00">&#39;N&#39;</text>
</g>
<!-- 4 -->
<g id="node11" class="node">
<title>4</title>
<ellipse fill="none" stroke="black" cx="252.05" cy="-307.5" rx="23.5" ry="23.5"/>
<text text-anchor="middle" x="252.05" y="-303.3" font-family="Times,serif" font-size="14.00">4</text>
</g>
<!-- 1&#45;&gt;4 -->
<g id="edge2" class="edge">
<title>1&#45;&gt;4</title>
<path fill="none" stroke="black" d="M171.66,-344.52C178.56,-339.06 186.75,-333.15 194.79,-328.7 202.28,-324.55 210.75,-320.89 218.8,-317.82"/>
<polygon fill="black" stroke="black" points="219.8,-320.82 228.03,-314.14 217.43,-314.23 219.8,-320.82"/>
<text text-anchor="middle" x="200.67" y="-333.7" font-family="Times,serif" font-size="14.00">&#39;[&#39;</text>
</g>
<!-- 3 -->
<g id="node12" class="node">
<title>3</title>
<ellipse fill="none" stroke="black" cx="562.24" cy="-345.5" rx="23.5" ry="23.5"/>
<text text-anchor="middle" x="562.24" y="-341.3" font-family="Times,serif" font-size="14.00">3</text>
</g>
<!-- 2&#45;&gt;3 -->
<g id="edge4" class="edge">
<title>2&#45;&gt;3</title>
<path fill="none" stroke="black" d="M486.01,-345.5C498.28,-345.5 513.68,-345.5 527.34,-345.5"/>
<polygon fill="black" stroke="black" points="527.3,-349 537.3,-345.5 527.3,-342 527.3,-349"/>
<text text-anchor="middle" x="514.27" y="-349.7" font-family="Times,serif" font-size="14.00">&#39;=&#39;</text>
</g>
<!-- 5 -->
<g id="node13" class="node">
<title>5</title>
<ellipse fill="none" stroke="black" cx="363.53" cy="-307.5" rx="23.5" ry="23.5"/>
<text text-anchor="middle" x="363.53" y="-303.3" font-family="Times,serif" font-size="14.00">5</text>
</g>
<!-- 4&#45;&gt;5 -->
<g id="edge6" class="edge">
<title>4&#45;&gt;5</title>
<path fill="none" stroke="black" d="M276,-307.5C291.33,-307.5 311.75,-307.5 328.9,-307.5"/>
<polygon fill="black" stroke="black" points="328.61,-311 338.61,-307.5 328.61,-304 328.61,-311"/>
<text text-anchor="middle" x="309.79" y="-311.7" font-family="Times,serif" font-size="14.00">&#39;e&#39;</text>
</g>
<!-- 3&#45;&gt;14 -->
<g id="edge5" class="edge">
<title>3&#45;&gt;14</title>
<path fill="none" stroke="black" d="M585.08,-351.4C596.35,-354.44 610.39,-358.24 623.22,-361.7"/>
<polygon fill="black" stroke="black" points="622.07,-365.29 632.64,-364.52 623.9,-358.53 622.07,-365.29"/>
<text text-anchor="middle" x="609.37" y="-362.7" font-family="Times,serif" font-size="14.00">&#39;e&#39;</text>
</g>
<!-- 5&#45;&gt;2 -->
<g id="edge7" class="edge">
<title>5&#45;&gt;2</title>
<path fill="none" stroke="black" d="M385.53,-315.75C398.5,-320.84 415.39,-327.47 429.92,-333.18"/>
<polygon fill="black" stroke="black" points="428.42,-336.74 439.01,-337.14 430.98,-330.23 428.42,-336.74"/>
<text text-anchor="middle" x="410.91" y="-332.7" font-family="Times,serif" font-size="14.00">&#39;]&#39;</text>
</g>
<!-- 6&#45;&gt;15 -->
<g id="edge8" class="edge">
<title>6&#45;&gt;15</title>
<path fill="none" stroke="black" d="M177.2,-34.92C186.34,-34.25 196.95,-33.41 206.55,-32.5 208.79,-32.29 211.09,-32.06 213.41,-31.82"/>
<polygon fill="black" stroke="black" points="213.67,-35.21 223.24,-30.67 212.93,-28.25 213.67,-35.21"/>
<text text-anchor="middle" x="200.67" y="-38.7" font-family="Times,serif" font-size="14.00">&#39;e&#39;</text>
</g>
<!-- 8 -->
<g id="node16" class="node">
<title>8</title>
<ellipse fill="none" stroke="black" cx="252.05" cy="-108.5" rx="23.5" ry="23.5"/>
<text text-anchor="middle" x="252.05" y="-104.3" font-family="Times,serif" font-size="14.00">8</text>
</g>
<!-- 7&#45;&gt;8 -->
<g id="edge9" class="edge">
<title>7&#45;&gt;8</title>
<path fill="none" stroke="black" d="M177.22,-108.5C189.27,-108.5 204.26,-108.5 217.59,-108.5"/>
<polygon fill="black" stroke="black" points="217.28,-112 227.28,-108.5 217.28,-105 217.28,-112"/>
<text text-anchor="middle" x="200.67" y="-112.7" font-family="Times,serif" font-size="14.00">&#39;(&#39;</text>
</g>
<!-- 8&#45;&gt;16 -->
<g id="edge10" class="edge">
<title>8&#45;&gt;16</title>
<path fill="none" stroke="black" d="M275.73,-110.9C311.34,-114.66 380.74,-121.99 423.84,-126.54"/>
<polygon fill="black" stroke="black" points="423.41,-130.12 433.72,-127.69 424.15,-123.16 423.41,-130.12"/>
<text text-anchor="middle" x="363.53" y="-126.7" font-family="Times,serif" font-size="14.00">&#39;)&#39;</text>
</g>
<!-- 9 -->
<g id="node17" class="node">
<title>9</title>
<ellipse fill="none" stroke="black" cx="363.53" cy="-65.5" rx="23.5" ry="23.5"/>
<text text-anchor="middle" x="363.53" y="-61.3" font-family="Times,serif" font-size="14.00">9</text>
</g>
<!-- 8&#45;&gt;9 -->
<g id="edge11" class="edge">
<title>8&#45;&gt;9</title>
<path fill="none" stroke="black" d="M274.42,-100.11C290.55,-93.77 312.92,-84.99 331.09,-77.85"/>
<polygon fill="black" stroke="black" points="332.19,-80.79 340.22,-73.87 329.63,-74.27 332.19,-80.79"/>
<text text-anchor="middle" x="309.79" y="-95.7" font-family="Times,serif" font-size="14.00">&#39;e&#39;</text>
</g>
<!-- 9&#45;&gt;16 -->
<g id="edge12" class="edge">
<title>9&#45;&gt;16</title>
<path fill="none" stroke="black" d="M383.65,-78.34C396.78,-87.17 414.53,-99.09 429.74,-109.3"/>
<polygon fill="black" stroke="black" points="427.57,-112.73 437.82,-115.4 431.47,-106.92 427.57,-112.73"/>
<text text-anchor="middle" x="410.91" y="-104.7" font-family="Times,serif" font-size="14.00">&#39;)&#39;</text>
</g>
<!-- 10 -->
<g id="node18" class="node">
<title>10</title>
<ellipse fill="none" stroke="black" cx="462.3" cy="-39.5" rx="23.5" ry="23.5"/>
<text text-anchor="middle" x="462.3" y="-35.3" font-family="Times,serif" font-size="14.00">10</text>
</g>
<!-- 9&#45;&gt;10 -->
<g id="edge13" class="edge">
<title>9&#45;&gt;10</title>
<path fill="none" stroke="black" d="M386.49,-59.6C398.9,-56.27 414.65,-52.03 428.49,-48.31"/>
<polygon fill="black" stroke="black" points="429.34,-51.44 438.09,-45.47 427.52,-44.68 429.34,-51.44"/>
<text text-anchor="middle" x="410.91" y="-58.7" font-family="Times,serif" font-size="14.00">&#39;,&#39;</text>
</g>
<!-- 10&#45;&gt;9 -->
<g id="edge14" class="edge">
<title>10&#45;&gt;9</title>
<path fill="none" stroke="black" d="M439.68,-31.75C429,-29.11 416.06,-27.7 405.03,-31.7 398.96,-33.9 393.17,-37.45 387.95,-41.44"/>
<polygon fill="black" stroke="black" points="386.12,-39.26 380.78,-48.41 390.66,-44.58 386.12,-39.26"/>
<text text-anchor="middle" x="410.91" y="-36.7" font-family="Times,serif" font-size="14.00">&#39;e&#39;</text>
</g>
<!-- 12 -->
<g id="node20" class="node">
<title>12</title>
<ellipse fill="none" stroke="black" cx="252.05" cy="-217.5" rx="23.5" ry="23.5"/>
<text text-anchor="middle" x="252.05" y="-213.3" font-family="Times,serif" font-size="14.00">12</text>
</g>
<!-- 11&#45;&gt;12 -->
<g id="edge15" class="edge">
<title>11&#45;&gt;12</title>
<path fill="none" stroke="black" d="M177.22,-217.5C189.27,-217.5 204.26,-217.5 217.59,-217.5"/>
<polygon fill="black" stroke="black" points="217.28,-221 227.28,-217.5 217.28,-214 217.28,-221"/>
<text text-anchor="middle" x="200.67" y="-221.7" font-family="Times,serif" font-size="14.00">&#39;{&#39;</text>
</g>
<!-- 12&#45;&gt;17 -->
<g id="edge17" class="edge">
<title>12&#45;&gt;17</title>
<path fill="none" stroke="black" d="M275.09,-223.34C282.2,-224.98 290.17,-226.58 297.55,-227.5 350.16,-234.08 363.83,-232.88 416.8,-230.5 419.04,-230.4 421.34,-230.27 423.66,-230.12"/>
<polygon fill="black" stroke="black" points="423.79,-233.55 433.5,-229.3 423.26,-226.57 423.79,-233.55"/>
<text text-anchor="middle" x="363.53" y="-236.7" font-family="Times,serif" font-size="14.00">&#39;}&#39;</text>
</g>
<!-- 13 -->
<g id="node21" class="node">
<title>13</title>
<ellipse fill="none" stroke="black" cx="363.53" cy="-189.5" rx="23.5" ry="23.5"/>
<text text-anchor="middle" x="363.53" y="-185.3" font-family="Times,serif" font-size="14.00">13</text>
</g>
<!-- 12&#45;&gt;13 -->
<g id="edge16" class="edge">
<title>12&#45;&gt;13</title>
<path fill="none" stroke="black" d="M275.21,-211.83C290.94,-207.81 312.31,-202.34 329.97,-197.83"/>
<polygon fill="black" stroke="black" points="330.59,-201.03 339.41,-195.16 328.85,-194.24 330.59,-201.03"/>
<text text-anchor="middle" x="309.79" y="-210.7" font-family="Times,serif" font-size="14.00">&#39;f&#39;</text>
</g>
<!-- 13&#45;&gt;17 -->
<g id="edge19" class="edge">
<title>13&#45;&gt;17</title>
<path fill="none" stroke="black" d="M386.01,-197.71C397.81,-202.22 412.74,-207.93 426.19,-213.08"/>
<polygon fill="black" stroke="black" points="424.52,-216.57 435.11,-216.87 427.02,-210.03 424.52,-216.57"/>
<text text-anchor="middle" x="410.91" y="-213.7" font-family="Times,serif" font-size="14.00">&#39;}&#39;</text>
</g>
<!-- 13&#45;&gt;12 -->
<g id="edge18" class="edge">
<title>13&#45;&gt;12</title>
<path fill="none" stroke="black" d="M341.22,-181.09C328.27,-177.23 311.58,-174.55 297.55,-179.7 289.83,-182.54 282.54,-187.37 276.17,-192.65"/>
<polygon fill="black" stroke="black" points="274.15,-189.67 269.12,-198.99 278.87,-194.84 274.15,-189.67"/>
<text text-anchor="middle" x="309.79" y="-184.7" font-family="Times,serif" font-size="14.00">&#39;,&#39;, &#39;;&#39;</text>
</g>
</g>
</svg>
