<?xml version="1.0" encoding="UTF-8" standalone="no"?>
<!DOCTYPE svg PUBLIC "-//W3C//DTD SVG 1.1//EN"
 "http://www.w3.org/Graphics/SVG/1.1/DTD/svg11.dtd">
<!-- Generated by graphviz version 8.0.3 (20230416.2022)
 -->
<!-- Title: syntax Pages: 1 -->
<svg width="696pt" height="489pt"
 viewBox="0.00 0.00 696.27 489.30" xmlns="http://www.w3.org/2000/svg" xmlns:xlink="http://www.w3.org/1999/xlink">
<g id="graph0" class="graph" transform="scale(1 1) rotate(0) translate(4 485.3)">
<title>syntax</title>
<polygon fill="white" stroke="none" points="-4,4 -4,-485.3 692.27,-485.3 692.27,4 -4,4"/>
<!-- en_6 -->
<g id="node1" class="node">
<title>en_6</title>
<ellipse fill="black" stroke="black" cx="1.8" cy="-40.5" rx="1.8" ry="1.8"/>
</g>
<!-- 6 -->
<g id="node16" class="node">
<title>6</title>
<ellipse fill="none" stroke="black" cx="153.29" cy="-40.5" rx="23.5" ry="23.5"/>
<text text-anchor="middle" x="153.29" y="-36.3" font-family="Times,serif" font-size="14.00">6</text>
</g>
<!-- en_6&#45;&gt;6 -->
<g id="edge26" class="edge">
<title>en_6&#45;&gt;6</title>
<path fill="none" stroke="black" d="M4.09,-40.5C13.95,-40.5 77.99,-40.5 118.6,-40.5"/>
<polygon fill="black" stroke="black" points="118.36,-44 128.36,-40.5 118.36,-37 118.36,-44"/>
<text text-anchor="middle" x="66.69" y="-44.7" font-family="Times,serif" font-size="14.00">assign</text>
</g>
<!-- en_9 -->
<g id="node2" class="node">
<title>en_9</title>
<ellipse fill="black" stroke="black" cx="1.8" cy="-120.5" rx="1.8" ry="1.8"/>
</g>
<!-- 9 -->
<g id="node19" class="node">
<title>9</title>
<ellipse fill="none" stroke="black" cx="153.29" cy="-120.5" rx="23.5" ry="23.5"/>
<text text-anchor="middle" x="153.29" y="-116.3" font-family="Times,serif" font-size="14.00">9</text>
</g>
<!-- en_9&#45;&gt;9 -->
<g id="edge27" class="edge">
<title>en_9&#45;&gt;9</title>
<path fill="none" stroke="black" d="M4.09,-120.5C13.95,-120.5 77.99,-120.5 118.6,-120.5"/>
<polygon fill="black" stroke="black" points="118.36,-124 128.36,-120.5 118.36,-117 118.36,-124"/>
<text text-anchor="middle" x="66.69" y="-124.7" font-family="Times,serif" font-size="14.00">explist</text>
</g>
<!-- en_10 -->
<g id="node3" class="node">
<title>en_10</title>
<ellipse fill="black" stroke="black" cx="1.8" cy="-192.5" rx="1.8" ry="1.8"/>
</g>
<!-- 10 -->
<g id="node20" class="node">
<title>10</title>
<ellipse fill="none" stroke="black" cx="153.29" cy="-192.5" rx="23.5" ry="23.5"/>
<text text-anchor="middle" x="153.29" y="-188.3" font-family="Times,serif" font-size="14.00">10</text>
</g>
<!-- en_10&#45;&gt;10 -->
<g id="edge28" class="edge">
<title>en_10&#45;&gt;10</title>
<path fill="none" stroke="black" d="M4.09,-192.5C13.95,-192.5 77.99,-192.5 118.6,-192.5"/>
<polygon fill="black" stroke="black" points="118.36,-196 128.36,-192.5 118.36,-189 118.36,-196"/>
<text text-anchor="middle" x="66.69" y="-196.7" font-family="Times,serif" font-size="14.00">args</text>
</g>
<!-- en_14 -->
<g id="node4" class="node">
<title>en_14</title>
<ellipse fill="black" stroke="black" cx="1.8" cy="-284.5" rx="1.8" ry="1.8"/>
</g>
<!-- 14 -->
<g id="node24" class="node">
<title>14</title>
<ellipse fill="none" stroke="black" cx="153.29" cy="-284.5" rx="23.5" ry="23.5"/>
<text text-anchor="middle" x="153.29" y="-280.3" font-family="Times,serif" font-size="14.00">14</text>
</g>
<!-- en_14&#45;&gt;14 -->
<g id="edge29" class="edge">
<title>en_14&#45;&gt;14</title>
<path fill="none" stroke="black" d="M4.09,-284.5C13.95,-284.5 77.99,-284.5 118.6,-284.5"/>
<polygon fill="black" stroke="black" points="118.36,-288 128.36,-284.5 118.36,-281 118.36,-288"/>
<text text-anchor="middle" x="66.69" y="-288.7" font-family="Times,serif" font-size="14.00">tableconstructor</text>
</g>
<!-- en_1 -->
<g id="node5" class="node">
<title>en_1</title>
<ellipse fill="black" stroke="black" cx="1.8" cy="-426.5" rx="1.8" ry="1.8"/>
</g>
<!-- 1 -->
<g id="node11" class="node">
<title>1</title>
<ellipse fill="none" stroke="black" cx="153.29" cy="-426.5" rx="23.5" ry="23.5"/>
<text text-anchor="middle" x="153.29" y="-422.3" font-family="Times,serif" font-size="14.00">1</text>
</g>
<!-- en_1&#45;&gt;1 -->
<g id="edge30" class="edge">
<title>en_1&#45;&gt;1</title>
<path fill="none" stroke="black" d="M4.09,-426.5C13.95,-426.5 77.99,-426.5 118.6,-426.5"/>
<polygon fill="black" stroke="black" points="118.36,-430 128.36,-426.5 118.36,-423 118.36,-430"/>
<text text-anchor="middle" x="66.69" y="-430.7" font-family="Times,serif" font-size="14.00">field</text>
</g>
<!-- 17 -->
<g id="node6" class="node">
<title>17</title>
<ellipse fill="none" stroke="black" cx="660.77" cy="-438.5" rx="23.5" ry="23.5"/>
<ellipse fill="none" stroke="black" cx="660.77" cy="-438.5" rx="27.5" ry="27.5"/>
<text text-anchor="middle" x="660.77" y="-434.3" font-family="Times,serif" font-size="14.00">17</text>
</g>
<!-- 18 -->
<g id="node7" class="node">
<title>18</title>
<ellipse fill="none" stroke="black" cx="462.58" cy="-27.5" rx="23.5" ry="23.5"/>
<ellipse fill="none" stroke="black" cx="462.58" cy="-27.5" rx="27.5" ry="27.5"/>
<text text-anchor="middle" x="462.58" y="-23.3" font-family="Times,serif" font-size="14.00">18</text>
</g>
<!-- 8 -->
<g id="node18" class="node">
<title>8</title>
<ellipse fill="none" stroke="black" cx="363.81" cy="-29.5" rx="23.5" ry="23.5"/>
<text text-anchor="middle" x="363.81" y="-25.3" font-family="Times,serif" font-size="14.00">8</text>
</g>
<!-- 18&#45;&gt;8 -->
<g id="edge24" class="edge">
<title>18&#45;&gt;8</title>
<path fill="none" stroke="black" d="M438.87,-13.06C428.73,-8.3 416.56,-4.87 405.31,-7.7 401.36,-8.7 397.38,-10.16 393.53,-11.87"/>
<polygon fill="black" stroke="black" points="392.13,-9.16 384.79,-16.79 395.29,-15.4 392.13,-9.16"/>
<text text-anchor="middle" x="411.19" y="-12.7" font-family="Times,serif" font-size="14.00">&#39;,&#39;</text>
</g>
<!-- 19 -->
<g id="node8" class="node">
<title>19</title>
<ellipse fill="none" stroke="black" cx="252.33" cy="-117.5" rx="23.5" ry="23.5"/>
<ellipse fill="none" stroke="black" cx="252.33" cy="-117.5" rx="27.5" ry="27.5"/>
<text text-anchor="middle" x="252.33" y="-113.3" font-family="Times,serif" font-size="14.00">19</text>
</g>
<!-- 19&#45;&gt;9 -->
<g id="edge25" class="edge">
<title>19&#45;&gt;9</title>
<path fill="none" stroke="black" d="M225.45,-110.22C215.83,-108.37 204.82,-107.27 194.79,-108.7 192.06,-109.09 189.26,-109.62 186.46,-110.24"/>
<polygon fill="black" stroke="black" points="185.7,-107.08 176.9,-112.98 187.46,-113.86 185.7,-107.08"/>
<text text-anchor="middle" x="200.81" y="-113.7" font-family="Times,serif" font-size="14.00">&#39;,&#39;</text>
</g>
<!-- 20 -->
<g id="node9" class="node">
<title>20</title>
<ellipse fill="none" stroke="black" cx="462.58" cy="-181.5" rx="23.5" ry="23.5"/>
<ellipse fill="none" stroke="black" cx="462.58" cy="-181.5" rx="27.5" ry="27.5"/>
<text text-anchor="middle" x="462.58" y="-177.3" font-family="Times,serif" font-size="14.00">20</text>
</g>
<!-- 21 -->
<g id="node10" class="node">
<title>21</title>
<ellipse fill="none" stroke="black" cx="462.58" cy="-293.5" rx="23.5" ry="23.5"/>
<ellipse fill="none" stroke="black" cx="462.58" cy="-293.5" rx="27.5" ry="27.5"/>
<text text-anchor="middle" x="462.58" y="-289.3" font-family="Times,serif" font-size="14.00">21</text>
</g>
<!-- 1&#45;&gt;17 -->
<g id="edge3" class="edge">
<title>1&#45;&gt;17</title>
<path fill="none" stroke="black" d="M173.49,-438.94C192.48,-450.03 222.74,-464.5 251.33,-464.5 251.33,-464.5 251.33,-464.5 563.52,-464.5 584.26,-464.5 606.67,-458.8 624.64,-452.75"/>
<polygon fill="black" stroke="black" points="625.69,-455.73 633.94,-449.08 623.34,-449.14 625.69,-455.73"/>
<text text-anchor="middle" x="411.19" y="-468.7" font-family="Times,serif" font-size="14.00">&#39;e&#39;</text>
</g>
<!-- 2 -->
<g id="node12" class="node">
<title>2</title>
<ellipse fill="none" stroke="black" cx="462.58" cy="-412.5" rx="23.5" ry="23.5"/>
<text text-anchor="middle" x="462.58" y="-408.3" font-family="Times,serif" font-size="14.00">2</text>
</g>
<!-- 1&#45;&gt;2 -->
<g id="edge1" class="edge">
<title>1&#45;&gt;2</title>
<path fill="none" stroke="black" d="M177.13,-425.46C230.82,-423.01 365.21,-416.89 428.12,-414.02"/>
<polygon fill="black" stroke="black" points="428.17,-417.48 438,-413.53 427.85,-410.49 428.17,-417.48"/>
<text text-anchor="middle" x="310.07" y="-423.7" font-family="Times,serif" font-size="14.00">&#39;N&#39;</text>
</g>
<!-- 4 -->
<g id="node13" class="node">
<title>4</title>
<ellipse fill="none" stroke="black" cx="252.33" cy="-374.5" rx="23.5" ry="23.5"/>
<text text-anchor="middle" x="252.33" y="-370.3" font-family="Times,serif" font-size="14.00">4</text>
</g>
<!-- 1&#45;&gt;4 -->
<g id="edge2" class="edge">
<title>1&#45;&gt;4</title>
<path fill="none" stroke="black" d="M171.66,-411.52C178.55,-406.06 186.74,-400.14 194.79,-395.7 202.38,-391.51 210.97,-387.81 219.12,-384.73"/>
<polygon fill="black" stroke="black" points="220.22,-387.69 228.47,-381.04 217.87,-381.1 220.22,-387.69"/>
<text text-anchor="middle" x="200.81" y="-399.7" font-family="Times,serif" font-size="14.00">&#39;[&#39;</text>
</g>
<!-- 3 -->
<g id="node14" class="node">
<title>3</title>
<ellipse fill="none" stroke="black" cx="562.52" cy="-412.5" rx="23.5" ry="23.5"/>
<text text-anchor="middle" x="562.52" y="-408.3" font-family="Times,serif" font-size="14.00">3</text>
</g>
<!-- 2&#45;&gt;3 -->
<g id="edge4" class="edge">
<title>2&#45;&gt;3</title>
<path fill="none" stroke="black" d="M486.29,-412.5C498.56,-412.5 513.96,-412.5 527.62,-412.5"/>
<polygon fill="black" stroke="black" points="527.58,-416 537.58,-412.5 527.58,-409 527.58,-416"/>
<text text-anchor="middle" x="514.55" y="-416.7" font-family="Times,serif" font-size="14.00">&#39;=&#39;</text>
</g>
<!-- 5 -->
<g id="node15" class="node">
<title>5</title>
<ellipse fill="none" stroke="black" cx="363.81" cy="-374.5" rx="23.5" ry="23.5"/>
<text text-anchor="middle" x="363.81" y="-370.3" font-family="Times,serif" font-size="14.00">5</text>
</g>
<!-- 4&#45;&gt;5 -->
<g id="edge6" class="edge">
<title>4&#45;&gt;5</title>
<path fill="none" stroke="black" d="M276.28,-374.5C291.61,-374.5 312.03,-374.5 329.18,-374.5"/>
<polygon fill="black" stroke="black" points="328.89,-378 338.89,-374.5 328.89,-371 328.89,-378"/>
<text text-anchor="middle" x="310.07" y="-378.7" font-family="Times,serif" font-size="14.00">&#39;e&#39;</text>
</g>
<!-- 3&#45;&gt;17 -->
<g id="edge5" class="edge">
<title>3&#45;&gt;17</title>
<path fill="none" stroke="black" d="M585.36,-418.4C596.63,-421.44 610.67,-425.24 623.5,-428.7"/>
<polygon fill="black" stroke="black" points="622.35,-432.29 632.92,-431.52 624.18,-425.53 622.35,-432.29"/>
<text text-anchor="middle" x="609.65" y="-429.7" font-family="Times,serif" font-size="14.00">&#39;e&#39;</text>
</g>
<!-- 5&#45;&gt;2 -->
<g id="edge7" class="edge">
<title>5&#45;&gt;2</title>
<path fill="none" stroke="black" d="M385.81,-382.75C398.78,-387.84 415.67,-394.47 430.2,-400.18"/>
<polygon fill="black" stroke="black" points="428.7,-403.74 439.29,-404.14 431.26,-397.23 428.7,-403.74"/>
<text text-anchor="middle" x="411.19" y="-398.7" font-family="Times,serif" font-size="14.00">&#39;]&#39;</text>
</g>
<!-- 7 -->
<g id="node17" class="node">
<title>7</title>
<ellipse fill="none" stroke="black" cx="252.33" cy="-29.5" rx="23.5" ry="23.5"/>
<text text-anchor="middle" x="252.33" y="-25.3" font-family="Times,serif" font-size="14.00">7</text>
</g>
<!-- 6&#45;&gt;7 -->
<g id="edge8" class="edge">
<title>6&#45;&gt;7</title>
<path fill="none" stroke="black" d="M176.79,-37.95C188.96,-36.57 204.21,-34.84 217.75,-33.31"/>
<polygon fill="black" stroke="black" points="218.07,-36.68 227.61,-32.08 217.28,-29.72 218.07,-36.68"/>
<text text-anchor="middle" x="200.81" y="-40.7" font-family="Times,serif" font-size="14.00">&#39;v&#39;</text>
</g>
<!-- 7&#45;&gt;6 -->
<g id="edge9" class="edge">
<title>7&#45;&gt;6</title>
<path fill="none" stroke="black" d="M231.11,-18.84C220.29,-14.49 206.77,-11.21 194.79,-14.7 190.16,-16.05 185.56,-18.1 181.2,-20.48"/>
<polygon fill="black" stroke="black" points="179.85,-17.82 173.16,-26.03 183.51,-23.78 179.85,-17.82"/>
<text text-anchor="middle" x="200.81" y="-19.7" font-family="Times,serif" font-size="14.00">&#39;,&#39;</text>
</g>
<!-- 7&#45;&gt;8 -->
<g id="edge10" class="edge">
<title>7&#45;&gt;8</title>
<path fill="none" stroke="black" d="M276.28,-29.5C291.61,-29.5 312.03,-29.5 329.18,-29.5"/>
<polygon fill="black" stroke="black" points="328.89,-33 338.89,-29.5 328.89,-26 328.89,-33"/>
<text text-anchor="middle" x="310.07" y="-33.7" font-family="Times,serif" font-size="14.00">&#39;=&#39;</text>
</g>
<!-- 8&#45;&gt;18 -->
<g id="edge11" class="edge">
<title>8&#45;&gt;18</title>
<path fill="none" stroke="black" d="M387.74,-29.03C398.53,-28.8 411.67,-28.53 423.86,-28.28"/>
<polygon fill="black" stroke="black" points="423.76,-31.76 433.69,-28.06 423.62,-24.76 423.76,-31.76"/>
<text text-anchor="middle" x="411.19" y="-33.7" font-family="Times,serif" font-size="14.00">&#39;e&#39;</text>
</g>
<!-- 9&#45;&gt;19 -->
<g id="edge12" class="edge">
<title>9&#45;&gt;19</title>
<path fill="none" stroke="black" d="M176.42,-126.33C182.34,-127.64 188.77,-128.84 194.79,-129.5 201.53,-130.24 208.65,-129.75 215.49,-128.63"/>
<polygon fill="black" stroke="black" points="215.83,-131.93 224.89,-126.44 214.39,-125.08 215.83,-131.93"/>
<text text-anchor="middle" x="200.81" y="-134.7" font-family="Times,serif" font-size="14.00">&#39;e&#39;</text>
</g>
<!-- 11 -->
<g id="node21" class="node">
<title>11</title>
<ellipse fill="none" stroke="black" cx="252.33" cy="-192.5" rx="23.5" ry="23.5"/>
<text text-anchor="middle" x="252.33" y="-188.3" font-family="Times,serif" font-size="14.00">11</text>
</g>
<!-- 10&#45;&gt;11 -->
<g id="edge13" class="edge">
<title>10&#45;&gt;11</title>
<path fill="none" stroke="black" d="M177.28,-192.5C189.37,-192.5 204.41,-192.5 217.77,-192.5"/>
<polygon fill="black" stroke="black" points="217.5,-196 227.5,-192.5 217.5,-189 217.5,-196"/>
<text text-anchor="middle" x="200.81" y="-196.7" font-family="Times,serif" font-size="14.00">&#39;(&#39;</text>
</g>
<!-- 11&#45;&gt;20 -->
<g id="edge14" class="edge">
<title>11&#45;&gt;20</title>
<path fill="none" stroke="black" d="M276.01,-191.3C311.53,-189.43 380.65,-185.77 423.77,-183.5"/>
<polygon fill="black" stroke="black" points="423.86,-186.94 433.67,-182.92 423.49,-179.95 423.86,-186.94"/>
<text text-anchor="middle" x="363.81" y="-192.7" font-family="Times,serif" font-size="14.00">&#39;)&#39;</text>
</g>
<!-- 12 -->
<g id="node22" class="node">
<title>12</title>
<ellipse fill="none" stroke="black" cx="363.81" cy="-132.5" rx="23.5" ry="23.5"/>
<text text-anchor="middle" x="363.81" y="-128.3" font-family="Times,serif" font-size="14.00">12</text>
</g>
<!-- 11&#45;&gt;12 -->
<g id="edge15" class="edge">
<title>11&#45;&gt;12</title>
<path fill="none" stroke="black" d="M273.24,-181.34C280.91,-177.05 289.77,-172.13 297.83,-167.7 309.28,-161.41 321.9,-154.55 332.95,-148.58"/>
<polygon fill="black" stroke="black" points="334.45,-151.21 341.58,-143.38 331.12,-145.05 334.45,-151.21"/>
<text text-anchor="middle" x="310.07" y="-172.7" font-family="Times,serif" font-size="14.00">&#39;e&#39;</text>
</g>
<!-- 12&#45;&gt;20 -->
<g id="edge16" class="edge">
<title>12&#45;&gt;20</title>
<path fill="none" stroke="black" d="M385.33,-142.89C397.77,-149.19 413.94,-157.38 428.19,-164.59"/>
<polygon fill="black" stroke="black" points="426.17,-168 436.67,-169.4 429.33,-161.76 426.17,-168"/>
<text text-anchor="middle" x="411.19" y="-162.7" font-family="Times,serif" font-size="14.00">&#39;)&#39;</text>
</g>
<!-- 13 -->
<g id="node23" class="node">
<title>13</title>
<ellipse fill="none" stroke="black" cx="462.58" cy="-107.5" rx="23.5" ry="23.5"/>
<text text-anchor="middle" x="462.58" y="-103.3" font-family="Times,serif" font-size="14.00">13</text>
</g>
<!-- 12&#45;&gt;13 -->
<g id="edge17" class="edge">
<title>12&#45;&gt;13</title>
<path fill="none" stroke="black" d="M386.77,-126.83C399.18,-123.62 414.93,-119.55 428.77,-115.97"/>
<polygon fill="black" stroke="black" points="429.56,-119.13 438.37,-113.24 427.81,-112.35 429.56,-119.13"/>
<text text-anchor="middle" x="411.19" y="-125.7" font-family="Times,serif" font-size="14.00">&#39;,&#39;</text>
</g>
<!-- 13&#45;&gt;12 -->
<g id="edge18" class="edge">
<title>13&#45;&gt;12</title>
<path fill="none" stroke="black" d="M440.25,-99.26C429.53,-96.34 416.47,-94.66 405.31,-98.7 399.24,-100.9 393.45,-104.45 388.23,-108.44"/>
<polygon fill="black" stroke="black" points="386.4,-106.26 381.06,-115.41 390.94,-111.58 386.4,-106.26"/>
<text text-anchor="middle" x="411.19" y="-103.7" font-family="Times,serif" font-size="14.00">&#39;e&#39;</text>
</g>
<!-- 15 -->
<g id="node25" class="node">
<title>15</title>
<ellipse fill="none" stroke="black" cx="252.33" cy="-284.5" rx="23.5" ry="23.5"/>
<text text-anchor="middle" x="252.33" y="-280.3" font-family="Times,serif" font-size="14.00">15</text>
</g>
<!-- 14&#45;&gt;15 -->
<g id="edge19" class="edge">
<title>14&#45;&gt;15</title>
<path fill="none" stroke="black" d="M177.28,-284.5C189.37,-284.5 204.41,-284.5 217.77,-284.5"/>
<polygon fill="black" stroke="black" points="217.5,-288 227.5,-284.5 217.5,-281 217.5,-288"/>
<text text-anchor="middle" x="200.81" y="-288.7" font-family="Times,serif" font-size="14.00">&#39;{&#39;</text>
</g>
<!-- 15&#45;&gt;21 -->
<g id="edge21" class="edge">
<title>15&#45;&gt;21</title>
<path fill="none" stroke="black" d="M275.37,-290.34C282.48,-291.98 290.45,-293.58 297.83,-294.5 350.44,-301.08 364.11,-299.88 417.08,-297.5 419.32,-297.4 421.62,-297.27 423.94,-297.12"/>
<polygon fill="black" stroke="black" points="424.07,-300.55 433.78,-296.3 423.54,-293.57 424.07,-300.55"/>
<text text-anchor="middle" x="363.81" y="-303.7" font-family="Times,serif" font-size="14.00">&#39;}&#39;</text>
</g>
<!-- 16 -->
<g id="node26" class="node">
<title>16</title>
<ellipse fill="none" stroke="black" cx="363.81" cy="-256.5" rx="23.5" ry="23.5"/>
<text text-anchor="middle" x="363.81" y="-252.3" font-family="Times,serif" font-size="14.00">16</text>
</g>
<!-- 15&#45;&gt;16 -->
<g id="edge20" class="edge">
<title>15&#45;&gt;16</title>
<path fill="none" stroke="black" d="M275.49,-278.83C291.22,-274.81 312.59,-269.34 330.25,-264.83"/>
<polygon fill="black" stroke="black" points="330.87,-268.03 339.69,-262.16 329.13,-261.24 330.87,-268.03"/>
<text text-anchor="middle" x="310.07" y="-277.7" font-family="Times,serif" font-size="14.00">&#39;f&#39;</text>
</g>
<!-- 16&#45;&gt;21 -->
<g id="edge23" class="edge">
<title>16&#45;&gt;21</title>
<path fill="none" stroke="black" d="M386.29,-264.71C398.09,-269.22 413.02,-274.93 426.47,-280.08"/>
<polygon fill="black" stroke="black" points="424.8,-283.57 435.39,-283.87 427.3,-277.03 424.8,-283.57"/>
<text text-anchor="middle" x="411.19" y="-280.7" font-family="Times,serif" font-size="14.00">&#39;}&#39;</text>
</g>
<!-- 16&#45;&gt;15 -->
<g id="edge22" class="edge">
<title>16&#45;&gt;15</title>
<path fill="none" stroke="black" d="M341.5,-248.09C328.55,-244.23 311.86,-241.55 297.83,-246.7 290.11,-249.54 282.82,-254.37 276.45,-259.65"/>
<polygon fill="black" stroke="black" points="274.43,-256.67 269.4,-265.99 279.15,-261.84 274.43,-256.67"/>
<text text-anchor="middle" x="310.07" y="-251.7" font-family="Times,serif" font-size="14.00">&#39;,&#39;, &#39;;&#39;</text>
</g>
</g>
</svg>
