<?xml version="1.0" encoding="UTF-8" standalone="no"?>
<!DOCTYPE svg PUBLIC "-//W3C//DTD SVG 1.1//EN"
 "http://www.w3.org/Graphics/SVG/1.1/DTD/svg11.dtd">
<!-- Generated by graphviz version 8.0.3 (20230416.2022)
 -->
<!-- Title: syntax Pages: 1 -->
<svg width="815pt" height="1123pt"
 viewBox="0.00 0.00 815.38 1123.30" xmlns="http://www.w3.org/2000/svg" xmlns:xlink="http://www.w3.org/1999/xlink">
<g id="graph0" class="graph" transform="scale(1 1) rotate(0) translate(4 1119.3)">
<title>syntax</title>
<polygon fill="white" stroke="none" points="-4,4 -4,-1119.3 811.38,-1119.3 811.38,4 -4,4"/>
<!-- en_6 -->
<g id="node1" class="node">
<title>en_6</title>
<ellipse fill="black" stroke="black" cx="1.8" cy="-60.5" rx="1.8" ry="1.8"/>
</g>
<!-- 6 -->
<g id="node25" class="node">
<title>6</title>
<ellipse fill="none" stroke="black" cx="153.29" cy="-60.5" rx="23.5" ry="23.5"/>
<text text-anchor="middle" x="153.29" y="-56.3" font-family="Times,serif" font-size="14.00">6</text>
</g>
<!-- en_6&#45;&gt;6 -->
<g id="edge53" class="edge">
<title>en_6&#45;&gt;6</title>
<path fill="none" stroke="black" d="M4.09,-60.5C13.95,-60.5 77.99,-60.5 118.6,-60.5"/>
<polygon fill="black" stroke="black" points="118.36,-64 128.36,-60.5 118.36,-57 118.36,-64"/>
<text text-anchor="middle" x="66.69" y="-64.7" font-family="Times,serif" font-size="14.00">block</text>
</g>
<!-- en_8 -->
<g id="node2" class="node">
<title>en_8</title>
<ellipse fill="black" stroke="black" cx="1.8" cy="-268.5" rx="1.8" ry="1.8"/>
</g>
<!-- 8 -->
<g id="node27" class="node">
<title>8</title>
<ellipse fill="none" stroke="black" cx="153.29" cy="-268.5" rx="23.5" ry="23.5"/>
<text text-anchor="middle" x="153.29" y="-264.3" font-family="Times,serif" font-size="14.00">8</text>
</g>
<!-- en_8&#45;&gt;8 -->
<g id="edge54" class="edge">
<title>en_8&#45;&gt;8</title>
<path fill="none" stroke="black" d="M4.09,-268.5C13.95,-268.5 77.99,-268.5 118.6,-268.5"/>
<polygon fill="black" stroke="black" points="118.36,-272 128.36,-268.5 118.36,-265 118.36,-272"/>
<text text-anchor="middle" x="66.69" y="-272.7" font-family="Times,serif" font-size="14.00">retstat</text>
</g>
<!-- en_12 -->
<g id="node3" class="node">
<title>en_12</title>
<ellipse fill="black" stroke="black" cx="1.8" cy="-388.5" rx="1.8" ry="1.8"/>
</g>
<!-- 12 -->
<g id="node31" class="node">
<title>12</title>
<ellipse fill="none" stroke="black" cx="153.29" cy="-388.5" rx="23.5" ry="23.5"/>
<text text-anchor="middle" x="153.29" y="-384.3" font-family="Times,serif" font-size="14.00">12</text>
</g>
<!-- en_12&#45;&gt;12 -->
<g id="edge55" class="edge">
<title>en_12&#45;&gt;12</title>
<path fill="none" stroke="black" d="M4.09,-388.5C13.95,-388.5 77.99,-388.5 118.6,-388.5"/>
<polygon fill="black" stroke="black" points="118.36,-392 128.36,-388.5 118.36,-385 118.36,-392"/>
<text text-anchor="middle" x="66.69" y="-392.7" font-family="Times,serif" font-size="14.00">funcname</text>
</g>
<!-- en_14 -->
<g id="node4" class="node">
<title>en_14</title>
<ellipse fill="black" stroke="black" cx="1.8" cy="-468.5" rx="1.8" ry="1.8"/>
</g>
<!-- 14 -->
<g id="node33" class="node">
<title>14</title>
<ellipse fill="none" stroke="black" cx="153.29" cy="-468.5" rx="23.5" ry="23.5"/>
<text text-anchor="middle" x="153.29" y="-464.3" font-family="Times,serif" font-size="14.00">14</text>
</g>
<!-- en_14&#45;&gt;14 -->
<g id="edge56" class="edge">
<title>en_14&#45;&gt;14</title>
<path fill="none" stroke="black" d="M4.09,-468.5C13.95,-468.5 77.99,-468.5 118.6,-468.5"/>
<polygon fill="black" stroke="black" points="118.36,-472 128.36,-468.5 118.36,-465 118.36,-472"/>
<text text-anchor="middle" x="66.69" y="-472.7" font-family="Times,serif" font-size="14.00">assign</text>
</g>
<!-- en_17 -->
<g id="node5" class="node">
<title>en_17</title>
<ellipse fill="black" stroke="black" cx="1.8" cy="-540.5" rx="1.8" ry="1.8"/>
</g>
<!-- 17 -->
<g id="node36" class="node">
<title>17</title>
<ellipse fill="none" stroke="black" cx="153.29" cy="-540.5" rx="23.5" ry="23.5"/>
<text text-anchor="middle" x="153.29" y="-536.3" font-family="Times,serif" font-size="14.00">17</text>
</g>
<!-- en_17&#45;&gt;17 -->
<g id="edge57" class="edge">
<title>en_17&#45;&gt;17</title>
<path fill="none" stroke="black" d="M4.09,-540.5C13.95,-540.5 77.99,-540.5 118.6,-540.5"/>
<polygon fill="black" stroke="black" points="118.36,-544 128.36,-540.5 118.36,-537 118.36,-544"/>
<text text-anchor="middle" x="66.69" y="-544.7" font-family="Times,serif" font-size="14.00">explist</text>
</g>
<!-- en_18 -->
<g id="node6" class="node">
<title>en_18</title>
<ellipse fill="black" stroke="black" cx="1.8" cy="-639.5" rx="1.8" ry="1.8"/>
</g>
<!-- 18 -->
<g id="node37" class="node">
<title>18</title>
<ellipse fill="none" stroke="black" cx="153.29" cy="-639.5" rx="23.5" ry="23.5"/>
<text text-anchor="middle" x="153.29" y="-635.3" font-family="Times,serif" font-size="14.00">18</text>
</g>
<!-- en_18&#45;&gt;18 -->
<g id="edge58" class="edge">
<title>en_18&#45;&gt;18</title>
<path fill="none" stroke="black" d="M4.09,-639.5C13.95,-639.5 77.99,-639.5 118.6,-639.5"/>
<polygon fill="black" stroke="black" points="118.36,-643 128.36,-639.5 118.36,-636 118.36,-643"/>
<text text-anchor="middle" x="66.69" y="-643.7" font-family="Times,serif" font-size="14.00">args</text>
</g>
<!-- en_22 -->
<g id="node7" class="node">
<title>en_22</title>
<ellipse fill="black" stroke="black" cx="1.8" cy="-798.5" rx="1.8" ry="1.8"/>
</g>
<!-- 22 -->
<g id="node41" class="node">
<title>22</title>
<ellipse fill="none" stroke="black" cx="153.29" cy="-798.5" rx="23.5" ry="23.5"/>
<text text-anchor="middle" x="153.29" y="-794.3" font-family="Times,serif" font-size="14.00">22</text>
</g>
<!-- en_22&#45;&gt;22 -->
<g id="edge59" class="edge">
<title>en_22&#45;&gt;22</title>
<path fill="none" stroke="black" d="M4.09,-798.5C13.95,-798.5 77.99,-798.5 118.6,-798.5"/>
<polygon fill="black" stroke="black" points="118.36,-802 128.36,-798.5 118.36,-795 118.36,-802"/>
<text text-anchor="middle" x="66.69" y="-802.7" font-family="Times,serif" font-size="14.00">params</text>
</g>
<!-- en_28 -->
<g id="node8" class="node">
<title>en_28</title>
<ellipse fill="black" stroke="black" cx="1.8" cy="-918.5" rx="1.8" ry="1.8"/>
</g>
<!-- 28 -->
<g id="node47" class="node">
<title>28</title>
<ellipse fill="none" stroke="black" cx="153.29" cy="-918.5" rx="23.5" ry="23.5"/>
<text text-anchor="middle" x="153.29" y="-914.3" font-family="Times,serif" font-size="14.00">28</text>
</g>
<!-- en_28&#45;&gt;28 -->
<g id="edge60" class="edge">
<title>en_28&#45;&gt;28</title>
<path fill="none" stroke="black" d="M4.09,-918.5C13.95,-918.5 77.99,-918.5 118.6,-918.5"/>
<polygon fill="black" stroke="black" points="118.36,-922 128.36,-918.5 118.36,-915 118.36,-922"/>
<text text-anchor="middle" x="66.69" y="-922.7" font-family="Times,serif" font-size="14.00">tableconstructor</text>
</g>
<!-- en_1 -->
<g id="node9" class="node">
<title>en_1</title>
<ellipse fill="black" stroke="black" cx="1.8" cy="-1060.5" rx="1.8" ry="1.8"/>
</g>
<!-- 1 -->
<g id="node20" class="node">
<title>1</title>
<ellipse fill="none" stroke="black" cx="153.29" cy="-1060.5" rx="23.5" ry="23.5"/>
<text text-anchor="middle" x="153.29" y="-1056.3" font-family="Times,serif" font-size="14.00">1</text>
</g>
<!-- en_1&#45;&gt;1 -->
<g id="edge61" class="edge">
<title>en_1&#45;&gt;1</title>
<path fill="none" stroke="black" d="M4.09,-1060.5C13.95,-1060.5 77.99,-1060.5 118.6,-1060.5"/>
<polygon fill="black" stroke="black" points="118.36,-1064 128.36,-1060.5 118.36,-1057 118.36,-1064"/>
<text text-anchor="middle" x="66.69" y="-1064.7" font-family="Times,serif" font-size="14.00">field</text>
</g>
<!-- 31 -->
<g id="node10" class="node">
<title>31</title>
<ellipse fill="none" stroke="black" cx="679.17" cy="-1072.5" rx="23.5" ry="23.5"/>
<ellipse fill="none" stroke="black" cx="679.17" cy="-1072.5" rx="27.5" ry="27.5"/>
<text text-anchor="middle" x="679.17" y="-1068.3" font-family="Times,serif" font-size="14.00">31</text>
</g>
<!-- 32 -->
<g id="node11" class="node">
<title>32</title>
<ellipse fill="none" stroke="black" cx="370.92" cy="-68.5" rx="23.5" ry="23.5"/>
<ellipse fill="none" stroke="black" cx="370.92" cy="-68.5" rx="27.5" ry="27.5"/>
<text text-anchor="middle" x="370.92" y="-64.3" font-family="Times,serif" font-size="14.00">32</text>
</g>
<!-- 33 -->
<g id="node12" class="node">
<title>33</title>
<ellipse fill="none" stroke="black" cx="477.08" cy="-261.5" rx="23.5" ry="23.5"/>
<ellipse fill="none" stroke="black" cx="477.08" cy="-261.5" rx="27.5" ry="27.5"/>
<text text-anchor="middle" x="477.08" y="-257.3" font-family="Times,serif" font-size="14.00">33</text>
</g>
<!-- 34 -->
<g id="node13" class="node">
<title>34</title>
<ellipse fill="none" stroke="black" cx="255.44" cy="-383.5" rx="23.5" ry="23.5"/>
<ellipse fill="none" stroke="black" cx="255.44" cy="-383.5" rx="27.5" ry="27.5"/>
<text text-anchor="middle" x="255.44" y="-379.3" font-family="Times,serif" font-size="14.00">34</text>
</g>
<!-- 34&#45;&gt;12 -->
<g id="edge49" class="edge">
<title>34&#45;&gt;12</title>
<path fill="none" stroke="black" d="M231.03,-370.38C220.07,-365.82 206.81,-362.55 194.79,-365.7 190.69,-366.77 186.57,-368.37 182.61,-370.22"/>
<polygon fill="black" stroke="black" points="181.38,-367.44 174.19,-375.22 184.67,-373.62 181.38,-367.44"/>
<text text-anchor="middle" x="202.36" y="-370.7" font-family="Times,serif" font-size="14.00">&#39;.&#39;</text>
</g>
<!-- 13 -->
<g id="node32" class="node">
<title>13</title>
<ellipse fill="none" stroke="black" cx="370.92" cy="-383.5" rx="23.5" ry="23.5"/>
<text text-anchor="middle" x="370.92" y="-379.3" font-family="Times,serif" font-size="14.00">13</text>
</g>
<!-- 34&#45;&gt;13 -->
<g id="edge50" class="edge">
<title>34&#45;&gt;13</title>
<path fill="none" stroke="black" d="M283.33,-383.5C299.25,-383.5 319.54,-383.5 336.48,-383.5"/>
<polygon fill="black" stroke="black" points="336.05,-387 346.05,-383.5 336.05,-380 336.05,-387"/>
<text text-anchor="middle" x="313.18" y="-387.7" font-family="Times,serif" font-size="14.00">&#39;:&#39;</text>
</g>
<!-- 35 -->
<g id="node14" class="node">
<title>35</title>
<ellipse fill="none" stroke="black" cx="477.08" cy="-383.5" rx="23.5" ry="23.5"/>
<ellipse fill="none" stroke="black" cx="477.08" cy="-383.5" rx="27.5" ry="27.5"/>
<text text-anchor="middle" x="477.08" y="-379.3" font-family="Times,serif" font-size="14.00">35</text>
</g>
<!-- 36 -->
<g id="node15" class="node">
<title>36</title>
<ellipse fill="none" stroke="black" cx="477.08" cy="-474.5" rx="23.5" ry="23.5"/>
<ellipse fill="none" stroke="black" cx="477.08" cy="-474.5" rx="27.5" ry="27.5"/>
<text text-anchor="middle" x="477.08" y="-470.3" font-family="Times,serif" font-size="14.00">36</text>
</g>
<!-- 16 -->
<g id="node35" class="node">
<title>16</title>
<ellipse fill="none" stroke="black" cx="370.92" cy="-476.5" rx="23.5" ry="23.5"/>
<text text-anchor="middle" x="370.92" y="-472.3" font-family="Times,serif" font-size="14.00">16</text>
</g>
<!-- 36&#45;&gt;16 -->
<g id="edge51" class="edge">
<title>36&#45;&gt;16</title>
<path fill="none" stroke="black" d="M451.56,-463.59C440.84,-460.07 428.07,-457.57 416.42,-459.7 411.94,-460.52 407.33,-461.76 402.85,-463.21"/>
<polygon fill="black" stroke="black" points="401.97,-460.17 393.75,-466.86 404.35,-466.75 401.97,-460.17"/>
<text text-anchor="middle" x="424" y="-464.7" font-family="Times,serif" font-size="14.00">&#39;,&#39;</text>
</g>
<!-- 37 -->
<g id="node16" class="node">
<title>37</title>
<ellipse fill="none" stroke="black" cx="255.44" cy="-558.5" rx="23.5" ry="23.5"/>
<ellipse fill="none" stroke="black" cx="255.44" cy="-558.5" rx="27.5" ry="27.5"/>
<text text-anchor="middle" x="255.44" y="-554.3" font-family="Times,serif" font-size="14.00">37</text>
</g>
<!-- 37&#45;&gt;17 -->
<g id="edge52" class="edge">
<title>37&#45;&gt;17</title>
<path fill="none" stroke="black" d="M234.03,-541.17C226.88,-536.13 218.48,-531.3 209.94,-528.7 202.15,-526.33 193.59,-526.71 185.58,-528.32"/>
<polygon fill="black" stroke="black" points="184.87,-525.16 176.12,-531.13 186.68,-531.92 184.87,-525.16"/>
<text text-anchor="middle" x="202.36" y="-533.7" font-family="Times,serif" font-size="14.00">&#39;,&#39;</text>
</g>
<!-- 38 -->
<g id="node17" class="node">
<title>38</title>
<ellipse fill="none" stroke="black" cx="477.08" cy="-624.5" rx="23.5" ry="23.5"/>
<ellipse fill="none" stroke="black" cx="477.08" cy="-624.5" rx="27.5" ry="27.5"/>
<text text-anchor="middle" x="477.08" y="-620.3" font-family="Times,serif" font-size="14.00">38</text>
</g>
<!-- 39 -->
<g id="node18" class="node">
<title>39</title>
<ellipse fill="none" stroke="black" cx="779.88" cy="-777.5" rx="23.5" ry="23.5"/>
<ellipse fill="none" stroke="black" cx="779.88" cy="-777.5" rx="27.5" ry="27.5"/>
<text text-anchor="middle" x="779.88" y="-773.3" font-family="Times,serif" font-size="14.00">39</text>
</g>
<!-- 40 -->
<g id="node19" class="node">
<title>40</title>
<ellipse fill="none" stroke="black" cx="477.08" cy="-927.5" rx="23.5" ry="23.5"/>
<ellipse fill="none" stroke="black" cx="477.08" cy="-927.5" rx="27.5" ry="27.5"/>
<text text-anchor="middle" x="477.08" y="-923.3" font-family="Times,serif" font-size="14.00">40</text>
</g>
<!-- 1&#45;&gt;31 -->
<g id="edge3" class="edge">
<title>1&#45;&gt;31</title>
<path fill="none" stroke="black" d="M173.79,-1072.73C193.4,-1083.84 224.87,-1098.5 254.44,-1098.5 254.44,-1098.5 254.44,-1098.5 578.02,-1098.5 600.2,-1098.5 624.28,-1092.45 643.27,-1086.19"/>
<polygon fill="black" stroke="black" points="644.23,-1089.22 652.53,-1082.63 641.93,-1082.6 644.23,-1089.22"/>
<text text-anchor="middle" x="424" y="-1102.7" font-family="Times,serif" font-size="14.00">&#39;e&#39;</text>
</g>
<!-- 2 -->
<g id="node21" class="node">
<title>2</title>
<ellipse fill="none" stroke="black" cx="477.08" cy="-1046.5" rx="23.5" ry="23.5"/>
<text text-anchor="middle" x="477.08" y="-1042.3" font-family="Times,serif" font-size="14.00">2</text>
</g>
<!-- 1&#45;&gt;2 -->
<g id="edge1" class="edge">
<title>1&#45;&gt;2</title>
<path fill="none" stroke="black" d="M177.17,-1059.5C233.11,-1057.07 377,-1050.81 442.59,-1047.96"/>
<polygon fill="black" stroke="black" points="442.69,-1051.41 452.52,-1047.48 442.38,-1044.42 442.69,-1051.41"/>
<text text-anchor="middle" x="313.18" y="-1058.7" font-family="Times,serif" font-size="14.00">&#39;N&#39;</text>
</g>
<!-- 4 -->
<g id="node22" class="node">
<title>4</title>
<ellipse fill="none" stroke="black" cx="255.44" cy="-1008.5" rx="23.5" ry="23.5"/>
<text text-anchor="middle" x="255.44" y="-1004.3" font-family="Times,serif" font-size="14.00">4</text>
</g>
<!-- 1&#45;&gt;4 -->
<g id="edge2" class="edge">
<title>1&#45;&gt;4</title>
<path fill="none" stroke="black" d="M171.62,-1045.44C178.51,-1039.97 186.71,-1034.07 194.79,-1029.7 203.33,-1025.08 213.09,-1021.12 222.21,-1017.92"/>
<polygon fill="black" stroke="black" points="223.1,-1020.98 231.5,-1014.51 220.9,-1014.33 223.1,-1020.98"/>
<text text-anchor="middle" x="202.36" y="-1034.7" font-family="Times,serif" font-size="14.00">&#39;[&#39;</text>
</g>
<!-- 3 -->
<g id="node23" class="node">
<title>3</title>
<ellipse fill="none" stroke="black" cx="577.02" cy="-1046.5" rx="23.5" ry="23.5"/>
<text text-anchor="middle" x="577.02" y="-1042.3" font-family="Times,serif" font-size="14.00">3</text>
</g>
<!-- 2&#45;&gt;3 -->
<g id="edge4" class="edge">
<title>2&#45;&gt;3</title>
<path fill="none" stroke="black" d="M500.79,-1046.5C513.07,-1046.5 528.46,-1046.5 542.12,-1046.5"/>
<polygon fill="black" stroke="black" points="542.09,-1050 552.09,-1046.5 542.09,-1043 542.09,-1050"/>
<text text-anchor="middle" x="529.05" y="-1050.7" font-family="Times,serif" font-size="14.00">&#39;=&#39;</text>
</g>
<!-- 5 -->
<g id="node24" class="node">
<title>5</title>
<ellipse fill="none" stroke="black" cx="370.92" cy="-1008.5" rx="23.5" ry="23.5"/>
<text text-anchor="middle" x="370.92" y="-1004.3" font-family="Times,serif" font-size="14.00">5</text>
</g>
<!-- 4&#45;&gt;5 -->
<g id="edge6" class="edge">
<title>4&#45;&gt;5</title>
<path fill="none" stroke="black" d="M279.41,-1008.5C295.71,-1008.5 317.86,-1008.5 336.17,-1008.5"/>
<polygon fill="black" stroke="black" points="335.99,-1012 345.99,-1008.5 335.99,-1005 335.99,-1012"/>
<text text-anchor="middle" x="313.18" y="-1012.7" font-family="Times,serif" font-size="14.00">&#39;e&#39;</text>
</g>
<!-- 3&#45;&gt;31 -->
<g id="edge5" class="edge">
<title>3&#45;&gt;31</title>
<path fill="none" stroke="black" d="M600.24,-1052.27C612.46,-1055.44 627.92,-1059.45 641.84,-1063.07"/>
<polygon fill="black" stroke="black" points="640.55,-1066.61 651.11,-1065.73 642.31,-1059.83 640.55,-1066.61"/>
<text text-anchor="middle" x="626.09" y="-1064.7" font-family="Times,serif" font-size="14.00">&#39;e&#39;</text>
</g>
<!-- 5&#45;&gt;2 -->
<g id="edge7" class="edge">
<title>5&#45;&gt;2</title>
<path fill="none" stroke="black" d="M393.5,-1016.05C404.85,-1020.06 418.99,-1025.09 431.58,-1029.7 435.85,-1031.27 440.35,-1032.94 444.77,-1034.59"/>
<polygon fill="black" stroke="black" points="443.24,-1038.13 453.83,-1038.38 445.71,-1031.58 443.24,-1038.13"/>
<text text-anchor="middle" x="424" y="-1034.7" font-family="Times,serif" font-size="14.00">&#39;]&#39;</text>
</g>
<!-- 6&#45;&gt;32 -->
<g id="edge8" class="edge">
<title>6&#45;&gt;32</title>
<path fill="none" stroke="black" d="M176.94,-64.34C182.74,-65.19 188.98,-65.99 194.79,-66.5 252.64,-71.58 267.35,-70.15 325.42,-69.5 327.65,-69.47 329.95,-69.44 332.27,-69.41"/>
<polygon fill="black" stroke="black" points="332.16,-72.89 342.1,-69.2 332.03,-65.89 332.16,-72.89"/>
<text text-anchor="middle" x="255.44" y="-74.7" font-family="Times,serif" font-size="14.00">&#39;$&#39;</text>
</g>
<!-- 6&#45;&gt;6 -->
<g id="edge10" class="edge">
<title>6&#45;&gt;6</title>
<path fill="none" stroke="black" d="M144.27,-82.7C143.28,-93 146.29,-102 153.29,-102 157.66,-102 160.47,-98.48 161.73,-93.33"/>
<polygon fill="black" stroke="black" points="165.26,-93.88 162.31,-83.7 158.27,-93.5 165.26,-93.88"/>
<text text-anchor="middle" x="153.29" y="-106.2" font-family="Times,serif" font-size="14.00">&#39;s&#39;</text>
</g>
<!-- 7 -->
<g id="node26" class="node">
<title>7</title>
<ellipse fill="none" stroke="black" cx="255.44" cy="-23.5" rx="23.5" ry="23.5"/>
<text text-anchor="middle" x="255.44" y="-19.3" font-family="Times,serif" font-size="14.00">7</text>
</g>
<!-- 6&#45;&gt;7 -->
<g id="edge9" class="edge">
<title>6&#45;&gt;7</title>
<path fill="none" stroke="black" d="M175.53,-52.65C189.24,-47.59 207.34,-40.9 222.74,-35.21"/>
<polygon fill="black" stroke="black" points="223.72,-38.21 231.89,-31.46 221.29,-31.65 223.72,-38.21"/>
<text text-anchor="middle" x="202.36" y="-49.7" font-family="Times,serif" font-size="14.00">&#39;r&#39;</text>
</g>
<!-- 7&#45;&gt;32 -->
<g id="edge11" class="edge">
<title>7&#45;&gt;32</title>
<path fill="none" stroke="black" d="M277.79,-31.96C293.85,-38.34 316.23,-47.21 334.9,-54.61"/>
<polygon fill="black" stroke="black" points="333.53,-58.23 344.12,-58.66 336.11,-51.72 333.53,-58.23"/>
<text text-anchor="middle" x="313.18" y="-54.7" font-family="Times,serif" font-size="14.00">&#39;$&#39;</text>
</g>
<!-- 8&#45;&gt;33 -->
<g id="edge12" class="edge">
<title>8&#45;&gt;33</title>
<path fill="none" stroke="black" d="M175.99,-276.05C182.03,-277.99 188.63,-279.96 194.79,-281.5 209.32,-285.13 213.07,-285.77 227.94,-287.5 303.25,-296.23 323.58,-305.59 398.42,-293.5 413.56,-291.05 429.37,-285.22 442.74,-279.19"/>
<polygon fill="black" stroke="black" points="443.9,-282.03 451.44,-274.59 440.91,-275.71 443.9,-282.03"/>
<text text-anchor="middle" x="313.18" y="-303.7" font-family="Times,serif" font-size="14.00">&#39;$&#39;</text>
</g>
<!-- 9 -->
<g id="node28" class="node">
<title>9</title>
<ellipse fill="none" stroke="black" cx="370.92" cy="-261.5" rx="23.5" ry="23.5"/>
<text text-anchor="middle" x="370.92" y="-257.3" font-family="Times,serif" font-size="14.00">9</text>
</g>
<!-- 8&#45;&gt;9 -->
<g id="edge13" class="edge">
<title>8&#45;&gt;9</title>
<path fill="none" stroke="black" d="M176.96,-267.76C215.05,-266.53 292.1,-264.03 336.44,-262.59"/>
<polygon fill="black" stroke="black" points="336.35,-266.06 346.23,-262.24 336.12,-259.06 336.35,-266.06"/>
<text text-anchor="middle" x="255.44" y="-270.7" font-family="Times,serif" font-size="14.00">&#39;;&#39;</text>
</g>
<!-- 10 -->
<g id="node29" class="node">
<title>10</title>
<ellipse fill="none" stroke="black" cx="255.44" cy="-203.5" rx="23.5" ry="23.5"/>
<text text-anchor="middle" x="255.44" y="-199.3" font-family="Times,serif" font-size="14.00">10</text>
</g>
<!-- 8&#45;&gt;10 -->
<g id="edge14" class="edge">
<title>8&#45;&gt;10</title>
<path fill="none" stroke="black" d="M172.07,-254.19C179.01,-248.81 187.13,-242.78 194.79,-237.7 204.34,-231.37 215.12,-224.98 224.86,-219.46"/>
<polygon fill="black" stroke="black" points="226.14,-222.19 233.17,-214.27 222.73,-216.08 226.14,-222.19"/>
<text text-anchor="middle" x="202.36" y="-242.7" font-family="Times,serif" font-size="14.00">&#39;e&#39;</text>
</g>
<!-- 9&#45;&gt;33 -->
<g id="edge15" class="edge">
<title>9&#45;&gt;33</title>
<path fill="none" stroke="black" d="M394.78,-261.5C407.57,-261.5 423.83,-261.5 438.45,-261.5"/>
<polygon fill="black" stroke="black" points="438.22,-265 448.22,-261.5 438.22,-258 438.22,-265"/>
<text text-anchor="middle" x="424" y="-265.7" font-family="Times,serif" font-size="14.00">&#39;$&#39;</text>
</g>
<!-- 10&#45;&gt;33 -->
<g id="edge16" class="edge">
<title>10&#45;&gt;33</title>
<path fill="none" stroke="black" d="M279.22,-201.33C307.82,-199.39 358.03,-198.58 398.42,-211.7 415.79,-217.34 433.09,-227.84 446.94,-237.74"/>
<polygon fill="black" stroke="black" points="444.4,-240.95 454.51,-244.11 448.57,-235.34 444.4,-240.95"/>
<text text-anchor="middle" x="370.92" y="-216.7" font-family="Times,serif" font-size="14.00">&#39;$&#39;</text>
</g>
<!-- 10&#45;&gt;9 -->
<g id="edge18" class="edge">
<title>10&#45;&gt;9</title>
<path fill="none" stroke="black" d="M277.05,-213.51C290.8,-220.24 309.26,-229.37 325.42,-237.7 330.14,-240.13 335.11,-242.74 339.96,-245.31"/>
<polygon fill="black" stroke="black" points="338.14,-248.84 348.61,-250.47 341.44,-242.67 338.14,-248.84"/>
<text text-anchor="middle" x="313.18" y="-242.7" font-family="Times,serif" font-size="14.00">&#39;;&#39;</text>
</g>
<!-- 11 -->
<g id="node30" class="node">
<title>11</title>
<ellipse fill="none" stroke="black" cx="370.92" cy="-141.5" rx="23.5" ry="23.5"/>
<text text-anchor="middle" x="370.92" y="-137.3" font-family="Times,serif" font-size="14.00">11</text>
</g>
<!-- 10&#45;&gt;11 -->
<g id="edge17" class="edge">
<title>10&#45;&gt;11</title>
<path fill="none" stroke="black" d="M274.58,-189.84C282.47,-184.19 291.95,-177.79 300.94,-172.7 312.88,-165.94 326.56,-159.5 338.57,-154.25"/>
<polygon fill="black" stroke="black" points="339.79,-157.11 347.61,-149.96 337.04,-150.67 339.79,-157.11"/>
<text text-anchor="middle" x="313.18" y="-177.7" font-family="Times,serif" font-size="14.00">&#39;,&#39;</text>
</g>
<!-- 11&#45;&gt;10 -->
<g id="edge19" class="edge">
<title>11&#45;&gt;10</title>
<path fill="none" stroke="black" d="M347.87,-135.66C333.68,-133.13 315.28,-132.22 300.94,-139.7 287.49,-146.72 277.27,-159.87 270.04,-172.41"/>
<polygon fill="black" stroke="black" points="266.67,-170.3 265.09,-180.78 272.86,-173.57 266.67,-170.3"/>
<text text-anchor="middle" x="313.18" y="-144.7" font-family="Times,serif" font-size="14.00">&#39;e&#39;</text>
</g>
<!-- 12&#45;&gt;34 -->
<g id="edge20" class="edge">
<title>12&#45;&gt;34</title>
<path fill="none" stroke="black" d="M177.01,-387.37C188.74,-386.78 203.34,-386.05 216.7,-385.38"/>
<polygon fill="black" stroke="black" points="216.73,-388.84 226.54,-384.84 216.38,-381.85 216.73,-388.84"/>
<text text-anchor="middle" x="202.36" y="-390.7" font-family="Times,serif" font-size="14.00">&#39;N&#39;</text>
</g>
<!-- 13&#45;&gt;35 -->
<g id="edge21" class="edge">
<title>13&#45;&gt;35</title>
<path fill="none" stroke="black" d="M394.78,-383.5C407.57,-383.5 423.83,-383.5 438.45,-383.5"/>
<polygon fill="black" stroke="black" points="438.22,-387 448.22,-383.5 438.22,-380 438.22,-387"/>
<text text-anchor="middle" x="424" y="-387.7" font-family="Times,serif" font-size="14.00">&#39;N&#39;</text>
</g>
<!-- 15 -->
<g id="node34" class="node">
<title>15</title>
<ellipse fill="none" stroke="black" cx="255.44" cy="-476.5" rx="23.5" ry="23.5"/>
<text text-anchor="middle" x="255.44" y="-472.3" font-family="Times,serif" font-size="14.00">15</text>
</g>
<!-- 14&#45;&gt;15 -->
<g id="edge22" class="edge">
<title>14&#45;&gt;15</title>
<path fill="none" stroke="black" d="M177.01,-470.32C190.07,-471.36 206.72,-472.69 221.22,-473.85"/>
<polygon fill="black" stroke="black" points="220.56,-477.38 230.8,-474.69 221.12,-470.41 220.56,-477.38"/>
<text text-anchor="middle" x="202.36" y="-477.7" font-family="Times,serif" font-size="14.00">&#39;v&#39;</text>
</g>
<!-- 15&#45;&gt;14 -->
<g id="edge23" class="edge">
<title>15&#45;&gt;14</title>
<path fill="none" stroke="black" d="M235.86,-463.36C228.2,-458.71 219.02,-454.06 209.94,-451.7 201.66,-449.55 192.75,-450.67 184.54,-453.12"/>
<polygon fill="black" stroke="black" points="183.41,-450.18 175.27,-456.96 185.87,-456.74 183.41,-450.18"/>
<text text-anchor="middle" x="202.36" y="-456.7" font-family="Times,serif" font-size="14.00">&#39;,&#39;</text>
</g>
<!-- 15&#45;&gt;16 -->
<g id="edge24" class="edge">
<title>15&#45;&gt;16</title>
<path fill="none" stroke="black" d="M279.41,-476.5C295.71,-476.5 317.86,-476.5 336.17,-476.5"/>
<polygon fill="black" stroke="black" points="335.99,-480 345.99,-476.5 335.99,-473 335.99,-480"/>
<text text-anchor="middle" x="313.18" y="-480.7" font-family="Times,serif" font-size="14.00">&#39;=&#39;</text>
</g>
<!-- 16&#45;&gt;36 -->
<g id="edge25" class="edge">
<title>16&#45;&gt;36</title>
<path fill="none" stroke="black" d="M394.58,-479.45C405.73,-480.53 419.36,-481.32 431.58,-480.5 433.98,-480.34 436.45,-480.13 438.93,-479.89"/>
<polygon fill="black" stroke="black" points="439.25,-483.26 448.78,-478.64 438.45,-476.3 439.25,-483.26"/>
<text text-anchor="middle" x="424" y="-485.7" font-family="Times,serif" font-size="14.00">&#39;e&#39;</text>
</g>
<!-- 17&#45;&gt;37 -->
<g id="edge26" class="edge">
<title>17&#45;&gt;37</title>
<path fill="none" stroke="black" d="M176.51,-545.73C182.43,-547.04 188.84,-548.39 194.79,-549.5 202.05,-550.85 209.84,-552.14 217.32,-553.3"/>
<polygon fill="black" stroke="black" points="216.54,-556.88 226.95,-554.9 217.58,-549.95 216.54,-556.88"/>
<text text-anchor="middle" x="202.36" y="-556.7" font-family="Times,serif" font-size="14.00">&#39;e&#39;</text>
</g>
<!-- 19 -->
<g id="node38" class="node">
<title>19</title>
<ellipse fill="none" stroke="black" cx="255.44" cy="-639.5" rx="23.5" ry="23.5"/>
<text text-anchor="middle" x="255.44" y="-635.3" font-family="Times,serif" font-size="14.00">19</text>
</g>
<!-- 18&#45;&gt;19 -->
<g id="edge27" class="edge">
<title>18&#45;&gt;19</title>
<path fill="none" stroke="black" d="M177.01,-639.5C189.86,-639.5 206.16,-639.5 220.49,-639.5"/>
<polygon fill="black" stroke="black" points="220.46,-643 230.46,-639.5 220.46,-636 220.46,-643"/>
<text text-anchor="middle" x="202.36" y="-643.7" font-family="Times,serif" font-size="14.00">&#39;(&#39;</text>
</g>
<!-- 19&#45;&gt;38 -->
<g id="edge28" class="edge">
<title>19&#45;&gt;38</title>
<path fill="none" stroke="black" d="M279.08,-640.11C286.09,-640.27 293.83,-640.42 300.94,-640.5 359.14,-641.15 373.8,-638.48 431.58,-631.5 433.97,-631.21 436.44,-630.89 438.92,-630.55"/>
<polygon fill="black" stroke="black" points="439.38,-633.87 448.77,-628.96 438.36,-626.94 439.38,-633.87"/>
<text text-anchor="middle" x="370.92" y="-644.7" font-family="Times,serif" font-size="14.00">&#39;)&#39;</text>
</g>
<!-- 20 -->
<g id="node39" class="node">
<title>20</title>
<ellipse fill="none" stroke="black" cx="370.92" cy="-590.5" rx="23.5" ry="23.5"/>
<text text-anchor="middle" x="370.92" y="-586.3" font-family="Times,serif" font-size="14.00">20</text>
</g>
<!-- 19&#45;&gt;20 -->
<g id="edge29" class="edge">
<title>19&#45;&gt;20</title>
<path fill="none" stroke="black" d="M277.52,-630.4C294.8,-622.94 319.49,-612.27 339.01,-603.85"/>
<polygon fill="black" stroke="black" points="340.16,-606.73 347.96,-599.55 337.39,-600.3 340.16,-606.73"/>
<text text-anchor="middle" x="313.18" y="-623.7" font-family="Times,serif" font-size="14.00">&#39;e&#39;</text>
</g>
<!-- 20&#45;&gt;38 -->
<g id="edge30" class="edge">
<title>20&#45;&gt;38</title>
<path fill="none" stroke="black" d="M393.76,-597.63C407.23,-602.03 424.84,-607.77 440.31,-612.82"/>
<polygon fill="black" stroke="black" points="439.01,-616.41 449.6,-616.18 441.18,-609.75 439.01,-616.41"/>
<text text-anchor="middle" x="424" y="-614.7" font-family="Times,serif" font-size="14.00">&#39;)&#39;</text>
</g>
<!-- 21 -->
<g id="node40" class="node">
<title>21</title>
<ellipse fill="none" stroke="black" cx="477.08" cy="-549.5" rx="23.5" ry="23.5"/>
<text text-anchor="middle" x="477.08" y="-545.3" font-family="Times,serif" font-size="14.00">21</text>
</g>
<!-- 20&#45;&gt;21 -->
<g id="edge31" class="edge">
<title>20&#45;&gt;21</title>
<path fill="none" stroke="black" d="M393.25,-582.1C408.13,-576.24 428.24,-568.33 444.91,-561.77"/>
<polygon fill="black" stroke="black" points="445.75,-564.8 453.78,-557.88 443.19,-558.29 445.75,-564.8"/>
<text text-anchor="middle" x="424" y="-576.7" font-family="Times,serif" font-size="14.00">&#39;,&#39;</text>
</g>
<!-- 21&#45;&gt;20 -->
<g id="edge32" class="edge">
<title>21&#45;&gt;20</title>
<path fill="none" stroke="black" d="M453.79,-544.65C442.24,-543.16 428.15,-542.98 416.42,-547.7 407.56,-551.27 399.48,-557.54 392.7,-564.2"/>
<polygon fill="black" stroke="black" points="390.64,-561.36 386.38,-571.06 395.76,-566.13 390.64,-561.36"/>
<text text-anchor="middle" x="424" y="-552.7" font-family="Times,serif" font-size="14.00">&#39;e&#39;</text>
</g>
<!-- 23 -->
<g id="node42" class="node">
<title>23</title>
<ellipse fill="none" stroke="black" cx="255.44" cy="-798.5" rx="23.5" ry="23.5"/>
<text text-anchor="middle" x="255.44" y="-794.3" font-family="Times,serif" font-size="14.00">23</text>
</g>
<!-- 22&#45;&gt;23 -->
<g id="edge33" class="edge">
<title>22&#45;&gt;23</title>
<path fill="none" stroke="black" d="M177.01,-798.5C189.86,-798.5 206.16,-798.5 220.49,-798.5"/>
<polygon fill="black" stroke="black" points="220.46,-802 230.46,-798.5 220.46,-795 220.46,-802"/>
<text text-anchor="middle" x="202.36" y="-802.7" font-family="Times,serif" font-size="14.00">&#39;(&#39;</text>
</g>
<!-- 23&#45;&gt;39 -->
<g id="edge34" class="edge">
<title>23&#45;&gt;39</title>
<path fill="none" stroke="black" d="M276.2,-810.07C298.28,-821.88 335.45,-838.5 369.92,-838.5 369.92,-838.5 369.92,-838.5 680.17,-838.5 707.77,-838.5 734.11,-821.03 752.62,-804.78"/>
<polygon fill="black" stroke="black" points="754.57,-807.82 759.55,-798.47 749.83,-802.68 754.57,-807.82"/>
<text text-anchor="middle" x="529.05" y="-842.7" font-family="Times,serif" font-size="14.00">&#39;)&#39;</text>
</g>
<!-- 24 -->
<g id="node43" class="node">
<title>24</title>
<ellipse fill="none" stroke="black" cx="577.02" cy="-769.5" rx="23.5" ry="23.5"/>
<text text-anchor="middle" x="577.02" y="-765.3" font-family="Times,serif" font-size="14.00">24</text>
</g>
<!-- 23&#45;&gt;24 -->
<g id="edge35" class="edge">
<title>23&#45;&gt;24</title>
<path fill="none" stroke="black" d="M279.41,-798.57C327.35,-798.38 441.41,-796.15 535.52,-780.5 538.22,-780.05 541.01,-779.5 543.79,-778.88"/>
<polygon fill="black" stroke="black" points="544.48,-782.06 553.34,-776.25 542.79,-775.27 544.48,-782.06"/>
<text text-anchor="middle" x="424" y="-798.7" font-family="Times,serif" font-size="14.00">&#39;.&#39;</text>
</g>
<!-- 26 -->
<g id="node44" class="node">
<title>26</title>
<ellipse fill="none" stroke="black" cx="370.92" cy="-729.5" rx="23.5" ry="23.5"/>
<text text-anchor="middle" x="370.92" y="-725.3" font-family="Times,serif" font-size="14.00">26</text>
</g>
<!-- 23&#45;&gt;26 -->
<g id="edge36" class="edge">
<title>23&#45;&gt;26</title>
<path fill="none" stroke="black" d="M274.79,-785.19C282.71,-779.6 292.16,-773.15 300.94,-767.7 313.61,-759.84 327.98,-751.75 340.31,-745.06"/>
<polygon fill="black" stroke="black" points="341.54,-747.83 348.7,-740.02 338.23,-741.66 341.54,-747.83"/>
<text text-anchor="middle" x="313.18" y="-772.7" font-family="Times,serif" font-size="14.00">&#39;N&#39;</text>
</g>
<!-- 24&#45;&gt;39 -->
<g id="edge37" class="edge">
<title>24&#45;&gt;39</title>
<path fill="none" stroke="black" d="M600.22,-773.96C606.14,-774.98 612.55,-775.93 618.52,-776.5 660.42,-780.49 708.75,-780.12 741.31,-779.14"/>
<polygon fill="black" stroke="black" points="741.26,-782.61 751.13,-778.78 741.02,-775.62 741.26,-782.61"/>
<text text-anchor="middle" x="679.17" y="-784.7" font-family="Times,serif" font-size="14.00">&#39;)&#39;</text>
</g>
<!-- 25 -->
<g id="node45" class="node">
<title>25</title>
<ellipse fill="none" stroke="black" cx="679.17" cy="-733.5" rx="23.5" ry="23.5"/>
<text text-anchor="middle" x="679.17" y="-729.3" font-family="Times,serif" font-size="14.00">25</text>
</g>
<!-- 24&#45;&gt;25 -->
<g id="edge38" class="edge">
<title>24&#45;&gt;25</title>
<path fill="none" stroke="black" d="M599.26,-761.87C612.97,-756.94 631.07,-750.43 646.47,-744.89"/>
<polygon fill="black" stroke="black" points="647.39,-747.92 655.62,-741.25 645.02,-741.34 647.39,-747.92"/>
<text text-anchor="middle" x="626.09" y="-759.7" font-family="Times,serif" font-size="14.00">&#39;N&#39;</text>
</g>
<!-- 26&#45;&gt;39 -->
<g id="edge40" class="edge">
<title>26&#45;&gt;39</title>
<path fill="none" stroke="black" d="M389.96,-715.36C409.86,-701.2 443.42,-681.5 476.08,-681.5 476.08,-681.5 476.08,-681.5 680.17,-681.5 716.74,-681.5 744.85,-715.77 761.55,-743.36"/>
<polygon fill="black" stroke="black" points="758.95,-744.86 766.98,-751.78 765.02,-741.37 758.95,-744.86"/>
<text text-anchor="middle" x="577.02" y="-685.7" font-family="Times,serif" font-size="14.00">&#39;)&#39;</text>
</g>
<!-- 27 -->
<g id="node46" class="node">
<title>27</title>
<ellipse fill="none" stroke="black" cx="477.08" cy="-746.5" rx="23.5" ry="23.5"/>
<text text-anchor="middle" x="477.08" y="-742.3" font-family="Times,serif" font-size="14.00">27</text>
</g>
<!-- 26&#45;&gt;27 -->
<g id="edge41" class="edge">
<title>26&#45;&gt;27</title>
<path fill="none" stroke="black" d="M394.52,-733.19C408.72,-735.51 427.27,-738.53 443.09,-741.12"/>
<polygon fill="black" stroke="black" points="442.09,-744.66 452.52,-742.82 443.21,-737.75 442.09,-744.66"/>
<text text-anchor="middle" x="424" y="-743.7" font-family="Times,serif" font-size="14.00">&#39;,&#39;</text>
</g>
<!-- 25&#45;&gt;39 -->
<g id="edge39" class="edge">
<title>25&#45;&gt;39</title>
<path fill="none" stroke="black" d="M701.11,-742.83C713.8,-748.49 730.29,-755.84 744.82,-762.32"/>
<polygon fill="black" stroke="black" points="742.94,-765.76 753.5,-766.63 745.79,-759.36 742.94,-765.76"/>
<text text-anchor="middle" x="729.53" y="-761.7" font-family="Times,serif" font-size="14.00">&#39;)&#39;</text>
</g>
<!-- 27&#45;&gt;24 -->
<g id="edge42" class="edge">
<title>27&#45;&gt;24</title>
<path fill="none" stroke="black" d="M500.3,-751.72C513.07,-754.72 529.35,-758.54 543.53,-761.87"/>
<polygon fill="black" stroke="black" points="542.35,-765.42 552.88,-764.3 543.95,-758.61 542.35,-765.42"/>
<text text-anchor="middle" x="529.05" y="-763.7" font-family="Times,serif" font-size="14.00">&#39;.&#39;</text>
</g>
<!-- 27&#45;&gt;26 -->
<g id="edge43" class="edge">
<title>27&#45;&gt;26</title>
<path fill="none" stroke="black" d="M458.71,-731.38C450.95,-725.59 441.36,-719.67 431.58,-716.7 422.47,-713.93 412.41,-714.68 403.18,-716.83"/>
<polygon fill="black" stroke="black" points="402.46,-713.68 393.85,-719.85 404.43,-720.4 402.46,-713.68"/>
<text text-anchor="middle" x="424" y="-721.7" font-family="Times,serif" font-size="14.00">&#39;N&#39;</text>
</g>
<!-- 29 -->
<g id="node48" class="node">
<title>29</title>
<ellipse fill="none" stroke="black" cx="255.44" cy="-918.5" rx="23.5" ry="23.5"/>
<text text-anchor="middle" x="255.44" y="-914.3" font-family="Times,serif" font-size="14.00">29</text>
</g>
<!-- 28&#45;&gt;29 -->
<g id="edge44" class="edge">
<title>28&#45;&gt;29</title>
<path fill="none" stroke="black" d="M177.01,-918.5C189.86,-918.5 206.16,-918.5 220.49,-918.5"/>
<polygon fill="black" stroke="black" points="220.46,-922 230.46,-918.5 220.46,-915 220.46,-922"/>
<text text-anchor="middle" x="202.36" y="-922.7" font-family="Times,serif" font-size="14.00">&#39;{&#39;</text>
</g>
<!-- 29&#45;&gt;40 -->
<g id="edge46" class="edge">
<title>29&#45;&gt;40</title>
<path fill="none" stroke="black" d="M278.48,-924.31C285.6,-925.95 293.56,-927.55 300.94,-928.5 358.55,-935.91 373.58,-935.75 431.58,-932.5 433.97,-932.37 436.44,-932.19 438.92,-931.99"/>
<polygon fill="black" stroke="black" points="439.14,-935.39 448.76,-930.95 438.48,-928.42 439.14,-935.39"/>
<text text-anchor="middle" x="370.92" y="-939.7" font-family="Times,serif" font-size="14.00">&#39;}&#39;</text>
</g>
<!-- 30 -->
<g id="node49" class="node">
<title>30</title>
<ellipse fill="none" stroke="black" cx="370.92" cy="-890.5" rx="23.5" ry="23.5"/>
<text text-anchor="middle" x="370.92" y="-886.3" font-family="Times,serif" font-size="14.00">30</text>
</g>
<!-- 29&#45;&gt;30 -->
<g id="edge45" class="edge">
<title>29&#45;&gt;30</title>
<path fill="none" stroke="black" d="M278.59,-913.03C295.31,-908.91 318.5,-903.19 337.33,-898.54"/>
<polygon fill="black" stroke="black" points="337.96,-901.75 346.83,-895.95 336.28,-894.95 337.96,-901.75"/>
<text text-anchor="middle" x="313.18" y="-911.7" font-family="Times,serif" font-size="14.00">&#39;f&#39;</text>
</g>
<!-- 30&#45;&gt;40 -->
<g id="edge48" class="edge">
<title>30&#45;&gt;40</title>
<path fill="none" stroke="black" d="M393.5,-898.17C407.19,-903.03 425.21,-909.43 440.93,-915.01"/>
<polygon fill="black" stroke="black" points="439.26,-918.49 449.86,-918.54 441.6,-911.89 439.26,-918.49"/>
<text text-anchor="middle" x="424" y="-915.7" font-family="Times,serif" font-size="14.00">&#39;}&#39;</text>
</g>
<!-- 30&#45;&gt;29 -->
<g id="edge47" class="edge">
<title>30&#45;&gt;29</title>
<path fill="none" stroke="black" d="M348.54,-882.76C334.62,-878.93 316.28,-876.18 300.94,-881.7 293.29,-884.45 286.02,-889.16 279.66,-894.3"/>
<polygon fill="black" stroke="black" points="277.76,-891.19 272.59,-900.44 282.4,-896.43 277.76,-891.19"/>
<text text-anchor="middle" x="313.18" y="-886.7" font-family="Times,serif" font-size="14.00">&#39;,&#39;, &#39;;&#39;</text>
</g>
</g>
</svg>
